<?xml version="1.0" encoding="UTF-8"?>
<svg width="232px" height="132px" viewBox="0 0 232 132" version="1.1" xmlns="http://www.w3.org/2000/svg" xmlns:xlink="http://www.w3.org/1999/xlink">
    <title>atoms/img/ilustraciones/howto/alimentacion</title>
    <defs>
        <polygon id="path-1" points="0 0 232 0 232 132 0 132"></polygon>
        <path d="M77.0403637,4.06731435 C73.227159,8.34334161 69.6347596,12.2329913 68.265939,11.814703 L68.265939,11.814703 C35.1330624,1.71627556 0.246680968,22.2460361 0,52.9354581 L0,52.9354581 L0,53.5900577 C0.14921611,71.9464442 12.6687065,93.8569872 45.2374944,114.993913 L45.2374944,114.993913 C123.58199,165.837929 231.875797,110.069323 232,55.6918484 L232,55.6918484 L232,55.526258 C231.98275,45.6236067 228.3731,35.7761522 220.336993,26.624695 L220.336993,26.624695 C191.097535,-6.67018855 167.027166,2.25789419 141.833794,11.8233275 L141.833794,11.8233275 C129.844754,16.3762012 124.390172,9.60338111 114.905892,3.07118457 L114.905892,3.07118457 C111.982809,1.05822619 104.385725,0 96.6998018,0 L96.6998018,0 C88.1539451,0 79.4994107,1.3083367 77.0403637,4.06731435" id="path-3"></path>
        <path d="M77.0403637,4.06731435 C73.227159,8.34334161 69.6347596,12.2329913 68.265939,11.814703 L68.265939,11.814703 C35.1330624,1.71627556 0.246680968,22.2460361 0,52.9354581 L0,52.9354581 L0,53.5900577 C0.14921611,71.9464442 12.6687065,93.8569872 45.2374944,114.993913 L45.2374944,114.993913 C123.58199,165.837929 231.875797,110.069323 232,55.6918484 L232,55.6918484 L232,55.526258 C231.98275,45.6236067 228.3731,35.7761522 220.336993,26.624695 L220.336993,26.624695 C191.097535,-6.67018855 167.027166,2.25789419 141.833794,11.8233275 L141.833794,11.8233275 C129.844754,16.3762012 124.390172,9.60338111 114.905892,3.07118457 L114.905892,3.07118457 C111.982809,1.05822619 104.385725,0 96.6998018,0 L96.6998018,0 C88.1539451,0 79.4994107,1.3083367 77.0403637,4.06731435" id="path-5"></path>
        <path d="M77.0403637,4.06731435 C73.227159,8.34334161 69.6347596,12.2329913 68.265939,11.814703 L68.265939,11.814703 C35.1330624,1.71627556 0.246680968,22.2460361 0,52.9354581 L0,52.9354581 L0,53.5900577 C0.14921611,71.9464442 12.6687065,93.8569872 45.2374944,114.993913 L45.2374944,114.993913 C123.58199,165.837929 231.875797,110.069323 232,55.6918484 L232,55.6918484 L232,55.526258 C231.98275,45.6236067 228.3731,35.7761522 220.336993,26.624695 L220.336993,26.624695 C191.097535,-6.67018855 167.027166,2.25789419 141.833794,11.8233275 L141.833794,11.8233275 C129.844754,16.3762012 124.390172,9.60338111 114.905892,3.07118457 L114.905892,3.07118457 C111.982809,1.05822619 104.385725,0 96.6998018,0 L96.6998018,0 C88.1539451,0 79.4994107,1.3083367 77.0403637,4.06731435 L77.0403637,4.06731435 Z" id="path-7"></path>
        <path d="M77.0403637,4.06731435 C73.227159,8.34334161 69.6347596,12.2329913 68.265939,11.814703 L68.265939,11.814703 C35.1330624,1.71627556 0.246680968,22.2460361 0,52.9354581 L0,52.9354581 L0,53.5900577 C0.14921611,71.9464442 12.6687065,93.8569872 45.2374944,114.993913 L45.2374944,114.993913 C123.58199,165.837929 231.875797,110.069323 232,55.6918484 L232,55.6918484 L232,55.526258 C231.98275,45.6236067 228.3731,35.7761522 220.336993,26.624695 L220.336993,26.624695 C191.097535,-6.67018855 167.027166,2.25789419 141.833794,11.8233275 L141.833794,11.8233275 C129.844754,16.3762012 124.390172,9.60338111 114.905892,3.07118457 L114.905892,3.07118457 C111.982809,1.05822619 104.385725,0 96.6998018,0 L96.6998018,0 C88.1539451,0 79.4994107,1.3083367 77.0403637,4.06731435" id="path-9"></path>
        <path d="M77.0403637,4.06731435 C73.227159,8.34334161 69.6347596,12.2329913 68.265939,11.814703 L68.265939,11.814703 C35.1330624,1.71627556 0.246680968,22.2460361 0,52.9354581 L0,52.9354581 L0,53.5900577 C0.14921611,71.9464442 12.6687065,93.8569872 45.2374944,114.993913 L45.2374944,114.993913 C123.58199,165.837929 231.875797,110.069323 232,55.6918484 L232,55.6918484 L232,55.526258 C231.98275,45.6236067 228.3731,35.7761522 220.336993,26.624695 L220.336993,26.624695 C191.097535,-6.67018855 167.027166,2.25789419 141.833794,11.8233275 L141.833794,11.8233275 C129.844754,16.3762012 124.390172,9.60338111 114.905892,3.07118457 L114.905892,3.07118457 C111.982809,1.05822619 104.385725,0 96.6998018,0 L96.6998018,0 C88.1539451,0 79.4994107,1.3083367 77.0403637,4.06731435" id="path-11"></path>
        <path d="M77.0403637,4.06731435 C73.227159,8.34334161 69.6347596,12.2329913 68.265939,11.814703 L68.265939,11.814703 C35.1330624,1.71627556 0.246680968,22.2460361 0,52.9354581 L0,52.9354581 L0,53.5900577 C0.14921611,71.9464442 12.6687065,93.8569872 45.2374944,114.993913 L45.2374944,114.993913 C123.58199,165.837929 231.875797,110.069323 232,55.6918484 L232,55.6918484 L232,55.526258 C231.98275,45.6236067 228.3731,35.7761522 220.336993,26.624695 L220.336993,26.624695 C191.097535,-6.67018855 167.027166,2.25789419 141.833794,11.8233275 L141.833794,11.8233275 C129.844754,16.3762012 124.390172,9.60338111 114.905892,3.07118457 L114.905892,3.07118457 C111.982809,1.05822619 104.385725,0 96.6998018,0 L96.6998018,0 C88.1539451,0 79.4994107,1.3083367 77.0403637,4.06731435" id="path-13"></path>
        <path d="M77.0403637,4.06731435 C73.227159,8.34334161 69.6347596,12.2329913 68.265939,11.814703 L68.265939,11.814703 C35.1330624,1.71627556 0.246680968,22.2460361 0,52.9354581 L0,52.9354581 L0,53.5900577 C0.14921611,71.9464442 12.6687065,93.8569872 45.2374944,114.993913 L45.2374944,114.993913 C123.58199,165.837929 231.875797,110.069323 232,55.6918484 L232,55.6918484 L232,55.526258 C231.98275,45.6236067 228.3731,35.7761522 220.336993,26.624695 L220.336993,26.624695 C191.097535,-6.67018855 167.027166,2.25789419 141.833794,11.8233275 L141.833794,11.8233275 C129.844754,16.3762012 124.390172,9.60338111 114.905892,3.07118457 L114.905892,3.07118457 C111.982809,1.05822619 104.385725,0 96.6998018,0 L96.6998018,0 C88.1539451,0 79.4994107,1.3083367 77.0403637,4.06731435" id="path-15"></path>
        <path d="M77.0403637,4.06731435 C73.227159,8.34334161 69.6347596,12.2329913 68.265939,11.814703 L68.265939,11.814703 C35.1330624,1.71627556 0.246680968,22.2460361 0,52.9354581 L0,52.9354581 L0,53.5900577 C0.14921611,71.9464442 12.6687065,93.8569872 45.2374944,114.993913 L45.2374944,114.993913 C123.58199,165.837929 231.875797,110.069323 232,55.6918484 L232,55.6918484 L232,55.526258 C231.98275,45.6236067 228.3731,35.7761522 220.336993,26.624695 L220.336993,26.624695 C191.097535,-6.67018855 167.027166,2.25789419 141.833794,11.8233275 L141.833794,11.8233275 C129.844754,16.3762012 124.390172,9.60338111 114.905892,3.07118457 L114.905892,3.07118457 C111.982809,1.05822619 104.385725,0 96.6998018,0 L96.6998018,0 C88.1539451,0 79.4994107,1.3083367 77.0403637,4.06731435 L77.0403637,4.06731435 Z" id="path-17"></path>
        <path d="M77.0403637,4.06731435 C73.227159,8.34334161 69.6347596,12.2329913 68.265939,11.814703 L68.265939,11.814703 C35.1330624,1.71627556 0.246680968,22.2460361 0,52.9354581 L0,52.9354581 L0,53.5900577 C0.14921611,71.9464442 12.6687065,93.8569872 45.2374944,114.993913 L45.2374944,114.993913 C123.58199,165.837929 231.875797,110.069323 232,55.6918484 L232,55.6918484 L232,55.526258 C231.98275,45.6236067 228.3731,35.7761522 220.336993,26.624695 L220.336993,26.624695 C191.097535,-6.67018855 167.027166,2.25789419 141.833794,11.8233275 L141.833794,11.8233275 C129.844754,16.3762012 124.390172,9.60338111 114.905892,3.07118457 L114.905892,3.07118457 C111.982809,1.05822619 104.385725,0 96.6998018,0 L96.6998018,0 C88.1539451,0 79.4994107,1.3083367 77.0403637,4.06731435" id="path-19"></path>
        <path d="M77.0403637,4.06731435 C73.227159,8.34334161 69.6347596,12.2329913 68.265939,11.814703 L68.265939,11.814703 C35.1330624,1.71627556 0.246680968,22.2460361 0,52.9354581 L0,52.9354581 L0,53.5900577 C0.14921611,71.9464442 12.6687065,93.8569872 45.2374944,114.993913 L45.2374944,114.993913 C123.58199,165.837929 231.875797,110.069323 232,55.6918484 L232,55.6918484 L232,55.526258 C231.98275,45.6236067 228.3731,35.7761522 220.336993,26.624695 L220.336993,26.624695 C191.097535,-6.67018855 167.027166,2.25789419 141.833794,11.8233275 L141.833794,11.8233275 C129.844754,16.3762012 124.390172,9.60338111 114.905892,3.07118457 L114.905892,3.07118457 C111.982809,1.05822619 104.385725,0 96.6998018,0 L96.6998018,0 C88.1539451,0 79.4994107,1.3083367 77.0403637,4.06731435" id="path-21"></path>
        <path d="M77.0403637,4.06731435 C73.227159,8.34334161 69.6347596,12.2329913 68.265939,11.814703 L68.265939,11.814703 C35.1330624,1.71627556 0.246680968,22.2460361 0,52.9354581 L0,52.9354581 L0,53.5900577 C0.14921611,71.9464442 12.6687065,93.8569872 45.2374944,114.993913 L45.2374944,114.993913 C123.58199,165.837929 231.875797,110.069323 232,55.6918484 L232,55.6918484 L232,55.526258 C231.98275,45.6236067 228.3731,35.7761522 220.336993,26.624695 L220.336993,26.624695 C191.097535,-6.67018855 167.027166,2.25789419 141.833794,11.8233275 L141.833794,11.8233275 C129.844754,16.3762012 124.390172,9.60338111 114.905892,3.07118457 L114.905892,3.07118457 C111.982809,1.05822619 104.385725,0 96.6998018,0 L96.6998018,0 C88.1539451,0 79.4994107,1.3083367 77.0403637,4.06731435" id="path-23"></path>
        <path d="M77.0403637,4.06731435 C73.227159,8.34334161 69.6347596,12.2329913 68.265939,11.814703 L68.265939,11.814703 C35.1330624,1.71627556 0.246680968,22.2460361 0,52.9354581 L0,52.9354581 L0,53.5900577 C0.14921611,71.9464442 12.6687065,93.8569872 45.2374944,114.993913 L45.2374944,114.993913 C123.58199,165.837929 231.875797,110.069323 232,55.6918484 L232,55.6918484 L232,55.526258 C231.98275,45.6236067 228.3731,35.7761522 220.336993,26.624695 L220.336993,26.624695 C191.097535,-6.67018855 167.027166,2.25789419 141.833794,11.8233275 L141.833794,11.8233275 C129.844754,16.3762012 124.390172,9.60338111 114.905892,3.07118457 L114.905892,3.07118457 C111.982809,1.05822619 104.385725,0 96.6998018,0 L96.6998018,0 C88.1539451,0 79.4994107,1.3083367 77.0403637,4.06731435" id="path-25"></path>
        <path d="M77.0403637,4.06731435 C73.227159,8.34334161 69.6347596,12.2329913 68.265939,11.814703 L68.265939,11.814703 C35.1330624,1.71627556 0.246680968,22.2460361 0,52.9354581 L0,52.9354581 L0,53.5900577 C0.14921611,71.9464442 12.6687065,93.8569872 45.2374944,114.993913 L45.2374944,114.993913 C123.58199,165.837929 231.875797,110.069323 232,55.6918484 L232,55.6918484 L232,55.526258 C231.98275,45.6236067 228.3731,35.7761522 220.336993,26.624695 L220.336993,26.624695 C191.097535,-6.67018855 167.027166,2.25789419 141.833794,11.8233275 L141.833794,11.8233275 C129.844754,16.3762012 124.390172,9.60338111 114.905892,3.07118457 L114.905892,3.07118457 C111.982809,1.05822619 104.385725,0 96.6998018,0 L96.6998018,0 C88.1539451,0 79.4994107,1.3083367 77.0403637,4.06731435" id="path-27"></path>
        <path d="M77.0403637,4.06731435 C73.227159,8.34334161 69.6347596,12.2329913 68.265939,11.814703 L68.265939,11.814703 C35.1330624,1.71627556 0.246680968,22.2460361 0,52.9354581 L0,52.9354581 L0,53.5900577 C0.14921611,71.9464442 12.6687065,93.8569872 45.2374944,114.993913 L45.2374944,114.993913 C123.58199,165.837929 231.875797,110.069323 232,55.6918484 L232,55.6918484 L232,55.526258 C231.98275,45.6236067 228.3731,35.7761522 220.336993,26.624695 L220.336993,26.624695 C191.097535,-6.67018855 167.027166,2.25789419 141.833794,11.8233275 L141.833794,11.8233275 C129.844754,16.3762012 124.390172,9.60338111 114.905892,3.07118457 L114.905892,3.07118457 C111.982809,1.05822619 104.385725,0 96.6998018,0 L96.6998018,0 C88.1539451,0 79.4994107,1.3083367 77.0403637,4.06731435 L77.0403637,4.06731435 Z" id="path-29"></path>
        <path d="M77.0403637,4.06731435 C73.227159,8.34334161 69.6347596,12.2329913 68.265939,11.814703 L68.265939,11.814703 C35.1330624,1.71627556 0.246680968,22.2460361 0,52.9354581 L0,52.9354581 L0,53.5900577 C0.14921611,71.9464442 12.6687065,93.8569872 45.2374944,114.993913 L45.2374944,114.993913 C123.58199,165.837929 231.875797,110.069323 232,55.6918484 L232,55.6918484 L232,55.526258 C231.98275,45.6236067 228.3731,35.7761522 220.336993,26.624695 L220.336993,26.624695 C191.097535,-6.67018855 167.027166,2.25789419 141.833794,11.8233275 L141.833794,11.8233275 C129.844754,16.3762012 124.390172,9.60338111 114.905892,3.07118457 L114.905892,3.07118457 C111.982809,1.05822619 104.385725,0 96.6998018,0 L96.6998018,0 C88.1539451,0 79.4994107,1.3083367 77.0403637,4.06731435" id="path-31"></path>
        <path d="M77.0403637,4.06731435 C73.227159,8.34334161 69.6347596,12.2329913 68.265939,11.814703 L68.265939,11.814703 C35.1330624,1.71627556 0.246680968,22.2460361 0,52.9354581 L0,52.9354581 L0,53.5900577 C0.14921611,71.9464442 12.6687065,93.8569872 45.2374944,114.993913 L45.2374944,114.993913 C123.58199,165.837929 231.875797,110.069323 232,55.6918484 L232,55.6918484 L232,55.526258 C231.98275,45.6236067 228.3731,35.7761522 220.336993,26.624695 L220.336993,26.624695 C191.097535,-6.67018855 167.027166,2.25789419 141.833794,11.8233275 L141.833794,11.8233275 C129.844754,16.3762012 124.390172,9.60338111 114.905892,3.07118457 L114.905892,3.07118457 C111.982809,1.05822619 104.385725,0 96.6998018,0 L96.6998018,0 C88.1539451,0 79.4994107,1.3083367 77.0403637,4.06731435" id="path-33"></path>
        <path d="M77.0403637,4.06731435 C73.227159,8.34334161 69.6347596,12.2329913 68.265939,11.814703 L68.265939,11.814703 C35.1330624,1.71627556 0.246680968,22.2460361 0,52.9354581 L0,52.9354581 L0,53.5900577 C0.14921611,71.9464442 12.6687065,93.8569872 45.2374944,114.993913 L45.2374944,114.993913 C123.58199,165.837929 231.875797,110.069323 232,55.6918484 L232,55.6918484 L232,55.526258 C231.98275,45.6236067 228.3731,35.7761522 220.336993,26.624695 L220.336993,26.624695 C191.097535,-6.67018855 167.027166,2.25789419 141.833794,11.8233275 L141.833794,11.8233275 C129.844754,16.3762012 124.390172,9.60338111 114.905892,3.07118457 L114.905892,3.07118457 C111.982809,1.05822619 104.385725,0 96.6998018,0 L96.6998018,0 C88.1539451,0 79.4994107,1.3083367 77.0403637,4.06731435" id="path-35"></path>
        <path d="M77.0403637,4.06731435 C73.227159,8.34334161 69.6347596,12.2329913 68.265939,11.814703 L68.265939,11.814703 C35.1330624,1.71627556 0.246680968,22.2460361 0,52.9354581 L0,52.9354581 L0,53.5900577 C0.14921611,71.9464442 12.6687065,93.8569872 45.2374944,114.993913 L45.2374944,114.993913 C123.58199,165.837929 231.875797,110.069323 232,55.6918484 L232,55.6918484 L232,55.526258 C231.98275,45.6236067 228.3731,35.7761522 220.336993,26.624695 L220.336993,26.624695 C191.097535,-6.67018855 167.027166,2.25789419 141.833794,11.8233275 L141.833794,11.8233275 C129.844754,16.3762012 124.390172,9.60338111 114.905892,3.07118457 L114.905892,3.07118457 C111.982809,1.05822619 104.385725,0 96.6998018,0 L96.6998018,0 C88.1539451,0 79.4994107,1.3083367 77.0403637,4.06731435" id="path-37"></path>
        <path d="M77.0403637,4.06731435 C73.227159,8.34334161 69.6347596,12.2329913 68.265939,11.814703 L68.265939,11.814703 C35.1330624,1.71627556 0.246680968,22.2460361 0,52.9354581 L0,52.9354581 L0,53.5900577 C0.14921611,71.9464442 12.6687065,93.8569872 45.2374944,114.993913 L45.2374944,114.993913 C123.58199,165.837929 231.875797,110.069323 232,55.6918484 L232,55.6918484 L232,55.526258 C231.98275,45.6236067 228.3731,35.7761522 220.336993,26.624695 L220.336993,26.624695 C191.097535,-6.67018855 167.027166,2.25789419 141.833794,11.8233275 L141.833794,11.8233275 C129.844754,16.3762012 124.390172,9.60338111 114.905892,3.07118457 L114.905892,3.07118457 C111.982809,1.05822619 104.385725,0 96.6998018,0 L96.6998018,0 C88.1539451,0 79.4994107,1.3083367 77.0403637,4.06731435" id="path-39"></path>
        <path d="M77.0403637,4.06731435 C73.227159,8.34334161 69.6347596,12.2329913 68.265939,11.814703 L68.265939,11.814703 C35.1330624,1.71627556 0.246680968,22.2460361 0,52.9354581 L0,52.9354581 L0,53.5900577 C0.14921611,71.9464442 12.6687065,93.8569872 45.2374944,114.993913 L45.2374944,114.993913 C123.58199,165.837929 231.875797,110.069323 232,55.6918484 L232,55.6918484 L232,55.526258 C231.98275,45.6236067 228.3731,35.7761522 220.336993,26.624695 L220.336993,26.624695 C191.097535,-6.67018855 167.027166,2.25789419 141.833794,11.8233275 L141.833794,11.8233275 C129.844754,16.3762012 124.390172,9.60338111 114.905892,3.07118457 L114.905892,3.07118457 C111.982809,1.05822619 104.385725,0 96.6998018,0 L96.6998018,0 C88.1539451,0 79.4994107,1.3083367 77.0403637,4.06731435" id="path-41"></path>
        <path d="M77.0403637,4.06731435 C73.227159,8.34334161 69.6347596,12.2329913 68.265939,11.814703 L68.265939,11.814703 C35.1330624,1.71627556 0.246680968,22.2460361 0,52.9354581 L0,52.9354581 L0,53.5900577 C0.14921611,71.9464442 12.6687065,93.8569872 45.2374944,114.993913 L45.2374944,114.993913 C123.58199,165.837929 231.875797,110.069323 232,55.6918484 L232,55.6918484 L232,55.526258 C231.98275,45.6236067 228.3731,35.7761522 220.336993,26.624695 L220.336993,26.624695 C191.097535,-6.67018855 167.027166,2.25789419 141.833794,11.8233275 L141.833794,11.8233275 C129.844754,16.3762012 124.390172,9.60338111 114.905892,3.07118457 L114.905892,3.07118457 C111.982809,1.05822619 104.385725,0 96.6998018,0 L96.6998018,0 C88.1539451,0 79.4994107,1.3083367 77.0403637,4.06731435" id="path-43"></path>
        <path d="M77.0403637,4.06731435 C73.227159,8.34334161 69.6347596,12.2329913 68.265939,11.814703 L68.265939,11.814703 C35.1330624,1.71627556 0.246680968,22.2460361 0,52.9354581 L0,52.9354581 L0,53.5900577 C0.14921611,71.9464442 12.6687065,93.8569872 45.2374944,114.993913 L45.2374944,114.993913 C123.58199,165.837929 231.875797,110.069323 232,55.6918484 L232,55.6918484 L232,55.526258 C231.98275,45.6236067 228.3731,35.7761522 220.336993,26.624695 L220.336993,26.624695 C191.097535,-6.67018855 167.027166,2.25789419 141.833794,11.8233275 L141.833794,11.8233275 C129.844754,16.3762012 124.390172,9.60338111 114.905892,3.07118457 L114.905892,3.07118457 C111.982809,1.05822619 104.385725,0 96.6998018,0 L96.6998018,0 C88.1539451,0 79.4994107,1.3083367 77.0403637,4.06731435" id="path-45"></path>
    </defs>
    <g id="UI-KIT" stroke="none" stroke-width="1" fill="none" fill-rule="evenodd">
        <g id="Correos_web_UIkit_Illustrations" transform="translate(-1072.000000, -14243.000000)">
            <g id="HOW-TO" transform="translate(64.000000, 8775.000000)">
                <g id="Group" transform="translate(1008.000000, 5456.000000)">
                    <g id="Group-71" transform="translate(0.000000, 9.000000)">
                        <g id="Group-3" transform="translate(0.000000, 3.000000)">
                            <mask id="mask-2" fill="white">
                                <use xlink:href="#path-1"></use>
                            </mask>
                            <g id="Clip-2"></g>
                            <path d="M77.3296532,12.3247452 C22.2559709,-14.6358709 -47.4546905,51.7918493 45.2378394,111.981427 C137.929507,172.171004 272.544001,83.04642 220.337338,23.5635847 C168.128087,-35.9183877 132.403336,39.2853612 77.3296532,12.3247452" id="Fill-1" fill="#F2F1F1" mask="url(#mask-2)"></path>
                        </g>
                        <g id="Group-70">
                            <g id="Group-6">
                                <mask id="mask-4" fill="white">
                                    <use xlink:href="#path-3"></use>
                                </mask>
                                <g id="Clip-5"></g>
                                <path d="M110.775884,28.8360168 C108.479853,25.9994187 107.227473,22.4599237 107.227473,18.8117601 L107.227473,7.97507545 L84.0851754,7.97507545 L84.0851754,18.8117601 C84.0851754,22.4599237 82.8327951,25.9994187 80.5367646,28.8360168 C74.1894735,36.6825872 70.7255897,46.4688078 70.7255897,56.561198 L70.7255897,118.724871 C70.7255897,121.207865 72.7378509,123.219961 75.2210485,123.219961 L116.0916,123.219961 C118.574797,123.219961 120.587058,121.207865 120.587058,118.724871 L120.587058,56.561198 C120.587058,46.4688078 117.123175,36.6825872 110.775884,28.8360168" id="Fill-4" fill="#CCE8EE" mask="url(#mask-4)"></path>
                            </g>
                            <g id="Group-9">
                                <mask id="mask-6" fill="white">
                                    <use xlink:href="#path-5"></use>
                                </mask>
                                <g id="Clip-8"></g>
                                <path d="M108.493308,4.96710847 L83.1498578,4.96710847 C82.6944468,4.96710847 82.3252878,5.33623709 82.3252878,5.7916107 L82.3252878,11.792538 C82.3252878,12.2470492 82.6944468,12.6161778 83.1498578,12.6161778 L108.493308,12.6161778 C108.947857,12.6161778 109.317878,12.2470492 109.317878,11.792538 L109.317878,5.7916107 C109.317878,5.33623709 108.947857,4.96710847 108.493308,4.96710847" id="Fill-7" fill="#08327B" mask="url(#mask-6)"></path>
                            </g>
                            <g id="Group-12">
                                <mask id="mask-8" fill="white">
                                    <use xlink:href="#path-7"></use>
                                </mask>
                                <g id="Clip-11"></g>
                                <path d="M82.020473,33.3588773 C77.060978,40.1791322 74.3397247,48.4793513 74.3397247,57.045205 L74.3397247,115.241608 C74.3397247,117.460692 76.0725291,119.258038 78.2124434,119.258038 L113.430033,119.258038 C115.569085,119.258038 117.303614,117.460692 117.303614,115.241608 L117.303614,57.045205 C117.303614,48.4793513 114.581498,40.1791322 109.622866,33.3588773 L82.020473,33.3588773 Z" id="Fill-10" fill="#FFFFFF" mask="url(#mask-8)"></path>
                            </g>
                            <g id="Group-15">
                                <mask id="mask-10" fill="white">
                                    <use xlink:href="#path-9"></use>
                                </mask>
                                <g id="Clip-14"></g>
                                <path d="M179.6706,38.2935576 C176.746655,35.344841 172.94725,33.2809981 170.427827,29.9786769 C169.85425,29.2266205 169.338463,28.4021182 168.569957,27.8510127 C167.301189,26.9402654 165.622723,26.9506148 164.06846,26.801411 C160.13709,26.4253828 158.15243,26.3788105 157.83416,26.5185274 C154.472053,27.9950418 153.924352,32.8834086 153.888989,33.2344258 C153.779449,34.3461239 153.963166,35.2128861 154.538467,37.8243848 C155.488965,42.136635 156.501565,46.590327 159.126216,50.1410337 C160.300107,51.7288043 161.862995,53.1432223 163.784691,53.6011833 C164.822304,53.8487064 165.90563,53.8047215 166.970843,53.7598741 C168.59842,53.6900156 170.225997,53.6201572 171.853574,53.5511612 C175.788394,53.3838459 180.36493,52.8586138 182.424629,49.5028207 C184.597319,45.9633258 182.595409,41.2431368 179.6706,38.2935576" id="Fill-13" fill="#558F00" mask="url(#mask-10)"></path>
                            </g>
                            <g id="Group-18">
                                <mask id="mask-12" fill="white">
                                    <use xlink:href="#path-11"></use>
                                </mask>
                                <g id="Clip-17"></g>
                                <path d="M123.087938,50.7619978 C125.861805,48.0125071 127.802477,44.4385141 130.908414,42.0702263 C131.616544,41.5303326 132.39195,41.0447733 132.911188,40.3220401 C133.767671,39.1292717 133.758183,37.5509882 133.897912,36.0882729 C134.085079,34.1305113 134.597416,32.1434265 134.164431,30.2244751 C133.915162,29.1179518 133.19237,28.0493762 132.262572,27.4413489 L133.162181,27.6086642 C132.737821,27.4784342 132.311736,27.3490667 131.884788,27.2248739 C131.534605,27.0541088 131.162858,26.9497524 130.780761,26.9290536 C129.8156,26.6944672 128.839227,26.5271519 127.847328,26.5150776 C126.389668,26.4969661 124.951845,26.8117604 123.529548,27.1256922 C119.473113,28.0191904 115.283849,28.9713352 111.943306,31.4396672 C110.450282,32.5436033 109.120275,34.014943 108.689014,35.8217759 C108.456134,36.7980693 108.497535,37.8157603 108.540661,38.8179273 C108.60535,40.3496385 108.670901,41.8796249 108.735591,43.4104737 C108.893432,47.1112468 109.386794,51.4148724 112.54362,53.3519352 C115.873813,55.3950793 120.313208,53.5123509 123.087938,50.7619978" id="Fill-16" fill="#6AA500" mask="url(#mask-12)"></path>
                            </g>
                            <g id="Group-21">
                                <mask id="mask-14" fill="white">
                                    <use xlink:href="#path-13"></use>
                                </mask>
                                <g id="Clip-20"></g>
                                <path d="M155.732282,109.294929 C155.434713,108.769697 154.811973,108.531661 154.228909,108.373832 C149.924929,107.206938 145.363919,108.205655 141.017676,109.206959 C140.87191,109.241457 140.377686,109.267331 139.949013,109.616623 C139.883462,109.670957 139.661794,109.858971 139.479802,110.211713 C139.032153,111.085375 139.227083,112.191899 139.283147,112.511005 C139.822223,115.637387 139.346111,115.811602 139.817047,116.442052 C140.113755,116.83878 140.603666,117.17341 145.501922,117.200146 C153.324987,117.244131 153.15507,116.53606 154.321198,116.43429 C154.528203,116.417041 154.743834,116.39548 154.918063,116.284224 C155.239783,116.078961 155.314822,115.649461 155.357948,115.269983 C155.531315,113.790881 155.703819,112.311779 155.875461,110.832677 C155.935837,110.31262 155.989314,109.751165 155.732282,109.294929" id="Fill-19" fill="#D5FD83" mask="url(#mask-14)"></path>
                            </g>
                            <g id="Group-24">
                                <mask id="mask-16" fill="white">
                                    <use xlink:href="#path-15"></use>
                                </mask>
                                <g id="Clip-23"></g>
                                <path d="M147.305022,99.9645996 L146.008653,100.027558 C146.445089,100.030146 146.877212,100.008585 147.305022,99.9645996" id="Fill-22" fill="#397B00" mask="url(#mask-16)"></path>
                            </g>
                            <g id="Group-27">
                                <mask id="mask-18" fill="white">
                                    <use xlink:href="#path-17"></use>
                                </mask>
                                <g id="Clip-26"></g>
                                <path d="M147.476836,99.9561476 C147.469074,99.9535603 147.462174,99.9501105 147.455273,99.9475231 C147.405247,99.9535603 147.354359,99.9595974 147.305195,99.9647721 L147.476836,99.9561476 Z" id="Fill-25" fill="#397B00" mask="url(#mask-18)"></path>
                            </g>
                            <g id="Group-30">
                                <mask id="mask-20" fill="white">
                                    <use xlink:href="#path-19"></use>
                                </mask>
                                <g id="Clip-29"></g>
                                <path d="M167.324132,43.1734724 C166.283931,32.0668409 164.397598,30.6541478 163.574753,30.1970492 C160.44984,28.45835 157.622497,32.109101 154.362168,30.0961426 C152.165327,28.7395087 152.14894,26.2789387 148.499614,22.9783425 C147.922587,22.4565602 147.059204,21.7191654 145.775773,21.4069585 C144.638108,21.130112 143.451279,21.4017838 142.285151,21.4776794 C140.519571,21.5941102 138.727252,21.2491301 137.129864,20.4893117 C134.923535,19.4388475 134.82262,19.2128856 134.046352,19.3232792 C131.935763,19.6234118 132.235058,23.2344901 129.355963,26.6541045 C126.256926,30.3350412 123.060423,29.5321003 122.270354,32.3229886 C121.513923,34.9957212 124.234314,36.4765479 123.282091,39.408878 C122.524798,41.7435303 120.490974,41.7547421 120.14424,43.8634324 C119.827695,45.7841087 121.314681,47.0001632 122.709377,49.4848818 C124.272265,52.2714578 123.765965,54.443107 125.111498,58.325857 C127.56537,65.4134714 128.397702,72.9624965 130.56608,80.1415306 C132.733595,87.3214271 136.607176,94.4789 143.194248,98.0649672 C144.558756,98.8075367 146.008653,99.379341 147.455101,99.9476956 C151.34162,99.5035338 154.892618,97.257714 158.213324,95.0808901 C159.974591,93.9260695 161.806586,92.6962157 162.807972,90.8428106 C163.491951,89.5793213 163.728282,88.1286804 163.948225,86.7090876 C165.593915,76.0862906 166.873033,65.4074343 167.781268,54.6975298 C167.904608,53.2520635 167.85717,48.8716798 167.324132,43.1734724" id="Fill-28" fill="#397B00" mask="url(#mask-20)"></path>
                            </g>
                            <g id="Group-33">
                                <mask id="mask-22" fill="white">
                                    <use xlink:href="#path-21"></use>
                                </mask>
                                <g id="Clip-32"></g>
                                <path d="M163.254068,43.3242287 C162.59769,43.8684347 161.592853,43.9788283 160.787258,44.1892661 C160.020477,44.3893545 159.253696,44.5868555 158.48864,44.7912562 C157.004242,45.1879832 155.537094,45.6606058 154.185524,46.4040378 C152.967644,47.0758863 151.895531,47.9642099 150.92692,48.955165 C150.472371,49.420888 150.066987,49.9193841 149.679715,50.4325419 C149.615026,51.5735633 149.635726,52.7206218 149.587425,53.865093 C149.542574,54.9629919 149.435621,56.0772773 149.491685,57.1760387 C149.552062,58.3800189 149.47961,59.5788245 149.437346,60.7836671 C149.356269,63.1209067 149.193253,65.4822949 149.28468,67.820397 C149.29503,68.1006932 149.312281,68.414625 149.332119,68.7458058 C150.892419,67.2882653 152.838266,66.1558684 154.804814,65.3848381 C155.931266,64.9432637 157.121545,64.6293318 158.312686,64.4335557 C159.452939,64.246404 160.789846,64.0368287 161.912848,64.3516229 C162.69688,64.5706852 162.411385,65.6487478 161.750694,65.7936394 C161.077065,65.9402559 160.352548,65.877297 159.663394,65.9454306 C158.966477,66.0170139 158.274735,66.1299949 157.592481,66.2869608 C156.259886,66.5922681 154.960068,67.0761026 153.737013,67.6858548 C152.149975,68.4775839 150.753553,69.5383974 149.468397,70.7311658 C149.474435,70.8363847 149.482197,70.9407412 149.48996,71.0433727 C149.567587,72.2102676 149.678852,73.3668131 149.845319,74.5242211 C150.345581,77.9981698 150.811342,81.4850553 151.227077,84.9745281 C151.975745,84.3690882 152.783927,83.8335067 153.634373,83.3867576 C154.805676,82.7701058 156.064957,82.3224943 157.355288,82.0232241 C158.477428,81.7644891 159.710832,81.6040734 160.882136,81.6747943 C160.978738,81.6118354 161.092591,81.5704378 161.218519,81.5428394 C161.466062,81.49023 161.796408,81.6144228 161.941311,81.8248606 C162.191442,82.1836398 162.220768,82.4527242 162.112091,82.8692876 C162.010313,83.2548027 161.572152,83.3979695 161.228007,83.4014193 C160.000639,83.4169434 158.813811,83.4695528 157.606282,83.7334625 C156.459991,83.983573 155.35769,84.397549 154.312314,84.9253685 C153.280739,85.4471507 152.320754,86.0698397 151.440982,86.8193087 C151.519472,87.5101312 151.596236,88.2018161 151.670413,88.8926386 C151.912781,91.1496703 152.218114,93.4075645 152.319891,95.6766706 C152.407868,97.6059713 152.395793,99.5283724 151.931757,101.38954 C150.558624,102.081225 149.18549,102.364971 147.862383,102.053626 C147.300882,101.919946 146.767844,101.686222 146.105428,101.065258 C146.106291,101.018686 146.105428,100.975564 146.105428,100.932441 C146.101978,100.663357 146.113191,100.404622 146.139067,100.137262 C146.182193,99.7008624 146.208068,99.2618753 146.220144,98.8228883 C146.232219,98.3804514 146.226181,97.938877 146.224456,97.4973026 C146.223594,97.4619421 146.223594,97.4300315 146.222731,97.4076078 C146.221869,97.3291248 146.220144,97.2497794 146.217556,97.1721589 C146.211518,96.9522342 146.203756,96.7331719 146.195993,96.514972 C146.128716,94.8099083 146.105428,93.1048446 146.039877,91.3997809 C145.982088,89.8628949 145.907911,88.3268714 145.829422,86.7908479 C145.781983,85.8930374 145.759557,84.9960894 145.742307,84.0982789 C145.475788,83.7610609 145.204094,83.4255679 144.911699,83.111636 C144.144918,82.2862714 143.308273,81.53249 142.412976,80.8468423 C141.499567,80.1465328 140.554244,79.4945206 139.54682,78.9382403 C139.039657,78.6579441 138.512657,78.4216328 137.995145,78.1637602 C137.462107,77.8955382 136.87128,77.6971747 136.386543,77.3504698 C135.919057,77.0149768 136.251127,76.3655519 136.763465,76.3784886 C137.369817,76.3948752 138.005495,76.6501604 138.573896,76.8571484 C139.151785,77.0675862 139.711561,77.3478825 140.258399,77.6307661 C141.352938,78.1999831 142.421602,78.8425084 143.397113,79.6014644 C144.21392,80.2353652 144.986739,80.9304999 145.708669,81.6730694 C145.690556,80.2396774 145.673305,78.8062855 145.665543,77.3720311 C145.663818,76.9822037 145.662093,76.5941011 145.662093,76.2051362 C145.662093,76.1085418 145.662093,76.0110849 145.662093,75.9136281 L145.662093,75.8955166 C145.662093,75.8825799 145.660368,75.863606 145.660368,75.8334202 C145.656055,75.6635176 145.651742,75.4927525 145.646567,75.3219873 C145.625867,74.4716116 145.609479,73.6212359 145.596541,72.7717226 C145.563765,70.5095162 145.567215,68.2490346 145.66468,65.990278 C145.569803,65.8479737 145.475788,65.7099817 145.379186,65.5866514 C144.987601,65.0847055 144.555478,64.6094955 144.092305,64.1713709 C143.182345,63.3123706 142.15767,62.573251 141.107982,61.8962277 C140.026381,61.1993681 138.903379,60.5671922 137.776064,59.9445033 C137.223188,59.6383335 136.675488,59.3218143 136.103636,59.051005 C135.52316,58.7758835 134.870232,58.61978 134.415683,58.1437076 C134.20609,57.9237828 134.30873,57.4787586 134.600262,57.3795769 C135.295454,57.1415407 135.982021,57.4287365 136.628912,57.7004083 C137.268902,57.9703551 137.886467,58.2911866 138.497994,58.6206425 C139.708974,59.2743796 140.918228,59.9341539 142.082631,60.6698237 C143.239271,61.4037687 144.338986,62.2161967 145.334335,63.1588545 C145.493901,63.3106457 145.65088,63.4658867 145.804409,63.6237151 C145.875135,62.6732952 145.949312,61.7220128 146.039877,60.7733177 C146.049364,60.5637424 146.055402,60.354167 146.06489,60.1445917 C146.183055,57.420112 146.378847,54.6990822 146.646229,51.9866768 C146.378847,51.6641205 146.152004,51.2993041 145.932062,50.9491494 C145.486138,50.2393531 145.091104,49.507133 144.695207,48.7688757 C143.986215,47.4467398 143.192695,46.1979122 142.233572,45.0413667 C141.320163,43.9434678 140.284275,42.9611372 139.137122,42.1081741 C138.554921,41.6752242 137.947706,41.2759099 137.318928,40.9128184 C136.710851,40.5618012 135.829355,40.3013413 135.514535,39.6277678 C135.313567,39.1974053 135.626662,38.8196522 136.022559,38.7075337 C136.691013,38.5177947 137.519896,39.0999484 138.072771,39.4112929 C138.625647,39.7226374 139.162998,40.0624427 139.682235,40.4289839 C141.578919,41.7675064 143.298785,43.4691203 144.570141,45.4165325 C145.270508,46.4885579 145.840634,47.6278544 146.402998,48.7757753 C146.563427,49.1026439 146.720406,49.4329623 146.881697,49.7615557 C147.010213,48.6360584 147.150804,47.512286 147.305195,46.3919635 C147.631228,44.0176385 148.009012,41.6502132 148.46011,39.2957246 C148.827544,37.3690112 149.207916,35.438848 149.729741,33.5474951 C149.725428,33.4690122 149.721116,33.3905292 149.718528,33.3120463 C149.707315,33.0110512 149.770279,32.7186806 149.796155,32.418548 C149.842731,31.8579555 150.330918,31.659592 150.760453,31.7708481 C151.190851,31.7648109 151.647987,32.0934044 151.573811,32.6022499 C151.570361,32.6272609 151.566048,32.6496846 151.561735,32.6738332 C151.628149,32.8273493 151.679901,32.9860401 151.703189,33.1542179 C151.745452,33.4569379 151.742002,33.7725946 151.742002,34.0753145 C151.74459,34.6117585 151.694564,35.1447526 151.611762,35.6742969 C151.435807,36.8006566 151.100287,37.8942433 150.852743,39.0059414 C150.298142,41.4949722 150.110113,44.0443745 149.938471,46.5834274 C149.91087,46.9723923 149.884995,47.3622197 149.859119,47.7511847 C151.278828,46.1642766 153.11686,44.9050996 155.07047,44.0926717 C156.314225,43.5752016 157.62612,43.2362588 158.926801,42.895591 C159.590942,42.723101 160.254221,42.5497486 160.917499,42.3755337 C161.547139,42.2116681 162.229393,41.9460335 162.884909,42.0659141 C163.474874,42.1728579 163.746568,42.9154274 163.254068,43.3242287" id="Fill-31" fill="#E7F0D9" mask="url(#mask-22)"></path>
                            </g>
                            <g id="Group-36">
                                <mask id="mask-24" fill="white">
                                    <use xlink:href="#path-23"></use>
                                </mask>
                                <g id="Clip-35"></g>
                                <path d="M192.434098,65.3360234 C191.484462,67.4007288 190.164805,69.2679331 188.949514,71.1877469 C186.794936,74.5918371 184.955179,78.1960158 183.462156,81.9373241 C183.197362,82.5988233 182.939468,83.2948204 183.004157,84.0046168 C183.058496,84.6040196 183.34054,85.1594374 183.461293,85.7502157 C183.683824,86.8472521 183.339678,87.9753368 182.946368,89.024076 C179.058124,99.3821009 168.394779,106.180794 168.394779,106.180794 C164.399582,108.80868 157.440764,113.385702 152.397604,113.646162 C150.96927,113.71947 149.694464,113.445211 148.684452,112.683668 C148.255779,112.360249 147.89007,111.961797 147.560587,111.183867 C147.078438,110.054058 146.667878,108.123894 146.240068,104.465381 C145.532801,98.4178817 145.004938,93.598511 145.627678,85.5164917 C146.199529,78.1071835 148.191953,70.8789898 150.515584,63.8189738 C151.046034,62.2105045 151.678262,60.492504 153.085896,59.5489837 C153.436942,59.3135348 153.830251,59.1332828 154.136446,58.8409122 C154.632396,58.369152 154.834226,57.6766047 155.030018,57.0211426 C155.657933,54.9107274 156.496303,52.7244166 158.230833,51.3669202 C159.507364,50.3682031 161.200492,49.8817813 162.205329,48.608805 C162.5719,48.1456694 162.856532,47.5721401 163.388708,47.3177173 C163.882932,47.0822685 164.465134,47.1840376 165.009384,47.1150416 C166.828441,46.8864923 168.355965,44.760553 170.071519,45.4082529 C170.540731,45.5850552 170.921102,45.9576336 171.396351,46.1163244 C172.280435,46.4121448 173.233521,45.9007119 173.915775,45.2659487 C174.597166,44.6320479 175.163843,43.8480808 175.979787,43.4004693 C176.847483,42.9278467 178.263743,42.8623005 179.010686,43.5462233 C179.930133,44.388837 179.136614,45.778244 179.93617,46.3802341 C180.824567,47.0503578 182.083847,45.5410703 183.93223,45.985232 C185.210486,46.2914018 186.572406,47.3427284 186.728522,48.5329094 C186.883776,49.7196407 186.286912,51.259114 187.288298,51.9119886 C187.991253,52.3690872 188.927951,51.9309625 189.756833,52.0542929 C190.986788,52.2362699 191.694917,53.6343014 191.669904,54.8770919 C191.646616,56.1198824 191.116166,57.290227 190.836709,58.5011069 C190.558977,59.7119867 190.594341,61.1419289 191.489637,62.0035165 C191.858796,62.3588459 192.352158,62.5942947 192.623852,63.0281071 C193.049075,63.71203 192.771343,64.6038033 192.434098,65.3360234" id="Fill-34" fill="#6AA500" mask="url(#mask-24)"></path>
                            </g>
                            <g id="Group-39">
                                <mask id="mask-26" fill="white">
                                    <use xlink:href="#path-25"></use>
                                </mask>
                                <g id="Clip-38"></g>
                                <path d="M183.818118,68.4641297 C183.05565,68.6806046 182.158628,68.397721 181.393572,68.2743907 C180.666467,68.1588224 179.939362,68.0380794 179.211394,67.9250984 C177.798585,67.7060361 176.371976,67.5576947 174.942778,67.6853373 C173.655035,67.7991807 172.408692,68.1536477 171.212376,68.6331699 C170.650012,68.8591318 170.117837,69.131666 169.596012,69.4231741 C169.112137,70.3710067 168.700715,71.3541997 168.230641,72.3106568 C167.779543,73.2283036 167.270655,74.1364635 166.906672,75.0929206 C166.506462,76.1407974 165.994987,77.1343398 165.507663,78.1442688 C164.560615,80.1028929 163.53594,82.0520299 162.737246,84.0779251 C162.640643,84.3194111 162.538003,84.5919453 162.431051,84.8817285 C164.305309,84.2262665 166.386571,83.9925425 168.349669,84.0744753 C169.473534,84.1201851 170.605161,84.2987123 171.693662,84.579871 C172.733,84.8480929 173.950017,85.1706492 174.788387,85.8606093 C175.373176,86.3409939 174.726286,87.151697 174.109583,87.0257793 C173.480806,86.8981367 172.887391,86.5738555 172.275001,86.3746295 C171.655711,86.1719537 171.024346,86.0098131 170.384356,85.8864828 C169.136288,85.6475841 167.846819,85.5716885 166.578051,85.63206 C164.930636,85.710543 163.343598,86.090021 161.801411,86.6238776 C161.767772,86.7161597 161.734134,86.8075794 161.702221,86.8964118 C161.331337,87.92014 160.992366,88.945593 160.699109,89.9934698 C159.822788,93.1379626 158.911103,96.281593 157.95543,99.4071119 C158.819676,99.1725255 159.709797,99.0207343 160.599919,98.9586379 C161.829011,98.8741178 163.069316,98.9646751 164.279433,99.1940868 C165.331708,99.3950376 166.441773,99.7201813 167.412109,100.21954 C167.519061,100.203153 167.630327,100.210915 167.747629,100.234202 C167.978785,100.282499 168.212528,100.51191 168.257379,100.744772 C168.335869,101.144086 168.259967,101.383847 168.011561,101.697779 C167.779543,101.987562 167.352595,101.945302 167.059338,101.820247 C166.008787,101.372636 164.978075,100.971596 163.851623,100.743909 C162.782097,100.527435 161.68842,100.465338 160.599919,100.523122 C159.52608,100.580044 158.47553,100.750809 157.44568,101.058704 C157.253338,101.676218 157.059271,102.293732 156.862616,102.908659 C156.222626,104.920755 155.635249,106.958724 154.871055,108.927698 C154.22244,110.602576 153.491022,112.235194 152.397346,113.646162 C150.969011,113.71947 149.694205,113.445211 148.685056,112.683668 C148.256383,112.360249 147.890674,111.961797 147.560329,111.183867 C147.577579,111.144194 147.593967,111.107109 147.610355,111.070886 C147.70782,110.840612 147.814772,110.625 147.936388,110.4068 C148.137355,110.05147 148.323659,109.687516 148.498751,109.317525 C148.674705,108.945809 148.834272,108.568056 148.999013,108.191166 C149.011951,108.16098 149.023164,108.134244 149.031789,108.114407 C149.060252,108.047136 149.087853,107.979003 149.116316,107.911732 C149.192218,107.722855 149.26812,107.533116 149.343159,107.34424 C149.925361,105.867725 150.546376,104.407597 151.12944,102.931945 C151.65644,101.602047 152.170503,100.266112 152.678527,98.9293146 C152.976097,98.1479349 153.292642,97.3751797 153.615225,96.6050118 C153.515173,96.2177717 153.409945,95.8296692 153.279704,95.453641 C152.934696,94.4626859 152.506023,93.5070913 152.000586,92.588582 C151.486523,91.6502363 150.925885,90.7403516 150.276407,89.8882509 C149.950374,89.4596133 149.58984,89.0611613 149.247419,88.6463229 C148.893786,88.2185477 148.465975,87.8287202 148.182206,87.3509229 C147.910512,86.8903746 148.43665,86.4617369 148.86791,86.6652752 C149.378522,86.9067612 149.823583,87.3621348 150.229831,87.7510997 C150.642116,88.1478268 151.014725,88.5971632 151.373533,89.0421874 C152.092013,89.9374106 152.759604,90.8843807 153.30558,91.8968971 C153.762716,92.7429605 154.160338,93.6252469 154.496721,94.5273697 C155.018546,93.3001033 155.542959,92.0736993 156.073409,90.8498827 C156.218313,90.5178394 156.362354,90.1866586 156.50812,89.8554778 C156.544346,89.7726826 156.581434,89.6898874 156.61766,89.6079547 C156.619385,89.6010551 156.621973,89.5967428 156.62456,89.5915681 C156.628873,89.5803563 156.634911,89.5639697 156.645261,89.5389587 C156.705637,89.3923422 156.766014,89.2448632 156.82639,89.0973842 C157.12741,88.3660266 157.432742,87.6363939 157.741525,86.9084861 C158.56092,84.9705608 159.412228,83.0472973 160.342025,81.1619815 C160.315287,81.0041531 160.286824,80.8514995 160.251461,80.7109201 C160.105694,80.1365284 159.916802,79.5690363 159.686509,79.022243 C159.233686,77.9502176 158.639409,76.9368388 157.998556,75.967445 C157.340453,74.9670029 156.620248,74.0088209 155.894868,73.0558136 C155.539509,72.5875033 155.191913,72.1122933 154.806366,71.6681315 C154.414782,71.2153453 153.91797,70.8375922 153.710965,70.262338 C153.6135,69.9958409 153.868806,69.6568981 154.153438,69.6810467 C154.834829,69.7388308 155.311804,70.2416392 155.760314,70.7142618 C156.20365,71.1851595 156.609035,71.6896928 157.005795,72.1994008 C157.791551,73.2101922 158.573857,74.2252959 159.28975,75.2886968 C159.998742,76.346923 160.629245,77.450859 161.122607,78.6263784 C161.201959,78.8161174 161.27786,79.0067189 161.348587,79.1990452 C161.766047,78.4159406 162.185232,77.6345609 162.61908,76.8609432 C162.70447,76.6858658 162.788997,76.509926 162.876112,76.3348487 C163.998251,74.0597055 165.18508,71.8173354 166.431423,69.6077384 C166.32447,69.2334351 166.268406,68.838433 166.213205,68.4572301 C166.099352,67.6861997 166.038113,66.914307 165.976874,66.1381019 C165.869921,64.7461076 165.662916,63.3851614 165.279957,62.0423267 C164.915111,60.7633133 164.401048,59.5394967 163.745533,58.3838137 C163.411737,57.7964852 163.045166,57.2289931 162.644956,56.6830622 C162.259409,56.1561053 161.606481,55.6041372 161.590955,54.9124523 C161.58233,54.4708779 161.98944,54.2673397 162.368949,54.3208116 C163.009802,54.4096439 163.496264,55.2160347 163.85076,55.6886573 C164.204394,56.1604175 164.534739,56.6511516 164.838346,57.1574097 C165.950998,59.00909 166.776431,61.1022562 167.128339,63.23682 C167.322407,64.4123394 167.379333,65.5956209 167.428497,66.784077 C167.44316,67.1230199 167.451785,67.4628252 167.466448,67.801768 C167.996898,66.8936082 168.538561,65.9897605 169.090574,65.0928125 C170.25929,63.19456 171.469407,61.320456 172.735588,59.4851624 C173.772338,57.9836369 174.818575,56.4829738 175.972628,55.0694182 C175.999366,55.0004222 176.02438,54.9322887 176.05198,54.8632927 C176.155483,54.6036952 176.319362,54.3785957 176.453052,54.1336599 C176.703184,53.6731116 177.192233,53.6860484 177.516541,53.9430585 C177.884837,54.0991619 178.152219,54.5502233 177.897775,54.9564373 C177.884837,54.9745487 177.872762,54.9935226 177.860687,55.0124965 C177.859824,55.1677375 177.843436,55.3221161 177.801173,55.4739073 C177.723546,55.7473039 177.60193,56.0146634 177.488078,56.2733985 C177.288835,56.7313594 177.045604,57.1643093 176.77736,57.585185 C176.205509,58.4769583 175.508592,59.2824866 174.881539,60.1363122 C173.47563,62.0475014 172.359528,64.1467048 171.259814,66.2441833 C171.091623,66.5650147 170.923431,66.8867086 170.754377,67.20754 C172.558771,66.3907998 174.596045,66.0070095 176.563455,66.0484071 C177.816698,66.0742806 179.059591,66.2778188 180.295583,66.4761823 C180.925223,66.577089 181.555726,66.6797206 182.184504,66.7806272 C182.782231,66.8763592 183.46276,66.9056825 183.975959,67.2541123 C184.438271,67.5663192 184.390832,68.3011266 183.818118,68.4641297" id="Fill-37" fill="#E7F0D9" mask="url(#mask-26)"></path>
                            </g>
                            <g id="Group-42">
                                <mask id="mask-28" fill="white">
                                    <use xlink:href="#path-27"></use>
                                </mask>
                                <g id="Clip-41"></g>
                                <path d="M146.963033,110.355311 C145.488985,112.194055 142.607302,114.535607 139.942113,114.019862 C136.683509,113.390273 137.207922,109.160818 132.604648,107.112499 C130.390557,106.128444 128.175603,105.805887 125.952025,103.657524 C125.64928,103.366016 125.387073,102.996888 125.157643,102.493217 C124.206282,100.411263 124.733283,97.6626343 123.123819,96.035191 C122.229384,95.1296185 120.906277,94.8415602 119.694436,94.4517328 C119.16916,94.2826926 114.972134,92.2887081 113.370433,89.1433528 C111.632453,85.7340879 114.588312,84.0764589 113.469623,79.1717056 C112.553625,75.1561382 110.406811,75.5261293 109.409737,71.1474705 C108.513578,67.2103861 110.205844,66.7308638 109.088879,62.4686358 C108.479077,60.1408831 107.582918,58.7902864 107.705396,56.0796059 C107.761459,54.8445775 107.849437,53.3413271 108.881874,52.5194122 C110.338672,51.3585545 111.975736,52.919589 113.636089,52.1321721 C116.359067,50.840222 114.27608,45.5430539 117.30784,42.7849387 C119.418429,40.8668498 123.197133,40.9134221 125.654455,41.9509495 C129.050199,43.3843415 129.653964,46.593518 131.727464,46.3572067 C133.704362,46.1312448 134.080421,43.3627802 136.19101,42.8332359 C137.837562,42.4192599 139.342661,43.8552392 140.300922,45.2567205 C144.147765,50.8798947 145.162952,58.8032231 145.40187,62.8144782 C145.40187,62.8144782 145.564886,65.5363705 145.889194,69.6528445 C146.215227,73.7675937 146.702552,79.2751996 147.353755,84.8457643 C150.438129,106.019775 146.963033,110.355311 146.963033,110.355311" id="Fill-40" fill="#558F00" mask="url(#mask-28)"></path>
                            </g>
                            <g id="Group-45">
                                <mask id="mask-30" fill="white">
                                    <use xlink:href="#path-29"></use>
                                </mask>
                                <g id="Clip-44"></g>
                                <path d="M147.100346,110.664672 C146.722562,109.861731 146.349953,109.05534 145.983382,108.248087 C145.868666,107.995389 145.753951,107.742691 145.638373,107.490856 C145.388242,106.30585 145.102748,105.127743 144.79569,103.961711 C143.929719,100.669739 142.772216,97.4743614 141.399083,94.3643666 C141.553474,93.6468082 141.706141,92.9283873 141.89072,92.2177285 C142.161552,91.1681268 142.607475,90.2798032 143.225902,89.3932046 C143.894356,88.4332977 144.596448,87.5001268 145.198488,86.4970974 C145.577134,85.8649215 144.637849,85.0861291 144.149662,85.6872568 C143.387194,86.6238776 142.710115,87.6208698 142.026136,88.6144122 C141.379245,89.5562077 140.881571,90.5350885 140.587451,91.6441992 C140.533975,91.8477374 140.481361,92.0547254 140.431335,92.260851 C140.419259,92.2367024 140.408909,92.2134162 140.396834,92.1901301 C139.487737,90.2910151 138.586403,88.5100558 137.921399,86.5522942 C137.250358,84.5686591 136.658669,82.5643252 135.935014,80.5979392 C135.307961,78.8946004 134.631744,77.2110979 133.930515,75.5370824 C134.281561,74.6142608 134.642095,73.6923018 134.943115,72.7539561 C135.226021,71.8725322 135.529629,70.969547 135.887575,70.132108 C136.251559,69.2791449 136.687132,68.4408435 137.186531,67.6594638 C137.419412,67.2963723 137.662643,66.9764034 137.939512,66.6547095 C138.102528,66.464108 138.248294,66.2597074 138.406998,66.0656561 C138.57174,65.860393 138.800308,65.6672042 138.90381,65.4239933 C139.140141,64.8625383 138.753732,64.3519679 138.149105,64.4433876 C137.673856,64.514971 137.094242,64.9841438 136.748371,65.3023878 C136.358511,65.6620295 136.026441,66.1070537 135.712483,66.5322416 C135.093193,67.3714055 134.648995,68.2899148 134.25396,69.2515465 C133.710572,70.5745449 133.320713,71.9346286 132.98433,73.3119613 C132.340889,71.8233725 131.687098,70.339096 131.03762,68.8522322 C130.499407,67.6223784 129.979307,66.4149484 129.472145,65.1971689 C129.608423,64.2131135 129.912893,63.2471694 130.365716,62.364883 C130.614985,61.8784612 130.904792,61.4075635 131.235137,60.9728887 C131.579283,60.5218273 131.994156,60.1457991 132.365902,59.7223361 C132.733336,59.3049103 132.242562,58.5287053 131.730224,58.8986964 C130.7297,59.620567 129.946531,60.7788374 129.399693,61.8706992 C129.140937,62.3881692 128.929619,62.9220258 128.763153,63.4688191 C128.6493,63.1867979 128.537172,62.9030519 128.423319,62.6175809 C127.992059,61.5239943 127.576324,60.4252329 127.183014,59.3178471 C126.99326,58.7839905 126.804368,58.2535837 126.588737,57.730939 C126.342919,57.1367109 125.995323,56.5847429 125.729667,55.996552 C125.564925,55.6334605 125.051725,55.5170298 124.717067,55.6645087 C124.323758,55.8369987 124.177992,56.2113021 124.246993,56.6218283 C124.334108,57.134986 124.383272,57.6550434 124.472111,58.1682012 C124.558363,58.6761842 124.732593,59.1695057 124.903372,59.655065 C125.204391,60.51924 125.520074,61.3791027 125.846969,62.2337906 C125.847832,62.2381029 125.848695,62.2424151 125.848695,62.2467274 C126.223891,63.8457097 126.925983,65.3808708 127.569424,66.9005078 C127.609962,67.0126263 127.650501,67.1256072 127.690177,67.2385882 C127.101075,66.7452668 126.492998,66.2735066 125.869395,65.8241701 C124.121065,64.5649931 122.168318,63.5257408 120.160369,62.7503982 C119.593693,62.5321983 119.020979,62.3321099 118.442228,62.1492705 C117.860026,61.9655687 117.101008,61.7137333 116.491206,61.8888106 C116.038382,62.0181781 115.891754,62.5882576 116.217787,62.9254756 C116.681823,63.4058602 117.507255,63.5800751 118.120508,63.7905129 C118.724272,63.9975009 119.322862,64.2234629 119.911101,64.4718485 C121.146231,64.9962181 122.359798,65.5611229 123.528513,66.2234845 C124.689466,66.8823963 125.822819,67.6051294 126.898382,68.3968586 C127.42452,68.7849611 127.93427,69.1920375 128.420732,69.6301621 C128.469895,69.6750095 128.520784,69.7207194 128.571673,69.7655668 C128.611349,69.88286 128.651887,70.0001532 128.693288,70.1183088 C129.922381,73.6845397 131.050558,77.2861311 132.08127,80.9153208 C132.434904,82.1581113 132.770424,83.4069389 133.091282,84.6583539 C133.010205,84.5988449 132.929128,84.5401983 132.849776,84.4781019 C131.901003,83.7605434 130.94188,82.9817511 129.848204,82.4944668 C128.681213,81.9726845 127.41072,81.8648783 126.158339,81.6837638 C124.815395,81.4888501 123.473312,81.2939364 122.128642,81.1162716 C121.442075,81.0248519 121.275609,82.2158954 121.963901,82.3349135 C123.218868,82.5513885 124.474699,82.7506145 125.731392,82.9515653 C126.924258,83.1421668 128.218039,83.2309991 129.351392,83.6717111 C130.409705,84.0813749 131.349853,84.821357 132.271887,85.4681945 C132.70401,85.7717769 133.122333,86.0891585 133.532893,86.4143022 C133.976229,88.2176852 134.393689,90.0279678 134.791311,91.8399753 C135.370925,94.4652732 135.809085,97.1311063 136.385249,99.7607164 C135.989352,99.5796019 135.587418,99.4140115 135.18117,99.2604954 C134.23671,98.905166 133.273274,98.6171077 132.284825,98.412707 C131.268776,98.2014068 130.272564,98.0056306 129.233226,98.0039057 C128.515609,98.0013184 128.449195,98.9681249 129.072798,99.198399 C129.532521,99.3683017 129.969819,99.5080186 130.450243,99.6089252 C130.923767,99.7089694 131.396429,99.8133259 131.868228,99.9263069 C132.786812,100.148819 133.711435,100.360982 134.613632,100.64214 C135.357987,100.87069 136.086817,101.145811 136.788047,101.483029 C136.911387,101.980663 137.04249,102.476572 137.183944,102.969893 C137.753207,104.965602 138.532064,106.888866 139.234156,108.838865 C139.575714,109.79101 139.888809,110.75178 140.162228,111.725486 C140.376133,112.483579 140.495161,113.265822 140.684053,114.02564 C143.1224,114.4974 145.756539,112.355937 147.105521,110.674159 L147.100346,110.664672 Z" id="Fill-43" fill="#E7F0D9" mask="url(#mask-30)"></path>
                            </g>
                            <g id="Group-48">
                                <mask id="mask-32" fill="white">
                                    <use xlink:href="#path-31"></use>
                                </mask>
                                <g id="Clip-47"></g>
                                <path d="M71.8201287,123.470589 L51.8562207,123.470589 C47.8429112,123.470589 44.5894825,120.21829 44.5894825,116.204448 L44.5894825,75.5865008 C44.5894825,71.5726583 47.8429112,68.3203592 51.8562207,68.3203592 L71.8201287,68.3203592 C75.8334383,68.3203592 79.086867,71.5726583 79.086867,75.5865008 L79.086867,116.204448 C79.086867,120.21829 75.8334383,123.470589 71.8201287,123.470589" id="Fill-46" fill="#FCD400" mask="url(#mask-32)"></path>
                            </g>
                            <g id="Group-51">
                                <mask id="mask-34" fill="white">
                                    <use xlink:href="#path-33"></use>
                                </mask>
                                <g id="Clip-50"></g>
                                <path d="M79.087557,100.965214 L79.087557,81.5928615 C76.1670614,84.200048 70.5270374,95.0151714 63.7950621,95.5076304 C58.9459698,95.8629598 54.2874946,84.372538 44.5893099,89.3583616 L44.5893099,115.225825 C44.5893099,115.376754 44.6048353,115.524233 44.6117355,115.673437 C50.2767725,115.666537 57.4270705,112.593628 64.8507876,109.400838 C71.1178642,106.705682 75.7409761,104.653051 79.087557,100.965214" id="Fill-49" fill="#08327B" mask="url(#mask-34)"></path>
                            </g>
                            <g id="Group-54">
                                <mask id="mask-36" fill="white">
                                    <use xlink:href="#path-35"></use>
                                </mask>
                                <g id="Clip-53"></g>
                                <path d="M79.0866945,116.949949 L79.0866945,94.5840326 C76.3921793,98.6263359 73.0938995,103.25683 67.2166823,104.279696 C60.6580737,105.419855 58.0575733,100.816097 51.3066225,102.535822 C48.932965,103.139537 46.5972585,104.389227 44.5893099,106.026157 L44.5893099,116.949949 C44.5893099,120.551541 47.5098056,123.470934 51.1108302,123.470934 L72.5651742,123.470934 C76.1670614,123.470934 79.0866945,120.551541 79.0866945,116.949949" id="Fill-52" fill="#01004D" mask="url(#mask-36)"></path>
                            </g>
                            <g id="Group-57">
                                <mask id="mask-38" fill="white">
                                    <use xlink:href="#path-37"></use>
                                </mask>
                                <g id="Clip-56"></g>
                                <path d="M77.5292406,70.4661349 L46.1472814,70.4661349 C45.2864856,70.4661349 44.5895687,69.7684129 44.5895687,68.9085502 L44.5895687,68.488537 C44.5895687,67.6286743 45.2864856,66.9309522 46.1472814,66.9309522 L77.5292406,66.9309522 C78.3891739,66.9309522 79.0869533,67.6286743 79.0869533,68.488537 L79.0869533,68.9085502 C79.0869533,69.7684129 78.3891739,70.4661349 77.5292406,70.4661349" id="Fill-55" fill="#9E9E9E" mask="url(#mask-38)"></path>
                            </g>
                            <g id="Group-60">
                                <mask id="mask-40" fill="white">
                                    <use xlink:href="#path-39"></use>
                                </mask>
                                <g id="Clip-59"></g>
                                <path d="M77.5292406,124.244552 L46.1472814,124.244552 C45.2864856,124.244552 44.5895687,123.54683 44.5895687,122.686967 L44.5895687,122.266954 C44.5895687,121.407091 45.2864856,120.709369 46.1472814,120.709369 L77.5292406,120.709369 C78.3891739,120.709369 79.0869533,121.407091 79.0869533,122.266954 L79.0869533,122.686967 C79.0869533,123.54683 78.3891739,124.244552 77.5292406,124.244552" id="Fill-58" fill="#9E9E9E" mask="url(#mask-40)"></path>
                            </g>
                            <g id="Group-63">
                                <mask id="mask-42" fill="white">
                                    <use xlink:href="#path-41"></use>
                                </mask>
                                <g id="Clip-62"></g>
                                <path d="M160.32029,104.384656 C148.552055,105.056505 153.464111,107.015129 143.945331,107.373908 C132.298712,107.812032 131.598345,105.375611 120.521852,105.767163 C107.633203,106.222537 107.763443,109.549007 94.5754992,110.211368 C82.6787489,110.808184 80.6708003,108.195823 69.7357608,109.93366 C62.7872927,111.037596 55.8181241,112.240713 52.464643,117.514595 C48.3288554,124.016606 52.0575331,131.569944 52.9329918,132.322862 C56.9601017,135.781287 151.046465,137.452715 195.991565,127.368949 C205.08426,125.330118 196.981739,112.949647 191.100209,108.521829 C184.776206,103.761967 172.185127,103.707633 160.32029,104.384656" id="Fill-61" fill="#B58A4B" mask="url(#mask-42)"></path>
                            </g>
                            <g id="Group-66">
                                <mask id="mask-44" fill="white">
                                    <use xlink:href="#path-43"></use>
                                </mask>
                                <g id="Clip-65"></g>
                                <path d="M81.258177,109.589714 C84.6125207,109.750993 100.497567,108.658268 101.447203,109.477596 C102.397701,110.296924 128.639036,126.8758 118.607056,122.898181 C108.575075,118.920561 81.258177,109.589714 81.258177,109.589714" id="Fill-64" fill="#CBA76A" mask="url(#mask-44)"></path>
                            </g>
                            <g id="Group-69">
                                <mask id="mask-46" fill="white">
                                    <use xlink:href="#path-45"></use>
                                </mask>
                                <g id="Clip-68"></g>
                                <path d="M128.455923,106.047201 C131.810266,106.208479 144.273693,102.294681 153.640669,106.174844 C159.210829,108.481897 178.754689,121.205623 169.279898,118.346601 C159.605864,115.427208 128.455923,106.047201 128.455923,106.047201" id="Fill-67" fill="#CBA76A" mask="url(#mask-46)"></path>
                            </g>
                        </g>
                    </g>
                </g>
            </g>
        </g>
    </g>
</svg>