<?xml version="1.0" encoding="UTF-8"?>
<svg width="112px" height="112px" viewBox="0 0 112 112" version="1.1" xmlns="http://www.w3.org/2000/svg" xmlns:xlink="http://www.w3.org/1999/xlink">
    <title>atoms/img/ilustraciones/round_base/cold_chain</title>
    <defs>
        <polygon id="path-1" points="0 0 110.599685 0 110.599685 111.999858 0 111.999858"></polygon>
        <polygon id="path-3" points="0 0 111.99986 0 111.99986 1.41804462 0 1.41804462"></polygon>
        <polygon id="path-5" points="0 112 112 112 112 0 0 0"></polygon>
    </defs>
    <g id="atoms/img/ilustraciones/round_base/cold_chain" stroke="none" stroke-width="1" fill="none" fill-rule="evenodd">
        <g id="Group-79">
            <g id="Group-3" transform="translate(0.700018, 0.000142)">
                <mask id="mask-2" fill="white">
                    <use xlink:href="#path-1"></use>
                </mask>
                <g id="Clip-2"></g>
                <path d="M110.599685,56 C110.599685,25.0724469 85.8407142,0 55.2998425,0 C24.7589708,0 0,25.0724469 0,56 C0,86.9275531 24.7589708,112 55.2998425,112 C85.8407142,112 110.599685,86.9275531 110.599685,56" id="Fill-1" fill="#FFCD00" mask="url(#mask-2)"></path>
            </g>
            <line x1="0.700157535" y1="79.4839533" x2="111.299842" y2="79.4839533" id="Fill-4" fill="#002453"></line>
            <g id="Group-8" transform="translate(0.000000, 78.774931)">
                <mask id="mask-4" fill="white">
                    <use xlink:href="#path-3"></use>
                </mask>
                <g id="Clip-7"></g>
                <path d="M111.299702,1.41804462 L0.700017504,1.41804462 C0.313530544,1.41804462 -0.000140031507,1.10040262 -0.000140031507,0.709022309 C-0.000140031507,0.317641994 0.313530544,0 0.700017504,0 L111.299702,0 C111.686189,0 111.99986,0.317641994 111.99986,0.709022309 C111.99986,1.10040262 111.686189,1.41804462 111.299702,1.41804462" id="Fill-6" fill="#0A244E" mask="url(#mask-4)"></path>
            </g>
            <path d="M64.5662874,79.2566408 L27.0182391,79.2566408 C26.0520217,79.2566408 25.2692456,78.4639538 25.2692456,77.485503 L25.2692456,22.8595883 C25.2692456,21.8811375 26.0520217,21.0870325 27.0182391,21.0870325 L64.5662874,21.0870325 C65.5325048,21.0870325 66.3166813,21.8811375 66.3166813,22.8595883 L66.3166813,77.485503 C66.3166813,78.4639538 65.5325048,79.2566408 64.5662874,79.2566408" id="Fill-9" fill="#FFFFFF"></path>
            <path d="M27.0182391,21.7961966 C26.439909,21.7961966 25.9694031,22.2726596 25.9694031,22.8597301 L25.9694031,77.4842268 C25.9694031,78.0712973 26.439909,78.5477602 27.0182391,78.5477602 L64.5662874,78.5477602 C65.1446175,78.5477602 65.6151234,78.0712973 65.6151234,77.4842268 L65.6151234,22.8597301 C65.6151234,22.2726596 65.1446175,21.7961966 64.5662874,21.7961966 L27.0182391,21.7961966 Z M64.5662874,79.9658049 L27.0182391,79.9658049 C25.6683354,79.9658049 24.569088,78.8526398 24.569088,77.4842268 L24.569088,22.8597301 C24.569088,21.491317 25.6683354,20.378152 27.0182391,20.378152 L64.5662874,20.378152 C65.9175915,20.378152 67.0154385,21.491317 67.0154385,22.8597301 L67.0154385,77.4842268 C67.0154385,78.8526398 65.9175915,79.9658049 64.5662874,79.9658049 L64.5662874,79.9658049 Z" id="Fill-11" fill="#1D294A"></path>
            <path d="M61.7253282,29.8360842 L38.0796079,29.8360842 C37.693121,29.8360842 37.3794504,29.5184422 37.3794504,29.1270619 C37.3794504,28.7356815 37.693121,28.4180396 38.0796079,28.4180396 L61.7253282,28.4180396 C62.1118152,28.4180396 62.4254857,28.7356815 62.4254857,29.1270619 C62.4254857,29.5184422 62.1118152,29.8360842 61.7253282,29.8360842" id="Fill-13" fill="#CBCACA"></path>
            <path d="M61.7253282,33.3802031 L38.0796079,33.3802031 C37.693121,33.3802031 37.3794504,33.0625611 37.3794504,32.6711808 C37.3794504,32.2798005 37.693121,31.9621585 38.0796079,31.9621585 L61.7253282,31.9621585 C62.1118152,31.9621585 62.4254857,32.2798005 62.4254857,32.6711808 C62.4254857,33.0625611 62.1118152,33.3802031 61.7253282,33.3802031" id="Fill-15" fill="#CBCACA"></path>
            <path d="M61.7253282,39.0855638 L38.0796079,39.0855638 C37.693121,39.0855638 37.3794504,38.7679218 37.3794504,38.3765415 C37.3794504,37.9851612 37.693121,37.6675192 38.0796079,37.6675192 L61.7253282,37.6675192 C62.1118152,37.6675192 62.4254857,37.9851612 62.4254857,38.3765415 C62.4254857,38.7679218 62.1118152,39.0855638 61.7253282,39.0855638" id="Fill-17" fill="#CBCACA"></path>
            <path d="M33.8331525,33.3802031 L29.2513215,33.3802031 C28.8648346,33.3802031 28.551164,33.0625611 28.551164,32.6711808 L28.551164,28.0313388 C28.551164,27.6399585 28.8648346,27.3223165 29.2513215,27.3223165 L31.542237,27.3223165 C31.928724,27.3223165 32.2423945,27.6399585 32.2423945,28.0313388 C32.2423945,28.4227191 31.928724,28.7403611 31.542237,28.7403611 L29.9514791,28.7403611 L29.9514791,31.9621585 L33.1329949,31.9621585 L33.1329949,30.3512598 C33.1329949,29.9598795 33.4466655,29.6422375 33.8331525,29.6422375 C34.2196394,29.6422375 34.53331,29.9598795 34.53331,30.3512598 L34.53331,32.6711808 C34.53331,33.0625611 34.2196394,33.3802031 33.8331525,33.3802031" id="Fill-19" fill="#CBCACA"></path>
            <path d="M31.5419569,31.0601403 C31.3627166,31.0601403 31.1834763,30.9906561 31.0462454,30.8531058 C30.773184,30.575169 30.773184,30.1270669 31.0462454,29.8491302 L33.7726588,27.0896154 C34.0457203,26.8130967 34.4882198,26.8130967 34.7626816,27.0896154 C35.035743,27.3661341 35.035743,27.8156542 34.7626816,28.0921729 L32.0376685,30.8531058 C31.9004376,30.9906561 31.7211973,31.0601403 31.5419569,31.0601403" id="Fill-21" fill="#CBCACA"></path>
            <path d="M33.8331525,43.3221139 L29.2513215,43.3221139 C28.8648346,43.3221139 28.551164,43.0044719 28.551164,42.6130916 L28.551164,37.9732496 C28.551164,37.5818693 28.8648346,37.2642273 29.2513215,37.2642273 L31.542237,37.2642273 C31.928724,37.2642273 32.2423945,37.5818693 32.2423945,37.9732496 C32.2423945,38.3646299 31.928724,38.6822719 31.542237,38.6822719 L29.9514791,38.6822719 L29.9514791,41.9040693 L33.1329949,41.9040693 L33.1329949,40.2931706 C33.1329949,39.9017903 33.4466655,39.5841483 33.8331525,39.5841483 C34.2196394,39.5841483 34.53331,39.9017903 34.53331,40.2931706 L34.53331,42.6130916 C34.53331,43.0044719 34.2196394,43.3221139 33.8331525,43.3221139" id="Fill-23" fill="#CBCACA"></path>
            <path d="M31.5419569,41.0020511 C31.3627166,41.0020511 31.1834763,40.9325669 31.0462454,40.7950166 C30.773184,40.5170798 30.773184,40.0689777 31.0462454,39.791041 L33.7726588,37.0315262 C34.0457203,36.7550075 34.4882198,36.7550075 34.7626816,37.0315262 C35.035743,37.3080449 35.035743,37.757565 34.7626816,38.0340837 L32.0376685,40.7950166 C31.9004376,40.9325669 31.7211973,41.0020511 31.5419569,41.0020511" id="Fill-25" fill="#CBCACA"></path>
            <path d="M33.8331525,53.4829708 L29.2513215,53.4829708 C28.8648346,53.4829708 28.551164,53.1653288 28.551164,52.7739485 L28.551164,48.1341065 C28.551164,47.7427262 28.8648346,47.4250842 29.2513215,47.4250842 L31.542237,47.4250842 C31.928724,47.4250842 32.2423945,47.7427262 32.2423945,48.1341065 C32.2423945,48.5254868 31.928724,48.8431288 31.542237,48.8431288 L29.9514791,48.8431288 L29.9514791,52.0649262 L33.1329949,52.0649262 L33.1329949,50.4540275 C33.1329949,50.0626472 33.4466655,49.7450052 33.8331525,49.7450052 C34.2196394,49.7450052 34.53331,50.0626472 34.53331,50.4540275 L34.53331,52.7739485 C34.53331,53.1653288 34.2196394,53.4829708 33.8331525,53.4829708" id="Fill-27" fill="#CBCACA"></path>
            <path d="M31.5419569,51.162908 C31.3627166,51.162908 31.1834763,51.0934238 31.0462454,50.9558735 C30.773184,50.6779367 30.773184,50.2298346 31.0462454,49.9518979 L33.7726588,47.1923831 C34.0457203,46.9158644 34.4882198,46.9158644 34.7626816,47.1923831 C35.035743,47.4703198 35.035743,47.9184219 34.7626816,48.1949406 L32.0376685,50.9558735 C31.9004376,51.0934238 31.7211973,51.162908 31.5419569,51.162908" id="Fill-29" fill="#CBCACA"></path>
            <path d="M61.7253282,48.8428452 L38.0796079,48.8428452 C37.693121,48.8428452 37.3794504,48.5252032 37.3794504,48.1338229 C37.3794504,47.7424426 37.693121,47.4248006 38.0796079,47.4248006 L61.7253282,47.4248006 C62.1118152,47.4248006 62.4254857,47.7424426 62.4254857,48.1338229 C62.4254857,48.5252032 62.1118152,48.8428452 61.7253282,48.8428452" id="Fill-31" fill="#CBCACA"></path>
            <path d="M34.1374409,63.4609 L29.55561,63.4609 C29.1677227,63.4609 28.8554525,63.143258 28.8554525,62.7518776 L28.8554525,58.1120357 C28.8554525,57.7206553 29.1677227,57.4030133 29.55561,57.4030133 L31.8465255,57.4030133 C32.2330124,57.4030133 32.546683,57.7206553 32.546683,58.1120357 C32.546683,58.503416 32.2330124,58.821058 31.8465255,58.821058 L30.2557675,58.821058 L30.2557675,62.0428553 L33.4372834,62.0428553 L33.4372834,60.4319566 C33.4372834,60.0405763 33.750954,59.7229343 34.1374409,59.7229343 C34.5239279,59.7229343 34.8375985,60.0405763 34.8375985,60.4319566 L34.8375985,62.7518776 C34.8375985,63.143258 34.5239279,63.4609 34.1374409,63.4609" id="Fill-33" fill="#CBCACA"></path>
            <path d="M62.0296167,58.8206325 L38.3838964,58.8206325 C37.9974094,58.8206325 37.6837388,58.5029906 37.6837388,58.1116102 C37.6837388,57.7202299 37.9974094,57.4025879 38.3838964,57.4025879 L62.0296167,57.4025879 C62.4161036,57.4025879 62.7297742,57.7202299 62.7297742,58.1116102 C62.7297742,58.5029906 62.4161036,58.8206325 62.0296167,58.8206325" id="Fill-35" fill="#CBCACA"></path>
            <path d="M45.7926834,62.2793852 L38.3836163,62.2793852 C37.9971294,62.2793852 37.6834588,61.9617432 37.6834588,61.5703629 C37.6834588,61.1789826 37.9971294,60.8613406 38.3836163,60.8613406 L45.7926834,60.8613406 C46.1791703,60.8613406 46.4928409,61.1789826 46.4928409,61.5703629 C46.4928409,61.9617432 46.1791703,62.2793852 45.7926834,62.2793852" id="Fill-37" fill="#CBCACA"></path>
            <path d="M67.3054437,79.506642 L53.9590408,79.506642 C51.7745493,79.506642 50.004551,77.7128156 50.004551,75.500666 L50.004551,55.0042491 C50.004551,54.4370312 50.2384036,53.8953382 50.6514966,53.5110481 L53.6761771,50.7004837 C54.0920707,50.3133575 54.3273236,49.7659923 54.3231227,49.1945203 L54.3119202,47.1766428 L66.9525643,47.1766428 L66.9525643,49.1122737 C66.9525643,49.6695652 67.1794154,50.20275 67.5785052,50.585622 L70.635393,53.5138842 C71.0344828,53.8967562 71.2613338,54.428523 71.2613338,54.9872325 L71.2613338,75.500666 C71.2613338,77.7128156 69.4913356,79.506642 67.3054437,79.506642" id="Fill-39" fill="#FFFFFF"></path>
            <path d="M55.0164187,47.8855233 L55.0234203,49.1901243 C55.0290215,49.9615406 54.7097497,50.7017599 54.1482234,51.2236003 L51.1249431,54.0327467 C50.8574829,54.2823226 50.7034483,54.6368337 50.7034483,55.0055253 L50.7034483,75.5005242 C50.7034483,77.3184574 52.1639769,78.7974779 53.9591808,78.7974779 L67.3055838,78.7974779 C69.1007877,78.7974779 70.5613163,77.3184574 70.5613163,75.5005242 L70.5613163,54.9870907 C70.5613163,54.6254894 70.4128829,54.2766504 70.1538246,54.0284926 L67.0969368,51.1002304 C66.5606161,50.5854802 66.2511465,49.8608594 66.2511465,49.1121319 L66.2511465,47.8855233 L55.0164187,47.8855233 Z M67.3055838,80.2155225 L53.9591808,80.2155225 C51.3924033,80.2155225 49.3031332,78.0998 49.3031332,75.5005242 L49.3031332,55.0055253 C49.3031332,54.2411993 49.622405,53.5052341 50.1783301,52.9890659 L53.2030107,50.1785014 C53.4718712,49.9275075 53.6259058,49.5701603 53.6231052,49.1986326 L53.6077017,46.4674787 L67.6514616,46.4674787 L67.6514616,49.1121319 C67.6514616,49.4723152 67.8012953,49.8225722 68.0603536,50.07073 L71.1172414,52.9975741 C71.6535621,53.5137424 71.9616314,54.2383632 71.9616314,54.9870907 L71.9616314,75.5005242 C71.9616314,78.0998 69.8723613,80.2155225 67.3055838,80.2155225 L67.3055838,80.2155225 Z" id="Fill-41" fill="#1D2A4D"></path>
            <path d="M68.7570103,47.176501 L52.5077542,47.176501 C51.6213548,47.176501 50.9029932,46.447626 50.9029932,45.5500038 L50.9029932,41.3057963 C50.9029932,40.406756 51.6213548,39.6792991 52.5077542,39.6792991 L68.7570103,39.6792991 C69.6434098,39.6792991 70.3631717,40.406756 70.3631717,41.3057963 L70.3631717,45.5500038 C70.3631717,46.447626 69.6434098,47.176501 68.7570103,47.176501" id="Fill-43" fill="#1D2A4D"></path>
            <path d="M52.5084544,40.3881796 C52.0085419,40.3881796 51.6024506,40.7994125 51.6024506,41.3056545 L51.6024506,45.549862 C51.6024506,46.0561039 52.0085419,46.4673369 52.5084544,46.4673369 L68.7577105,46.4673369 C69.2562227,46.4673369 69.662314,46.0561039 69.662314,45.549862 L69.662314,41.3056545 C69.662314,40.7994125 69.2562227,40.3881796 68.7577105,40.3881796 L52.5084544,40.3881796 Z M68.7577105,47.8853815 L52.5084544,47.8853815 C51.2369683,47.8853815 50.2021355,46.8374465 50.2021355,45.549862 L50.2021355,41.3056545 C50.2021355,40.0180699 51.2369683,38.970135 52.5084544,38.970135 L68.7577105,38.970135 C70.0291966,38.970135 71.0626291,40.0180699 71.0626291,41.3056545 L71.0626291,45.549862 C71.0626291,46.8374465 70.0291966,47.8853815 68.7577105,47.8853815 L68.7577105,47.8853815 Z" id="Fill-45" fill="#1D2A4D"></path>
            <mask id="mask-6" fill="white">
                <use xlink:href="#path-5"></use>
            </mask>
            <g id="Clip-48"></g>
            <polygon id="Fill-47" fill="#1D2A4D" mask="url(#mask-6)" points="50.6591983 70.4626371 70.5506739 70.4626371 70.5506739 60.2286091 50.6591983 60.2286091"></polygon>
            <path d="M51.5012078,79.4904763 L42.9942937,79.4904763 C40.9204271,79.4904763 39.240049,77.7888228 39.240049,75.6886987 C39.240049,73.5885746 40.9204271,71.885503 42.9942937,71.885503 L51.5012078,71.885503 C53.5750744,71.885503 55.2568528,73.5885746 55.2568528,75.6886987 C55.2568528,77.7888228 53.5750744,79.4904763 51.5012078,79.4904763" id="Fill-49" fill="#1D2A4D" mask="url(#mask-6)"></path>
            <path d="M51.5012078,79.4909017 L46.271031,79.4909017 C46.1660074,79.4909017 46.0805881,79.404401 46.0805881,79.2994657 L46.0805881,72.0773645 C46.0805881,71.9724292 46.1660074,71.8859284 46.271031,71.8859284 L51.5012078,71.8859284 C53.5750744,71.8859284 55.2568528,73.589 55.2568528,75.6877061 L55.2568528,75.6891241 C55.2568528,77.7878301 53.5750744,79.4909017 51.5012078,79.4909017" id="Fill-50" fill="#FFCC02" mask="url(#mask-6)"></path>
            <path d="M51.5012078,71.886212 L46.271031,71.886212 C46.1660074,71.886212 46.0805881,71.9727128 46.0805881,72.0776481 L46.0805881,79.2997493 C46.0805881,79.4046846 46.1660074,79.4911853 46.271031,79.4911853 L51.5012078,79.4911853 C53.5750744,79.4911853 55.2554525,77.7881137 55.2554525,75.6879897 C55.2554525,73.5878656 53.5750744,71.886212 51.5012078,71.886212 M51.5012078,73.3042567 C52.7992998,73.3042567 53.8551374,74.3734623 53.8551374,75.6879897 C53.8551374,77.002517 52.7992998,78.0731407 51.5012078,78.0731407 L47.4809032,78.0731407 L47.4809032,73.3042567 L51.5012078,73.3042567" id="Fill-51" fill="#1D294A" mask="url(#mask-6)"></path>
            <path d="M45.1978295,83.8323871 L37.1096097,81.1664632 C35.1365657,80.5155808 34.0583231,78.3700793 34.7010677,76.3734724 C35.342412,74.3768656 37.4624891,73.2849713 39.4341327,73.9344357 L47.5223525,76.6017776 C49.4939961,77.2512421 50.5722388,79.3967436 49.9308945,81.3933504 C49.2881498,83.3913753 47.1694731,84.4818516 45.1978295,83.8323871" id="Fill-52" fill="#1D2A4D" mask="url(#mask-6)"></path>
            <path d="M45.1978295,83.8328125 L40.2239104,82.193553 C40.124488,82.1609379 40.0698757,82.0517485 40.102083,81.9510673 L42.3089795,75.0848953 C42.3425871,74.9842141 42.449011,74.9289104 42.5484334,74.9615254 L47.5223525,76.602203 C49.4939961,77.2516675 50.5722388,79.397169 49.9294941,81.3937758 C49.2881498,83.3903826 47.1694731,84.482277 45.1978295,83.8328125" id="Fill-53" fill="#FFCC02" mask="url(#mask-6)"></path>
            <path d="M42.4901803,74.9521663 C42.4103623,74.9521663 42.3361456,75.0032159 42.3095396,75.0840445 L40.1026431,81.9516345 C40.0690355,82.0523157 40.1250481,82.1600871 40.2244705,82.1927021 L45.1983896,83.8333798 C45.5834763,83.9610038 45.9755645,84.0205616 46.3606511,84.0205616 C47.9430072,84.0205616 49.413338,82.9995695 49.9300543,81.394343 C50.5713986,79.3977362 49.4945563,77.2522347 47.5229127,76.6013522 L42.5489935,74.9620926 C42.5279888,74.9550024 42.5097847,74.9521663 42.4901803,74.9521663 M43.2673552,76.690689 L47.088815,77.9499126 C47.6867495,78.1470208 48.1740592,78.5681801 48.4583231,79.1353979 C48.7439874,79.7040338 48.7929984,80.3492441 48.5983546,80.9547492 C48.2818834,81.9402902 47.3828811,82.602517 46.3606511,82.602517 C46.1141957,82.602517 45.8691406,82.5628118 45.631087,82.4848193 L41.8096272,81.2241777 L43.2673552,76.690689" id="Fill-54" fill="#1D294A" mask="url(#mask-6)"></path>
            <polygon id="Fill-55" fill="#FFFFFF" mask="url(#mask-6)" points="84.4455803 65.298544 73.5343252 65.298544 73.5343252 30.5096554 76.6948363 24.7297055 81.4433047 24.7297055 84.4455803 30.5096554"></polygon>
            <path d="M74.2344828,64.5895217 L83.7454227,64.5895217 L83.7454227,30.6840749 L81.0204096,25.4387278 L77.106529,25.4387278 L74.2344828,30.6925831 L74.2344828,64.5895217 Z M85.1457378,66.0075663 L72.8341677,66.0075663 L72.8341677,30.3253096 L76.2817434,24.0206832 L81.8661999,24.0206832 L85.1457378,30.3338178 L85.1457378,66.0075663 Z" id="Fill-56" fill="#1D2A4D" mask="url(#mask-6)"></path>
            <path d="M79.3543147,20.2805905 L78.5617364,20.2805905 C77.1964292,20.2805905 76.0901803,21.4008458 76.0901803,22.7834393 L76.0901803,24.7304145 L81.8258708,24.7304145 L81.8258708,22.7834393 C81.8258708,21.4008458 80.7196219,20.2805905 79.3543147,20.2805905" id="Fill-57" fill="#1D2A4D" mask="url(#mask-6)"></path>
            <polygon id="Fill-58" fill="#CBCACA" mask="url(#mask-6)" points="78.9735691 22.6334101 79.0057763 22.6334101 79.0057763 9.18325694 78.9735691 9.18325694"></polygon>
            <path d="M79.0063364,23.3431415 C78.6198495,23.3431415 78.2739716,23.0254995 78.2739716,22.6341192 L78.2739716,9.18396597 C78.2739716,8.79258565 78.5876422,8.47494366 78.9741292,8.47494366 C79.3606161,8.47494366 79.706494,8.79258565 79.706494,9.18396597 L79.706494,22.6341192 C79.706494,23.0254995 79.3928234,23.3431415 79.0063364,23.3431415" id="Fill-59" fill="#1D294A" mask="url(#mask-6)"></path>
            <line x1="74.6092071" y1="36.0430073" x2="78.3536496" y2="36.0430073" id="Fill-60" fill="#CBCACA" mask="url(#mask-6)"></line>
            <path d="M78.3533695,36.7520296 L74.608927,36.7520296 C74.22244,36.7520296 73.9087695,36.4343876 73.9087695,36.0430073 C73.9087695,35.651627 74.22244,35.333985 74.608927,35.333985 L78.3533695,35.333985 C78.7398565,35.333985 79.053527,35.651627 79.053527,36.0430073 C79.053527,36.4343876 78.7398565,36.7520296 78.3533695,36.7520296" id="Fill-61" fill="#1D294A" mask="url(#mask-6)"></path>
            <line x1="74.6092071" y1="40.2134765" x2="78.3536496" y2="40.2134765" id="Fill-62" fill="#CBCACA" mask="url(#mask-6)"></line>
            <path d="M78.3533695,40.9224988 L74.608927,40.9224988 C74.22244,40.9224988 73.9087695,40.6048568 73.9087695,40.2134765 C73.9087695,39.8220962 74.22244,39.5044542 74.608927,39.5044542 L78.3533695,39.5044542 C78.7398565,39.5044542 79.053527,39.8220962 79.053527,40.2134765 C79.053527,40.6048568 78.7398565,40.9224988 78.3533695,40.9224988" id="Fill-63" fill="#1D294A" mask="url(#mask-6)"></path>
            <line x1="74.6092071" y1="44.0122762" x2="78.3536496" y2="44.0122762" id="Fill-64" fill="#CBCACA" mask="url(#mask-6)"></line>
            <path d="M78.3533695,44.7212985 L74.608927,44.7212985 C74.22244,44.7212985 73.9087695,44.4036565 73.9087695,44.0122762 C73.9087695,43.6208959 74.22244,43.3032539 74.608927,43.3032539 L78.3533695,43.3032539 C78.7398565,43.3032539 79.053527,43.6208959 79.053527,44.0122762 C79.053527,44.4036565 78.7398565,44.7212985 78.3533695,44.7212985" id="Fill-65" fill="#1D294A" mask="url(#mask-6)"></path>
            <line x1="74.6092071" y1="47.8344737" x2="78.3536496" y2="47.8344737" id="Fill-66" fill="#CBCACA" mask="url(#mask-6)"></line>
            <path d="M78.3533695,48.543496 L74.608927,48.543496 C74.22244,48.543496 73.9087695,48.225854 73.9087695,47.8344737 C73.9087695,47.4430934 74.22244,47.1254514 74.608927,47.1254514 L78.3533695,47.1254514 C78.7398565,47.1254514 79.053527,47.4430934 79.053527,47.8344737 C79.053527,48.225854 78.7398565,48.543496 78.3533695,48.543496" id="Fill-67" fill="#1D294A" mask="url(#mask-6)"></path>
            <line x1="74.6092071" y1="52.5575549" x2="78.3536496" y2="52.5575549" id="Fill-68" fill="#CBCACA" mask="url(#mask-6)"></line>
            <path d="M78.3533695,53.2665772 L74.608927,53.2665772 C74.22244,53.2665772 73.9087695,52.9489352 73.9087695,52.5575549 C73.9087695,52.1661746 74.22244,51.8485326 74.608927,51.8485326 L78.3533695,51.8485326 C78.7398565,51.8485326 79.053527,52.1661746 79.053527,52.5575549 C79.053527,52.9489352 78.7398565,53.2665772 78.3533695,53.2665772" id="Fill-69" fill="#1D294A" mask="url(#mask-6)"></path>
            <path d="M85.5143007,65.298544 L72.4661649,65.298544 C71.5783651,65.298544 70.8600035,64.569669 70.8600035,63.6720468 L70.8600035,60.66012 C70.8600035,59.7624978 71.5783651,59.0350409 72.4661649,59.0350409 L85.5143007,59.0350409 C86.4007002,59.0350409 87.1204621,59.7624978 87.1204621,60.66012 L87.1204621,63.6720468 C87.1204621,64.569669 86.4007002,65.298544 85.5143007,65.298544" id="Fill-70" fill="#CBCACA" mask="url(#mask-6)"></path>
            <path d="M72.4663049,59.7433542 C71.9663924,59.7433542 71.5603011,60.1545871 71.5603011,60.660829 L71.5603011,63.6727558 C71.5603011,64.1775797 71.9663924,64.5888126 72.4663049,64.5888126 L85.5144407,64.5888126 C86.0143532,64.5888126 86.4204446,64.1775797 86.4204446,63.6727558 L86.4204446,60.660829 C86.4204446,60.1545871 86.0143532,59.7433542 85.5144407,59.7433542 L72.4663049,59.7433542 Z M85.5144407,66.0068573 L72.4663049,66.0068573 C71.1948188,66.0068573 70.159986,64.9603403 70.159986,63.6727558 L70.159986,60.660829 C70.159986,59.3732445 71.1948188,58.3253096 72.4663049,58.3253096 L85.5144407,58.3253096 C86.7859268,58.3253096 87.8207597,59.3732445 87.8207597,60.660829 L87.8207597,63.6727558 C87.8207597,64.9603403 86.7859268,66.0068573 85.5144407,66.0068573 L85.5144407,66.0068573 Z" id="Fill-71" fill="#1D294A" mask="url(#mask-6)"></path>
            <path d="M82.4504113,81.2963561 L75.5300543,81.2963561 C73.8216699,81.2963561 72.4367583,79.89391 72.4367583,78.1638956 C72.4367583,76.4338811 73.8216699,75.0328531 75.5300543,75.0328531 L82.4504113,75.0328531 C84.1587957,75.0328531 85.542307,76.4338811 85.542307,78.1638956 C85.542307,79.89391 84.1587957,81.2963561 82.4504113,81.2963561" id="Fill-72" fill="#CBCACA" mask="url(#mask-6)"></path>
            <path d="M75.5301943,75.7411663 C74.2110975,75.7411663 73.1370558,76.8273885 73.1370558,78.1646046 C73.1370558,79.5004026 74.2110975,80.5866248 75.5301943,80.5866248 L82.4505514,80.5866248 C83.7696482,80.5866248 84.8422895,79.5004026 84.8422895,78.1646046 C84.8422895,76.8273885 83.7696482,75.7411663 82.4505514,75.7411663 L75.5301943,75.7411663 Z M82.4505514,82.0046694 L75.5301943,82.0046694 C73.4381236,82.0046694 71.7367408,80.2817452 71.7367408,78.1646046 C71.7367408,76.0460459 73.4381236,74.3231217 75.5301943,74.3231217 L82.4505514,74.3231217 C84.5426221,74.3231217 86.2426046,76.0460459 86.2426046,78.1646046 C86.2426046,80.2817452 84.5426221,82.0046694 82.4505514,82.0046694 L82.4505514,82.0046694 Z" id="Fill-73" fill="#1D294A" mask="url(#mask-6)"></path>
            <polygon id="Fill-74" fill="#CBCACA" mask="url(#mask-6)" points="75.9838964 75.0712821 81.9968493 75.0712821 81.9968493 65.2981186 75.9838964 65.2981186"></polygon>
            <path d="M76.6840539,74.3622598 L81.2966918,74.3622598 L81.2966918,66.0071409 L76.6840539,66.0071409 L76.6840539,74.3622598 Z M81.9968493,75.7803044 L75.9838964,75.7803044 C75.5960091,75.7803044 75.2837388,75.4626624 75.2837388,75.0712821 L75.2837388,65.2981186 C75.2837388,64.9067382 75.5960091,64.5890962 75.9838964,64.5890962 L81.9968493,64.5890962 C82.3847366,64.5890962 82.6970068,64.9067382 82.6970068,65.2981186 L82.6970068,75.0712821 C82.6970068,75.4626624 82.3847366,75.7803044 81.9968493,75.7803044 L81.9968493,75.7803044 Z" id="Fill-75" fill="#1D294A" mask="url(#mask-6)"></path>
            <path d="M67.3873622,64.9986275 C67.3873622,68.7762984 64.3626816,71.8392748 60.6322423,71.8392748 C56.9018029,71.8392748 53.8771224,68.7762984 53.8771224,64.9986275 C53.8771224,61.2209567 56.9018029,58.1579803 60.6322423,58.1579803 C64.3626816,58.1579803 67.3873622,61.2209567 67.3873622,64.9986275" id="Fill-76" fill="#FFFFFF" mask="url(#mask-6)"></path>
            <path d="M60.6326623,58.8671444 C57.2943112,58.8671444 54.5777,61.618151 54.5777,64.9987693 C54.5777,68.3793877 57.2943112,71.1303943 60.6326623,71.1303943 C63.9710135,71.1303943 66.6876247,68.3793877 66.6876247,64.9987693 C66.6876247,61.618151 63.9710135,58.8671444 60.6326623,58.8671444 M60.6326623,72.5484389 C56.5213373,72.5484389 53.1773849,69.1621483 53.1773849,64.9987693 C53.1773849,60.8353903 56.5213373,57.4490998 60.6326623,57.4490998 C64.7439874,57.4490998 68.0879398,60.8353903 68.0879398,64.9987693 C68.0879398,69.1621483 64.7439874,72.5484389 60.6326623,72.5484389" id="Fill-77" fill="#1D2A4D" mask="url(#mask-6)"></path>
            <polygon id="Fill-78" fill="#348F41" mask="url(#mask-6)" points="64.8677752 63.3202299 62.2897952 63.3202299 62.2897952 60.7096098 58.9752494 60.7096098 58.9752494 63.3202299 56.3972694 63.3202299 56.3972694 66.6767415 58.9752494 66.6767415 58.9752494 69.2873617 62.2897952 69.2873617 62.2897952 66.6767415 64.8677752 66.6767415"></polygon>
        </g>
    </g>
</svg>