<?xml version="1.0" encoding="UTF-8"?>
<svg width="232px" height="232px" viewBox="0 0 232 232" version="1.1" xmlns="http://www.w3.org/2000/svg" xmlns:xlink="http://www.w3.org/1999/xlink">
    <title>atoms/img/ilustraciones/big/correos_frío</title>
    <g id="atoms/img/ilustraciones/big/correos_frío" stroke="none" stroke-width="1" fill="none" fill-rule="evenodd">
        <g id="Group-40" transform="translate(0.000000, 38.000000)">
            <g id="Group-3" transform="translate(0.000000, 8.000000)" fill="#F3F2F2">
                <path d="M51.2678116,31.2252278 C7.60785592,9.74045345 -40.7104395,86.716785 57.1350709,137.112325 C154.980581,187.507864 273.216233,64.4117458 217.834587,15.3221641 C162.455206,-33.7681694 94.9270126,52.7092503 51.2678116,31.2252278" id="Fill-1"></path>
            </g>
            <polygon id="Fill-4" fill="#012A60" points="41 102 192 102 192 89 41 89"></polygon>
            <path d="M29,32 L29,97 L136,97 L136,41.3699559 C136,36.171243 131.791209,32 126.64772,32 L29,32 Z" id="Fill-6" fill="#FDC22E"></path>
            <path d="M44,103 L44,106.489297 C44,106.95525 44.1413197,107.399796 44.4186973,107.800102 C44.743432,108.287462 45.2733809,108.732722 45.9183401,109.090214 C46.9399013,109.644648 48.304238,110 49.8091427,110 L205,110 L205,103 L110.54355,103 L110.54355,106.465749 L50.4127584,106.465749 L50.4127584,103 L44,103 Z" id="Fill-7" fill="#012A60"></path>
            <path d="M139,48 L139,96.1405456 L143.035844,96.1405456 C143.932531,96.1405456 144.752359,96.4590572 145.416209,96.9881488 C145.8962,97.3783633 146.298579,97.8765095 146.580395,98.464473 C146.896872,99.0924391 147.069428,99.8124868 147.069428,100.569518 L147.069428,105 L204,105 L204,94.6627119 C204,91.8262977 202.217176,88.599669 199.831536,86.8901218 L199.811945,86.8901218 C199.471355,86.6312368 199.102131,86.4183925 198.728386,86.2410222 L187.353273,80.8195313 C185.601342,79.9794756 183.241323,78.0412341 182.079398,76.4811308 L164.37247,52.7142744 C162.433667,50.1156118 158.250133,48 155.031103,48 L139,48 Z" id="Fill-8" fill="#FDC22E"></path>
            <line x1="146.5" y1="58" x2="146.5" y2="98" id="Stroke-9" stroke="#000000" stroke-width="0.5"></line>
            <path d="M146,58.5853772 L146,74.4153861 C146,76.3969998 147.573622,78 149.499614,78 L171.922593,78 C172.215482,78 172.485784,77.9618333 172.71618,77.9022933 C174.030041,77.5763499 174.400482,76.4099764 173.52332,74.9955196 L162.769235,58.0060071 C161.723416,56.3472835 159.292962,55 157.363205,55 L149.499614,55 C149.125408,55 148.746685,55.05725 148.416902,55.1778567 C147.653432,55.4282301 147.001396,55.9450068 146.568461,56.6266636 C146.213079,57.1854237 146,57.8525771 146,58.5853772" id="Fill-10" fill="#D2E0E3"></path>
            <path d="M27.5006477,94 C26.6683938,94 26,93.0050689 26,91.7745337 L26,89.2268856 C26,87.9956407 26.6683938,87 27.5006477,87 L29,87 L29,94 L27.5006477,94 Z" id="Fill-11" fill="#DA2415"></path>
            <path d="M37,104.809023 L37,109.192515 C37,111.299667 37.6695046,113 38.502322,113 L40,113 L40,101 L38.502322,101 C37.6695046,101 37,102.70264 37,104.809023" id="Fill-12" fill="#C3C4C1"></path>
            <path d="M204.066288,105 L198,105 L198,97.7973511 C198,96.8032375 198.863578,96 199.928585,96 L204.066288,96 C205.137887,96 206,96.8032375 206,97.7973511 L206,103.20187 C206,104.189751 205.137887,105 204.066288,105" id="Fill-13" fill="#DEDEDE"></path>
            <path d="M165,110 L194,110 C193.699961,108.224865 193.074879,106.558947 192.171731,105.066319 C191.692123,104.278503 191.156447,103.548207 190.531365,102.865239 C187.846924,99.8792549 183.891862,98 179.498863,98 C175.095258,98 171.1455,99.8792549 168.465604,102.865239 C167.847342,103.548207 167.295754,104.278503 166.823723,105.066319 C165.924363,106.558947 165.299282,108.224865 165,110" id="Fill-14" fill="#002148"></path>
            <path d="M192,112.00037 C192,119.178751 186.177418,125 178.998504,125 C171.821085,125 166,119.178751 166,112.00037 C166,104.821249 171.821085,99 178.998504,99 C186.177418,99 192,104.821249 192,112.00037" id="Fill-15" fill="#3E3E3E"></path>
            <path d="M189,112.501471 C189,117.745412 184.750333,122 179.5,122 C174.257107,122 170,117.745412 170,112.501471 C170,107.253852 174.257107,103 179.5,103 C184.750333,103 189,107.253852 189,112.501471" id="Fill-16" fill="#CACBCD"></path>
            <path d="M186,112.502327 C186,116.642798 182.860176,120 179,120 C175.135432,120 172,116.642798 172,112.502327 C172,108.362631 175.135432,105 179,105 C182.860176,105 186,108.362631 186,112.502327 Z" id="Stroke-17" stroke="#000000"></path>
            <polygon id="Fill-18" fill="#4D4D4D" points="40 116 42 116 42 97 40 97"></polygon>
            <path d="M87,112.00037 C87,119.178751 81.1760898,125 73.9988779,125 C66.8186736,125 61,119.178751 61,112.00037 C61,104.821249 66.8186736,99 73.9988779,99 C81.1760898,99 87,104.821249 87,112.00037" id="Fill-19" fill="#3E3E3E"></path>
            <path d="M83,112.501471 C83,117.745412 78.7467685,122 73.4992558,122 C68.2547199,122 64,117.745412 64,112.501471 C64,107.253852 68.2547199,103 73.4992558,103 C78.7467685,103 83,107.253852 83,112.501471" id="Fill-20" fill="#CACBCD"></path>
            <path d="M81,112.502327 C81,116.642798 77.8585616,120 73.997073,120 C70.1355844,120 67,116.642798 67,112.502327 C67,108.362631 70.1355844,105 73.997073,105 C77.8585616,105 81,108.362631 81,112.502327 Z" id="Stroke-21" stroke="#000000"></path>
            <path d="M145,102.499223 C145,104.983509 142.98708,107 140.501179,107 C138.014491,107 136,104.983509 136,102.499223 C136,100.011829 138.014491,98 140.501179,98 C142.98708,98 145,100.011829 145,102.499223" id="Fill-22" fill="#E49A26"></path>
            <path d="M204,94.4484006 L204,96 L200,96 L200,87 L200.013674,87 C202.29651,88.6384022 204,91.7307507 204,94.4484006" id="Fill-23" fill="#E49A26"></path>
            <polygon id="Fill-24" fill="#012A60" points="139 96 142 96 142 48 139 48"></polygon>
            <polygon id="Fill-25" fill="#8B8B8B" points="149 86 156 86 156 82 149 82"></polygon>
            <polygon id="Fill-26" fill="#012A60" points="149 84 156 84 156 82 149 82"></polygon>
            <path d="M89,6 C88.2792766,5.17518681 87.7624132,4.16890049 87.1125703,3.28074961 C86.9676729,3.08290831 86.9588912,2.91282173 87.1081795,2.7085755 C87.7573951,1.82184794 88.258577,0.803463409 89,0 L89,6 Z" id="Fill-27" fill="#FAFCFC"></path>
            <path d="M67.7331102,77 C63.4439913,76.9647049 59.7130137,75.5769322 56.5201059,72.7563291 C53.5742316,70.1535043 51.81489,66.9461572 51.1973063,63.1568168 C50.6986074,60.0959068 51.1579353,57.1311195 52.4317017,54.2857349 C53.2677557,52.4188501 54.3979339,50.7487167 55.9279975,49.3541853 C56.2823362,49.0312728 56.2946878,48.6685595 56.2946878,48.2592867 C56.2908279,37.0970281 56.2313855,25.9347694 56.3232511,14.7732617 C56.3572182,10.6519972 58.4446511,7.54002201 62.1084665,5.43808701 C63.4470792,4.66985567 64.9269642,4.34469031 66.4068491,4 L67.7261623,4 C67.8033603,4.09236799 67.8890501,4.18924174 67.8952259,4.30864426 C67.9616161,5.60254709 68.0766411,6.89795184 67.8288356,8.18734891 C67.4675492,8.60563322 66.9302513,8.50350276 66.4693795,8.59662171 C63.6007032,9.17861515 61.4353003,11.3135924 60.9674806,14.050088 C60.8949145,14.4758819 60.9026343,14.9031777 60.9026343,15.3297226 C60.9018623,26.736043 60.8910546,38.1416124 60.9203898,49.5471818 C60.9227058,50.5669845 60.5946144,51.2526104 59.8010194,51.9307266 C54.015032,56.8690348 54.2944886,65.4277176 60.3375452,70.0378566 C62.279846,71.5194992 64.4992875,72.298244 66.942603,72.5160222 C67.2529388,72.5438077 67.58875,72.5115164 67.814168,72.7983829 C68.004075,74.2026767 68.1453473,75.6069705 67.7331102,77" id="Fill-28" fill="#DBDBDB"></path>
            <path d="M67,8.32340943 C67,6.88227295 67,5.44113648 67,4 L68.410348,4 C69.5258523,4.3248059 70.6636369,4.56082141 71.7189842,5.09432269 C75.135309,6.82080267 77.1286602,9.62415083 77.8564859,13.414059 C78.0109632,14.2200026 77.999823,15.0312585 77.999823,15.8455499 C77.9983376,24.1440372 77.9983376,32.4425245 77.9983376,40.7410118 C77.9344672,40.8138654 77.8594566,40.8889957 77.7688497,40.8950669 C76.4461379,40.9853751 75.1219407,41.1052801 73.8051704,40.8275255 C73.4457136,40.450356 73.5608289,39.9707361 73.5600862,39.5290607 C73.5526594,31.537166 73.5548874,23.54603 73.5548874,15.5541352 C73.5548874,13.5362406 72.9043004,11.7945828 71.4612745,10.3875965 C70.5173291,9.46781901 69.4085089,8.88423083 68.1169897,8.66339318 C67.7716438,8.60419958 67.4151577,8.58295059 67.0928349,8.41675318 C67.0616424,8.38639749 67.0311925,8.3552829 67,8.32340943" id="Fill-29" fill="#C9C9CE"></path>
            <path d="M104,17.3427136 C103.525878,17.7064576 103.043465,18.0594582 102.581404,18.4377828 C102.409544,18.578983 102.335674,18.5429156 102.221855,18.3802283 C101.955774,17.9988342 101.666326,17.6350901 101.39723,17.2559982 C101.296978,17.1155653 101.193712,17.042663 101.012807,17.0457326 C100.294463,17.0564761 99.5768737,17.0549413 98.859284,17.0472674 C98.6768715,17.0449652 98.5540069,17.0833349 98.5261173,17.2874613 C98.494459,17.5161443 98.1846592,17.7010859 98.4801373,17.9819516 C99.0055155,18.479222 99.5037579,19.0064207 100.005015,19.5290151 C100.120342,19.6487283 100.2319,19.6847958 100.393207,19.657937 C100.877882,19.5765934 101.367079,19.519039 101.851,19.4323236 C102.010045,19.4031627 102.045473,19.4576476 102.065071,19.5942434 C102.144217,20.1567422 102.225624,20.719241 102.311554,21.2817398 C102.339443,21.4628444 102.225624,21.4920053 102.096729,21.5096554 C101.73115,21.5603033 101.366325,21.630136 100.999239,21.651623 C100.770093,21.6646687 100.690193,21.7567558 100.665319,21.9731605 C100.620846,22.3568568 100.545469,22.7374835 100.505519,23.1219472 C100.486675,23.2938432 100.458785,23.356002 100.264313,23.3230041 C99.7246127,23.2316844 99.1803903,23.1618516 98.6361679,23.0996928 C98.4341573,23.0774385 98.4710921,22.9454469 98.4854137,22.8288033 C98.5336551,22.4343635 98.5705898,22.0353193 98.6535046,21.6470187 C98.7281279,21.3009246 98.6633036,21.0507546 98.395715,20.8044216 C97.9306385,20.3762165 97.4942053,19.9134788 97.0607871,19.450741 C96.9122943,19.2926582 96.7924448,19.2481494 96.6092785,19.3786061 C96.5203336,19.4415323 96.407268,19.4814367 96.2994788,19.5044585 C96.1457095,19.5374564 96.1185738,19.6280087 96.1200813,19.7715111 C96.1261115,20.5250907 96.1261115,21.2786702 96.1193276,22.0322497 C96.1185738,22.1849609 96.1645538,22.2785828 96.2896797,22.3683677 C96.6725952,22.6461638 97.0404353,22.9454469 97.4203358,23.2278474 C97.5778738,23.3452585 97.6472207,23.4327412 97.4889289,23.6268916 C97.1670688,24.0213314 96.8723445,24.4395603 96.5791277,24.8570219 C96.4622932,25.0235461 96.3718407,25.0481027 96.2082725,24.9122742 C95.851739,24.616828 95.4793763,24.3428689 95.1137975,24.059701 C94.987164,23.9315464 95.0075158,23.7657896 95.0075158,23.6092415 C95.003747,21.7882189 95.003747,19.9671962 95.0067621,18.1461736 C95.0075158,17.9658363 94.9947017,17.7778252 95.1356568,17.632788 C95.2328933,17.5476074 95.3580192,17.5337943 95.4756074,17.4977269 C96.144202,17.2920656 96.6462133,16.628271 96.6243539,15.9798243 C96.6002333,15.2569405 96.1185738,14.6737221 95.397969,14.5018261 C95.2313857,14.4626891 95.0580185,14.4458065 95.0256063,14.22403 C94.9796263,13.3898743 95.0105309,12.5564859 95.0060083,11.7230975 C95,10.6380044 95.0022394,9.55291125 95.0067621,8.46781811 C95.0075158,8.28901564 94.9728424,8.09793488 95.1100286,7.94522375 C95.4846527,7.65591674 95.8622918,7.37044669 96.2323932,7.07423315 C96.3673181,6.96603079 96.4502329,6.97216993 96.555007,7.11874192 C96.864053,7.55308613 97.1791291,7.98359338 97.5077732,8.40258974 C97.6344066,8.56527697 97.5906879,8.64738798 97.4482253,8.75328816 C97.0675711,9.03492125 96.7004848,9.33497175 96.3160617,9.61200048 C96.1728453,9.71636588 96.1155587,9.82303345 96.11782,10.0041381 C96.1291266,10.7239524 96.1298804,11.4437666 96.11782,12.1628135 C96.1148049,12.3638704 96.1592774,12.4851184 96.3650568,12.527325 C96.4622932,12.5472772 96.564806,12.5825772 96.643952,12.6408991 C96.8105353,12.7652167 96.9122943,12.6976861 97.0374203,12.566462 C97.5070194,12.0753307 97.9766185,11.5834321 98.4688308,11.11609 C98.6678262,10.9280788 98.7183289,10.7331611 98.6761177,10.4806889 C98.6112934,10.0877839 98.5570219,9.6933441 98.4929514,9.30043909 C98.4545091,9.06101259 98.4597855,8.90983625 98.7816456,8.88911665 C99.2821493,8.85611877 99.779638,8.7594273 100.275619,8.67117715 C100.447479,8.64048145 100.484414,8.69036197 100.503258,8.85228181 C100.549992,9.25899989 100.631399,9.661881 100.672856,10.0685991 C100.693962,10.2765625 100.800997,10.33028 100.973611,10.3502322 C101.35125,10.3939735 101.727381,10.451528 102.105774,10.4937346 C102.253513,10.5098498 102.336428,10.558963 102.3108,10.7270219 C102.228639,11.2787772 102.144217,11.8297651 102.072608,12.3822878 C102.048488,12.566462 101.979895,12.587949 101.808789,12.5564859 C101.358034,12.4736075 100.902003,12.4229596 100.448986,12.3538942 C100.274865,12.3270355 100.132403,12.3354768 99.9937089,12.4828162 C99.4954664,13.0084801 98.9881788,13.5257028 98.4710921,14.0337167 C98.330137,14.1718473 98.3633029,14.2777475 98.402499,14.448876 C98.504258,14.8962659 98.7628013,14.988353 99.1743601,14.9622617 C99.7555173,14.9269616 100.341197,14.9400073 100.923862,14.9599595 C101.16733,14.9684008 101.315069,14.8809181 101.448486,14.685233 C101.684416,14.3383715 101.96105,14.0191362 102.186428,13.6653682 C102.340951,13.4221047 102.460047,13.459707 102.646982,13.6124181 C103.023113,13.9193752 103.412813,14.2086822 103.797989,14.5025935 C103.858291,14.5478697 103.905779,14.6253763 104,14.6015872 L104,14.7381831 C103.830402,15.0858119 103.585426,15.3804907 103.349496,15.6790064 C103.176129,15.9000155 103.155777,16.071144 103.341204,16.3028966 C103.584672,16.606784 103.845477,16.9052998 104,17.2744156 L104,17.3427136 Z" id="Fill-30" fill="#C1E1E9"></path>
            <path d="M94.8580144,7.92735067 C94.8542382,10.0663898 94.850462,12.2046603 94.8459305,14.3436995 C94.7432175,14.4751316 94.5853718,14.4636025 94.4479177,14.5020329 C93.7470526,14.6941852 93.2788022,15.382859 93.3339349,16.1414762 C93.3868018,16.873192 93.9585205,17.4557977 94.691861,17.5257411 C94.8013712,17.5357331 94.9206995,17.5157492 95,17.6248917 C94.8421543,17.7125132 94.8595249,17.8631605 94.8595249,18.0122707 C94.8617906,20.0306382 94.8617906,22.0490057 94.8617906,24.0673732 C94.4826588,24.3517586 94.0974851,24.6292265 93.726661,24.925141 C93.5839202,25.0396637 93.5061302,25.0212171 93.4056829,24.8805617 C93.1005649,24.4562894 92.7969574,24.0297114 92.4722031,23.6215799 C92.3279518,23.4394196 92.3921474,23.3548726 92.5416854,23.2449615 C92.91402,22.9682622 93.2742707,22.6754221 93.6496263,22.4041031 C93.7931224,22.3011095 93.8527865,22.191967 93.8505208,22.0098067 C93.8399474,21.2780908 93.8384369,20.5456063 93.851276,19.8138904 C93.8550522,19.6163579 93.7908566,19.521819 93.6118641,19.4733966 C93.4932911,19.4418836 93.3762285,19.3926927 93.2704945,19.3288981 C93.1398375,19.2505 93.0537399,19.2781699 92.9502716,19.384238 C92.4231123,19.9314876 91.8906663,20.4733571 91.3536888,21.0106148 C91.2434234,21.1205259 91.2237871,21.226594 91.2479549,21.3772414 C91.3287658,21.8729942 91.3891852,22.3710529 91.46622,22.8668058 C91.4888772,23.0151474 91.441297,23.0781733 91.3000666,23.0973885 C90.7774387,23.1665634 90.2548109,23.2388126 89.7329382,23.3149049 C89.5607429,23.3395004 89.4686033,23.3079874 89.4497223,23.0981571 C89.4157364,22.7230759 89.3364359,22.3533749 89.2948975,21.9790623 C89.271485,21.7684634 89.2087999,21.6639326 88.9731642,21.6500976 C88.6159345,21.6301138 88.2624809,21.5501784 87.9060064,21.5102107 C87.6688603,21.4833094 87.6227905,21.3733983 87.6635736,21.1443528 C87.7443845,20.6954851 87.8025382,20.2420057 87.8501185,19.7877577 C87.876552,19.5325795 87.9430133,19.4034532 88.2360474,19.4626361 C88.6529414,19.5471831 89.0804087,19.5786961 89.4995683,19.655557 C89.7110362,19.6939874 89.856798,19.6455651 90.0063361,19.4872316 C90.4821389,18.9853298 90.9677599,18.4918828 91.460178,18.0076591 C91.6112265,17.8593175 91.6180237,17.7417203 91.5591148,17.5334272 C91.435255,17.0907084 91.1935774,16.9677309 90.7562919,17.0023183 C90.1755104,17.0476663 89.5879317,17.0230708 89.0041292,17.0084672 C88.7866193,17.003087 88.6506756,17.0814851 88.5290816,17.256728 C88.2692781,17.630272 87.9830412,17.9838322 87.7247482,18.3573762 C87.6129723,18.5195527 87.5419795,18.5695123 87.366008,18.422708 C86.9838553,18.1045038 86.5858424,17.8047463 86.1802771,17.5188237 C85.989956,17.3843171 85.962012,17.2805548 86.1138158,17.0953201 C86.3434095,16.8147777 86.5367516,16.5027224 86.7716321,16.2260232 C86.9226806,16.0484745 86.9000233,15.925497 86.7663454,15.7579402 C86.5246678,15.4566454 86.3086684,15.1353668 86.0700117,14.8317662 C85.9688092,14.7041771 85.9740959,14.6334651 86.1070186,14.5350831 C86.5435488,14.2130359 86.9755476,13.8848398 87.3992387,13.5451146 C87.5329166,13.4375093 87.5986227,13.4621048 87.6900071,13.5889253 C87.9686916,13.9763043 88.2647467,14.3506169 88.5373892,14.7426076 C88.6468994,14.8986352 88.763962,14.9647356 88.9542831,14.9616612 C89.6627007,14.9516693 90.3711182,14.9516693 91.0787805,14.9616612 C91.2751436,14.963967 91.4012691,14.9201563 91.4420522,14.706483 C91.4866115,14.4666769 91.7781352,14.2683758 91.4624438,13.980916 C90.9609627,13.5235936 90.4934675,13.0263035 90.0289933,12.5290134 C89.8613295,12.3499275 89.6944209,12.2991992 89.4625614,12.3414728 C89.0434018,12.4167964 88.6182002,12.4621444 88.1982853,12.5343936 C87.9875726,12.5705183 87.8909016,12.5028807 87.8644681,12.2845957 C87.8010277,11.7750078 87.7307902,11.2661886 87.6514897,10.7596752 C87.6175038,10.5452333 87.7353216,10.5068028 87.895433,10.4860504 C88.2624809,10.437628 88.6280183,10.3746021 88.9965767,10.3423205 C89.1899188,10.3246425 89.2661983,10.2500874 89.2873451,10.0540921 C89.3326597,9.64596063 89.4089392,9.24167224 89.4572747,8.83354081 C89.4754005,8.68212481 89.5222256,8.64830601 89.6702531,8.67213289 C90.2140278,8.7574485 90.7585577,8.82969776 91.3038428,8.89733536 C91.4541361,8.91655059 91.4896325,8.97880793 91.4669752,9.12330644 C91.3906957,9.61982792 91.3332973,10.1186552 91.2487101,10.6136395 C91.2192556,10.7819649 91.257773,10.8903388 91.3733251,11.0056301 C91.8944425,11.5267471 92.4148046,12.0494013 92.9208172,12.5851218 C93.0597818,12.7311576 93.1602291,12.6835038 93.3256272,12.6466106 C93.8006748,12.5390053 93.882241,12.2492397 93.8550522,11.8088266 C93.8188006,11.216229 93.8391922,10.6197884 93.8505208,10.0248849 C93.854297,9.82274072 93.7999195,9.68900274 93.62999,9.56909972 C93.2516134,9.30239236 92.8951389,9.00417203 92.5205386,8.73131579 C92.3672244,8.61986747 92.3490985,8.53455186 92.4691821,8.37929283 C92.7818525,7.97500444 93.0847048,7.56226135 93.3800047,7.14490661 C93.4948015,6.98273009 93.5824097,6.94737407 93.7523393,7.08649231 C94.1103242,7.38010099 94.4879455,7.64911418 94.8580144,7.92735067" id="Fill-31" fill="#C1E1E9"></path>
            <path d="M67.0074074,76.9703268 L67,72.6318153 C67.0274075,72.6043564 67.054815,72.5768975 67.0814818,72.5494385 C67.8570399,72.36943 68.6533389,72.3152749 69.4326008,72.151284 C74.3296543,71.115472 78.0555928,66.7815371 78.499298,61.6383264 C78.8555955,57.5088079 77.4592945,54.1214434 74.4666918,51.412162 C73.8415045,50.8454401 73.4985404,50.2642261 73.542985,49.3664715 C73.6140964,47.9462345 73.5548369,46.5191327 73.5666888,45.0950819 C73.5696518,44.7449805 73.5044664,44.352928 73.8852084,44.1241035 C75.1237311,43.9189243 76.3666982,44.0211325 77.6081839,44.0600327 C77.7467029,44.0638464 77.8748514,44.1324937 77.9696666,44.2484315 C77.9696666,45.4772187 77.9815185,46.7075315 77.9637406,47.9363187 C77.9578147,48.3245575 78.0555928,48.6159273 78.3311493,48.8958559 C80.8652319,51.4693681 82.3963482,54.6080767 82.8474608,58.2105362 C83.4770925,63.238572 82.1600511,67.7120898 78.8496695,71.5342208 C76.3370685,74.4349519 73.1918727,76.1190998 69.5163048,76.7903182 C68.6970428,76.9398168 67.8533362,77.0572801 67.0074074,76.9703268" id="Fill-32" fill="#C9C9CE"></path>
            <path d="M78.3001908,44.9419257 C76.8819833,44.9426694 75.4637759,44.943413 74.0448212,44.9441566 C73.9992413,44.9538237 73.9536614,44.9627472 73.9073343,44.9731579 C71.9010714,45.0266987 69.8948085,44.9805941 67.8877984,44.9976974 C67.2907764,45.0029028 67.021033,44.728506 67.0143081,44.1507112 C67.010572,43.8919306 67.0053416,43.6338935 67.0053416,43.3758564 C67.0053416,34.469488 67.0045943,25.5646067 67.0075832,16.6589819 C67.0075832,16.2380914 66.9590144,15.811252 67.1077095,15.4007723 C67.1488062,15.3137685 67.2108247,15.2446116 67.2915236,15.192558 C67.356531,15.165044 67.4185495,15.1300937 67.4895346,15.1174521 C69.2768646,14.7976944 69.5936822,15.0557314 69.5936822,16.8367077 C69.5936822,24.1063627 69.5936822,31.3767614 69.5936822,38.64716 C69.5936822,38.8352965 69.592935,39.0234331 69.5936822,39.2115696 C69.6004071,40.3061821 69.6213291,40.3284908 70.6905887,40.3329526 C71.4945883,40.335927 72.2985879,40.3284908 73.1025875,40.3366707 C73.4313606,40.3396452 73.7705946,40.3173365 74.0455684,40.5560393 C75.4645231,40.556783 76.8827305,40.5575266 78.300938,40.5582702 C79.3597367,40.5671937 80.4185354,40.5924769 81.4773341,40.5768608 C81.8785867,40.5716554 82.0078543,40.6995585 81.999635,41.0981403 C81.9772186,42.1994454 81.9764714,43.3007506 81.999635,44.4020557 C82.0078543,44.8013811 81.8778395,44.9285405 81.4765869,44.9233352 C80.4185354,44.9084627 79.3589895,44.9330023 78.3001908,44.9419257" id="Fill-33" fill="#0E477E"></path>
            <path d="M66.7716399,73 C62.3061772,72.8735327 58.9126614,70.8447552 56.6051002,66.9197258 C55.406348,64.8811036 54.8622649,62.6440716 55.0296183,60.2820869 C55.2765937,56.7940133 56.6589187,53.8572461 59.3498448,51.6338453 C59.8238901,51.2423269 60.0716027,50.8061284 60.0701283,50.1154807 C60.0450621,38.3108582 60.0516973,26.5062357 60.0524345,14.7016132 C60.0531717,11.6027862 62.471319,8.68192219 65.4600899,8.14197506 C65.896536,8.063217 66.3270842,7.97688604 66.7716399,8.00566303 C66.9935491,8.2578403 66.9935491,8.57135798 66.9942864,8.88108923 C67.0016588,10.4979015 67.002396,12.1147137 66.9935491,13.7315259 C66.9920747,14.0389853 67.0016588,14.3562894 66.7642675,14.6001365 L66.7782751,14.6402728 C66.4782184,14.8856345 66.1191825,14.8386826 65.7734169,14.8523138 C64.9690881,14.8841199 64.919693,14.9356156 64.9005248,15.7769638 C64.8938896,16.063219 64.8983131,16.3509889 64.8983131,16.6380015 C64.8902034,25.9678032 64.9152696,35.2968476 64.8879917,44.6251347 C64.8334359,47.1347908 64.8496552,49.6467187 64.8813565,52.1578894 C64.8924151,53.0386166 64.6343811,53.5255535 63.8101468,53.9019262 C59.5695423,55.8367998 58.0169148,60.6940521 60.3053078,64.8424818 C61.3131149,66.6705777 62.8731148,67.8352883 64.8592393,68.3850802 C65.4431334,68.5471401 66.0594661,68.5531984 66.6286153,68.7856862 C66.8453639,68.9257846 66.9456285,69.1423693 66.9588989,69.3884883 C67.0149291,70.4411201 67.0090312,71.4945093 66.9633223,72.5471411 C66.9552127,72.7190457 66.8822259,72.8697463 66.7716399,73 Z" id="Fill-34" fill="#FCF0F1"></path>
            <path d="M67,14.5152819 C67.0023012,12.34402 67.0053694,10.17201 67.0076706,8 C70.8414377,8.02244585 73.9948223,11.0900453 73.9971235,14.8160562 C74.0017259,23.1973364 73.9994247,31.5778683 73.9994247,39.9584002 C72.6424951,39.9673785 71.2847985,39.9434363 69.9301701,39.9980545 C69.3057831,40.022745 69.176917,39.8147468 69.1784511,39.2408812 C69.1991617,32.9769929 69.1914911,26.7131045 69.1914911,20.4492162 C69.1914911,18.6767423 69.177684,16.9035202 69.2006958,15.1310463 C69.2068323,14.6791366 69.0902392,14.492836 68.5977865,14.5257566 C68.0677479,14.5609217 67.5331069,14.5220156 67,14.5152819" id="Fill-35" fill="#E5E5EA"></path>
            <path d="M67.2835294,72.988601 C67.2835294,71.863467 67.2768842,70.738333 67.2879595,69.613199 C67.290913,69.3191639 67.2768842,69.0528822 67,68.8826119 C67.0664522,68.7700985 67.1742524,68.7243431 67.2916513,68.6958397 C70.6784986,68.555573 73.0323833,66.8626213 74.3016203,63.7077455 C75.7731674,60.0503098 73.9221044,55.6037802 70.3152265,54.0916 C69.4572548,53.7315571 69.1537897,53.2545003 69.1766788,52.337141 C69.2305789,50.2031368 69.1862775,48.0661323 69.201783,45.931378 C69.203998,45.6035889 69.0755238,45.1970405 69.5126316,45.0042676 C71.0107596,45.0215196 72.5088876,44.9690134 74.0062772,45.0320209 L74.0129224,45.0785264 C74.0129224,46.736974 74.1015254,48.4021723 73.9796963,50.0516188 C73.9065989,51.0417367 74.3754561,51.5615487 75.0008452,52.1173649 C77.3030448,54.1636086 78.6143683,56.7244137 78.9311238,59.8327839 C79.2626464,63.0791706 78.3921226,65.953513 76.4332593,68.4903152 C74.542325,70.9393569 72.0451989,72.3727777 69.0157168,72.8468341 C68.4412744,72.9368449 67.8683088,73.0336064 67.2835294,72.988601" id="Fill-36" fill="#E5E5EA"></path>
            <path d="M74,44.7201901 C72.4325313,44.7373436 70.8650625,44.754497 69.2983448,44.7709047 C68.6171306,45.1594681 67.8788355,44.9215569 67.1660766,44.9692883 C66.456322,44.9126073 65.7112674,45.1803505 65.0413191,44.7477848 C65.0323063,43.8058357 65.0157829,42.8638865 65.0157829,41.9211916 C65.0135297,33.2221457 65.0217914,24.5238457 65,15.8247998 C64.9985085,15.1834093 65.1562317,14.9335653 65.8171673,15.0148578 C66.2617966,15.0700472 66.717692,15.0364861 67.1683298,15.0424525 C67.1660766,24.6789727 67.1668277,34.3147471 67.1503043,43.9512672 C67.1495533,44.4725835 67.2907531,44.644864 67.8292654,44.6359144 C69.6318169,44.6053364 71.4358705,44.6217441 73.2391731,44.6277105 C73.4937835,44.6292021 73.7634151,44.5553676 74,44.7201901" id="Fill-37" fill="#012A60"></path>
            <path d="M64.6666997,45 L66.7660419,45.0188917 C67.0131109,45.2916877 66.9959946,45.6347607 66.9967388,45.9664987 C67.0012039,53.3168766 67.0012039,60.6672544 66.9959946,68.0176322 C66.9959946,68.3486146 67.0190643,68.693199 66.7719954,68.9675063 C66.6752515,68.9780856 66.5792518,68.9894207 66.4825079,69 C61.9080108,68.6984887 58.6536956,65.0425693 59.0295084,60.4216625 C59.2788099,57.3506297 60.9115489,55.1214106 63.7208423,53.8949622 C64.4300493,53.5858942 64.6845601,53.2511335 64.6659555,52.4486146 C64.6086534,49.9670025 64.6585137,47.4831234 64.6666997,45" id="Fill-38" fill="#1FC7D1"></path>
            <path d="M67.0061279,68.9816525 C67.0045959,60.9877683 67.002298,52.9938842 67,45 C67.7269229,45.0015134 68.4538458,45.0030268 69.1807687,45.0045403 C69.1807687,47.6151897 69.1930245,50.2250824 69.1700448,52.8349751 C69.1654489,53.3117023 69.2971989,53.5356885 69.7705796,53.7157855 C73.1585459,55.0037058 75.1531794,58.0517336 74.9907898,61.6188644 C74.8437201,64.8462325 72.4530706,67.7588091 69.1539591,68.729668 C68.4530798,68.9362499 67.7399447,69.0459728 67.0061279,68.9816525" id="Fill-39" fill="#1DBDBD"></path>
        </g>
    </g>
</svg>