<?xml version="1.0" encoding="UTF-8"?>
<svg width="176px" height="134px" viewBox="0 0 176 134" version="1.1" xmlns="http://www.w3.org/2000/svg" xmlns:xlink="http://www.w3.org/1999/xlink">
    <title>atoms/img/ilustraciones/base/white/correos_frio</title>
    <g id="UI-KIT" stroke="none" stroke-width="1" fill="none" fill-rule="evenodd">
        <g id="Correos_web_UIkit_Illustrations" transform="translate(-760.000000, -8707.000000)">
            <g id="ELIPSE-BASE" transform="translate(0.000000, 8344.000000)">
                <g id="Group" transform="translate(760.000000, 336.000000)">
                    <g id="Group-3" transform="translate(0.000000, 27.000000)">
                        <path d="M66.9086119,10.094302 C-10.0609161,-2.95078 -28.5391776,90.6889068 53.6100306,127.346897 C135.759239,164.003924 207.286691,38.6848376 161.863327,6.98328497 C131.715647,-14.0589409 110.478863,20.1275728 66.9086119,10.094302" id="Fill-1" fill="#FFFFFF"></path>
                        <path d="M118,96 L145.99404,96 C145.99404,95.9740602 146,95.9470828 146,95.9242557 C146,92.7212068 143.48001,90.1230745 140.369009,90.1230745 C139.844549,90.1230745 139.333002,90.2008939 138.849267,90.3420065 C138.299975,86.197861 134.848274,83 130.668488,83 C126.108269,83 122.408244,86.8110783 122.408244,91.5082608 C122.408244,91.5248623 122.411224,91.5445766 122.411224,91.5642908 C120.129625,91.8330274 118.317854,93.6674914 118,96" id="Fill-3" fill="#F3F2F2"></path>
                        <path d="M39.9633823,85.8176459 C39.6492188,86.0652651 39.4785868,86.0260084 39.2567652,85.7220206 C38.5882894,84.803011 37.9218209,83.8809817 37.2091815,82.9972026 C36.8920068,82.6046355 37.033531,82.4214375 37.3607429,82.1828776 C38.1777689,81.5859743 38.9686983,80.9518275 39.7927504,80.3649901 C40.1079176,80.1405223 40.2394046,79.904982 40.2343861,79.5104018 C40.2113006,77.9280546 40.2072857,76.3436942 40.2363935,74.7603404 C40.2444232,74.3335495 40.1039028,74.1302199 39.7094418,74.0255353 C39.4504827,73.9560812 39.1925273,73.8493835 38.9616723,73.7124883 C38.6736053,73.5413693 38.4849065,73.6017642 38.2580663,73.8322716 C37.0997763,75.0150057 35.9314491,76.1886805 34.7520811,77.3502764 C34.5111889,77.5878298 34.4670253,77.8173305 34.5212261,78.1424566 C34.6988841,79.2144666 34.830371,80.2935228 35,81.3665394 C35.0501852,81.6866325 34.9447948,81.8225211 34.6356499,81.863791 C33.4884007,82.0137717 32.3411516,82.169792 31.19591,82.3338649 C30.8175085,82.3882203 30.6147576,82.3197727 30.5726014,81.8658042 C30.4983263,81.0555055 30.3246832,80.254266 30.2333449,79.444974 C30.1821553,78.9889922 30.0456497,78.7635178 29.5277315,78.7343269 C28.7438281,78.6900373 27.9679545,78.5169052 27.1840511,78.4303391 C26.6641255,78.3729639 26.56275,78.1354105 26.6530846,77.6391655 C26.8287352,76.6678136 26.957211,75.6874026 27.0605939,74.7049783 C27.1198132,74.1533713 27.2643485,73.8725348 27.9087352,74.0013774 C28.8251293,74.1835688 29.7626014,74.2530229 30.6830103,74.419109 C31.1467278,74.5026553 31.4669137,74.3969642 31.7951293,74.0547262 C32.8389955,72.9676174 33.9059472,71.9016469 34.9879547,70.8537948 C35.3191815,70.5326951 35.3332335,70.2790364 35.2047577,69.8280875 C34.9317465,68.8708279 34.4027874,68.6040836 33.441226,68.6785707 C32.1655011,68.7772157 30.8767278,68.7238669 29.5939769,68.6916562 C29.117211,68.6805838 28.8201107,68.8496896 28.5521181,69.2301777 C27.9820066,70.0364501 27.3536794,70.8024591 26.786579,71.6107446 C26.5406682,71.9610352 26.3860957,72.0697461 25.9996645,71.7526727 C25.1605567,71.0631639 24.2863187,70.414925 23.3960213,69.7948703 C22.9784748,69.5049746 22.9162443,69.2815134 23.2494786,68.8798871 C23.7543485,68.272918 24.178921,67.5975014 24.693828,67.0005981 C25.0260585,66.6160837 24.9768764,66.3493394 24.6817834,65.9869698 C24.1518206,65.3357111 23.6780659,64.6401628 23.1531217,63.9838712 C22.9323038,63.7070611 22.942341,63.5550672 23.2354265,63.3416718 C24.1939767,62.6451169 25.1424898,61.9344699 26.0719322,61.2006714 C26.3660214,60.9671444 26.5105567,61.0214998 26.7102965,61.2952902 C27.3225642,62.1327666 27.9709657,62.9440718 28.5711887,63.7906075 C28.8110772,64.1288191 29.0680289,64.2707472 29.4865791,64.2647077 C31.0403338,64.2425629 32.5960959,64.2425629 34.1498506,64.2647077 C34.5814491,64.2707472 34.8574714,64.1751219 34.9457986,63.712094 C35.0451666,63.1937042 35.6845346,62.7649002 34.9919696,62.1428324 C33.8918952,61.1543687 32.8660959,60.0783323 31.8443115,59.0033025 C31.4769509,58.6157683 31.110594,58.5060509 30.6017092,58.5966433 C29.6802966,58.7607162 28.7488467,58.8583546 27.8264303,59.0143749 C27.3647203,59.0918817 27.1509285,58.9459273 27.0927129,58.4748468 C26.9541998,57.3726393 26.8006311,56.2714384 26.6249805,55.1742638 C26.5517091,54.7102294 26.8096645,54.6276896 27.1599619,54.5823934 C27.9659471,54.4777089 28.7689211,54.3418203 29.5779174,54.2713595 C30.0034936,54.234116 30.1701107,54.0730628 30.2172854,53.6482851 C30.3156497,52.7655125 30.4842743,51.8907926 30.5906683,51.0090266 C30.630817,50.6808808 30.7321925,50.6084069 31.0584007,50.658736 C32.2498134,50.8429405 33.4472483,50.9999673 34.6446833,51.1469283 C34.9728989,51.1871916 35.0511889,51.3220736 35.0020067,51.6351207 C34.8343859,52.7081373 34.7089212,53.7882001 34.5222298,54.8581969 C34.4579919,55.2235863 34.5423041,55.4581199 34.7952409,55.7077523 C35.9404826,56.8351244 37.0817094,57.9645096 38.1938284,59.1230858 C38.4989585,59.4401591 38.7187726,59.3364812 39.0821184,59.2559546 C40.1249808,59.0254473 40.3046463,58.39734 40.2444232,57.4451132 C40.1641258,56.1627275 40.2082894,54.8722891 40.2333823,53.585877 C40.2424158,53.1480138 40.1229734,52.8591247 39.7495905,52.5994265 C38.9195161,52.0226549 38.1376202,51.3774357 37.3145719,50.7885851 C36.9773228,50.5470053 36.9381778,50.3607876 37.2021555,50.0255958 C37.8886983,49.1518824 38.5531592,48.259044 39.2015607,47.3561397 C39.4544976,47.0048426 39.6462076,46.9273357 40.0195905,47.2293104 C40.6090236,47.7056754 41.2227341,48.1514655 41.834892,48.5989542 L42.4455757,49.0483051 L42.4455757,49.0483051 C43.2696278,48.4212044 44.1017096,47.8031629 44.9147207,47.1609635 C45.2128248,46.9264298 45.3955014,46.9395154 45.6253527,47.2575953 C46.3048695,48.1987497 46.9984383,49.1308448 47.7201112,50.0397886 C47.9991446,50.3910858 47.9037915,50.5692508 47.5896279,50.7987516 C46.7535312,51.409747 45.9445349,52.0599991 45.1004085,52.6599221 C44.7842375,52.8843899 44.6577691,53.1169104 44.6647951,53.510484 C44.6878806,55.0686733 44.689888,56.6288757 44.6637914,58.187065 C44.6567654,58.6219085 44.7551297,58.885633 45.2078063,58.9762254 C45.4205944,59.0195084 45.6474345,59.0950021 45.8200739,59.2218315 C46.1884383,59.4905889 46.4102598,59.3446345 46.6862821,59.0607783 C47.7181037,57.9958143 48.7519327,56.9308504 49.8349439,55.9192352 C50.271561,55.5095563 50.3829737,55.0877983 50.2906317,54.5412242 C50.1471001,53.6896557 50.0286614,52.8350674 49.888141,51.9834988 C49.802825,51.4661156 49.8138659,51.1379698 50.5224904,51.0926736 C51.6235685,51.0222128 52.7176206,50.8118371 53.8076578,50.6205865 C54.1860593,50.5541521 54.2673604,50.662863 54.3085128,51.0141601 C54.4118957,51.8949196 54.5905574,52.7676264 54.6818957,53.6493924 C54.7280667,54.1003412 54.9629366,54.2160981 55.3443493,54.2593812 C56.1744236,54.3539999 57.0024906,54.4778095 57.8335687,54.5694085 C58.1587731,54.6046389 58.340446,54.71033 58.2852415,55.0757194 C58.1045724,56.2705324 57.9188847,57.4643389 57.7602973,58.6621718 C57.708104,59.0607783 57.5575464,59.1080877 57.1811523,59.0396401 C56.1894794,58.8604685 55.1857619,58.750751 54.1890704,58.6007702 C53.8066541,58.5433951 53.4944979,58.560507 53.1883641,58.8785869 C52.0933083,60.0190446 50.9761707,61.1393706 49.8399625,62.2395649 C49.5298138,62.5395264 49.6030852,62.7690272 49.6884012,63.1394494 C49.9122302,64.1087881 50.4803343,64.3080914 51.3866912,64.2527293 C52.6644236,64.1742159 53.9521931,64.2034068 55.2339403,64.2466899 C55.7709292,64.2648083 56.09513,64.0755709 56.3882155,63.6507932 C56.9081411,62.8988763 57.5163939,62.2083609 58.0102229,61.4423518 C58.3514869,60.9149027 58.6124534,60.9964359 59.0249813,61.3276014 C59.8510408,61.9919457 60.7092193,62.6180398 61.5573606,63.256213 C61.6878439,63.354858 61.7932342,63.5219507 62,63.4696084 L62,63.7665501 C61.6276208,64.518467 61.0886245,65.1576468 60.5707063,65.8048791 C60.1882899,66.2830057 60.1431226,66.6544345 60.5516357,67.1547059 C61.0876208,67.8140172 61.6597398,68.4612496 62,69.2604758 L62,69.40945 C60.9571375,70.1965973 59.8972118,70.9626063 58.880446,71.7829708 C58.5020445,72.0879653 58.3394423,72.0094518 58.0895166,71.6561415 C57.5043493,70.8307441 56.8669887,70.0425902 56.2757991,69.2212191 C56.055985,68.9162247 55.8291448,68.7602045 55.4296653,68.766244 C53.8508176,68.7904019 52.27197,68.7863756 50.6931224,68.7682571 C50.2916354,68.7642308 50.0226391,68.8467705 49.9604086,69.2886601 C49.8901484,69.7849052 49.2106316,70.1865315 49.8600369,70.7935005 C51.014312,71.8725567 52.1093678,73.0150275 53.2144607,74.1464259 C53.4663938,74.4051175 53.7123046,74.4846375 54.0666169,74.4252491 C55.1335686,74.2480907 56.20855,74.1252876 57.2734943,73.9360502 C57.6237917,73.8736421 57.7020817,73.9924188 57.7442378,74.2863408 C57.9178809,75.5063184 58.0985501,76.7262961 58.287249,77.943254 C58.3484757,78.3368276 58.0975464,78.3992357 57.8134943,78.4374858 C57.0095166,78.5482099 56.2075463,78.6981906 55.3995537,78.7444934 C54.8956875,78.7736843 54.720037,78.9729876 54.6648325,79.4420549 C54.5684756,80.2734918 54.4028623,81.0978826 54.3135314,81.9303261 C54.2733827,82.3027615 54.2101485,82.4376435 53.7835686,82.3661762 C52.5961708,82.1688861 51.3987358,82.0168922 50.2023045,81.8830167 C49.7586614,81.8336942 49.8399625,81.5478248 49.8710778,81.2961793 C49.9764681,80.4405844 50.0577692,79.5769369 50.2414495,78.7364407 C50.4050555,77.9845238 50.2625276,77.4429826 49.6733454,76.9084874 C48.6505573,75.9814252 47.6910033,74.9798759 46.7374717,73.9773201 C46.4112635,73.6330689 46.1472858,73.5374436 45.7447951,73.8202932 C45.5480665,73.9571884 45.3001483,74.0417413 45.0632709,74.093077 C44.7240144,74.1645443 44.6657988,74.3608279 44.6678062,74.6718618 C44.6808546,76.3045381 44.682862,77.9372145 44.6668025,79.5698908 C44.6647951,79.9010564 44.7661706,80.1033794 45.0411892,80.2986563 C45.8833081,80.9005925 46.6933082,81.5488314 47.5284011,82.1608334 C47.8756874,82.4154987 48.0272487,82.602723 47.677955,83.0244809 C46.9713379,83.8800758 46.3229364,84.7849932 45.6785498,85.6899106 C45.4205944,86.0512736 45.222862,86.1046225 44.8615237,85.8086873 C44.0786241,85.1695076 43.2595906,84.5746175 42.4546092,83.9626156 C41.6225274,84.5775366 40.7763935,85.1774596 39.9633823,85.8176459 Z M42.3869313,62.9622701 L42.419479,62.9279665 C42.1946463,63.2108161 41.8473601,63.1876647 41.5452411,63.2702045 C40.0075459,63.6869295 38.9797392,65.1756646 39.1001853,66.8174002 C39.2156128,68.3997474 40.4712634,69.6599883 42.0812263,69.8109756 C42.2816594,69.8303192 42.4982086,69.8018793 42.6653032,69.9299748 C42.845472,69.836105 43.0532971,69.8039118 43.2505571,69.7446419 C44.722007,69.298726 45.8260962,67.8623331 45.7779178,66.4551312 C45.7247208,64.8909025 44.6657988,63.6276418 43.0799252,63.2552064 L42.8973462,63.2138293 C42.6971913,63.1676411 42.5085482,63.1116529 42.3869313,62.9622701 Z" id="Combined-Shape" fill="#C3E4EB"></path>
                        <path d="M63.9580726,35 C63.9830294,34.6994732 64,34.3948436 64,34.0871369 C64,27.8622313 59.0335957,22.8117395 52.9062008,22.8117395 C52.8522941,22.8117395 52.7943943,22.8189193 52.7374928,22.8189193 C52.037704,17.2801995 47.3827606,13 41.7435208,13 C36.8729507,13 32.7411019,16.1888666 31.2516798,20.6270222 C26.9002112,21.0024244 23.4521789,24.5831041 23.2006143,29.0376708 C22.7523901,28.9822836 22.2901901,28.9494615 21.8289883,28.9494615 C17.5573815,28.9494615 13.8527932,31.4039349 12,35 L63.9580726,35 Z" id="Fill-9" fill="#F3F2F2"></path>
                        <polygon id="Fill-11" fill="#DACC92" points="54 100 125 100 125 38 54 38"></polygon>
                        <polygon id="Fill-13" fill="#C4BDA4" points="54 41 125 41 125 38 54 38"></polygon>
                        <polygon id="Fill-14" fill="#FFCD00" points="73 73 105 73 105 41 73 41"></polygon>
                        <path d="M49.0227338,77.1254167 C49.3543196,77.5836664 49.691971,78.0378607 50.0427644,78.480903 C50.1792403,78.6522397 50.1327374,78.7394287 49.9800866,78.8509497 C49.57167,79.1480009 49.1784174,79.4653286 48.765957,79.7573107 C48.6122953,79.866804 48.5516394,79.9803525 48.5546722,80.1719658 C48.5657925,80.9313219 48.5668034,81.6906781 48.5546722,82.4500342 C48.5506285,82.661924 48.5981423,82.79068 48.8185255,82.8342745 C48.9226515,82.8555649 49.0328432,82.8930765 49.1177615,82.9539061 C49.2966965,83.0857035 49.4048662,83.0147357 49.5393202,82.8758414 C50.0427644,82.3567622 50.5462087,81.8386968 51.0729044,81.3449632 C51.2862111,81.1462532 51.3397905,80.9404464 51.2953095,80.67381 C51.2255551,80.2591549 51.167932,79.8424721 51.0991886,79.427817 C51.0577404,79.1753742 51.0627951,79.0162034 51.4085339,78.9938992 C51.9453389,78.9594291 52.4781002,78.8570326 53.0088396,78.7637606 C53.1928292,78.7313181 53.2332665,78.7840371 53.2524742,78.9553738 C53.3030209,79.3842225 53.389961,79.8100297 53.434442,80.2398922 C53.4576935,80.4598925 53.5719288,80.515653 53.7569294,80.5369434 L54.9700481,80.6880035 L54.9700481,80.6880035 C55.1287645,80.7052386 55.2167156,80.7569437 55.1904313,80.9343634 C55.1024802,81.5162999 55.0114963,82.0982364 54.9346655,82.6811867 C54.9093922,82.8758414 54.8355941,82.8991594 54.6526154,82.8657031 C54.1693898,82.7785141 53.6800986,82.7247812 53.1948511,82.6517857 C53.0088396,82.6233986 52.8561888,82.632523 52.7075818,82.7866247 C52.1738096,83.3432155 51.629928,83.8886542 51.0759372,84.4239547 C50.9242973,84.5709595 50.9606909,84.6824805 51.0021391,84.8629416 C51.1103089,85.3353848 51.3883152,85.4327122 51.8290817,85.4053389 C52.4518159,85.3668134 53.0796048,85.3820208 53.70335,85.4022974 C53.9651815,85.4114218 54.1228869,85.3191636 54.2664393,85.112343 C54.5191723,84.7463515 54.8153755,84.4097611 55.0569883,84.0356591 C55.2227812,83.7791609 55.3501586,83.8187002 55.5503232,83.9798986 C55.9526742,84.3043231 56.3712002,84.6084711 56.7846714,84.9197159 C56.8483602,84.9683796 56.8989068,85.0494857 57,85.02414 L57,85.1681034 C56.8180322,85.5351087 56.5562008,85.8463534 56.3034677,86.1616535 C56.1164452,86.3948337 56.0952157,86.5752948 56.2943693,86.819627 C56.5551898,87.1399962 56.8342071,87.4552963 57,87.8456196 L57,87.9176013 C56.492512,88.3008277 55.9749147,88.6739159 55.4805689,89.0733636 C55.2955683,89.2223961 55.2167156,89.1838707 55.0943928,89.012534 C54.8093099,88.6100448 54.4989537,88.2258046 54.210838,87.8263569 C54.1036792,87.6773243 53.9934876,87.6012873 53.7983776,87.6043288 C53.0300692,87.6154809 52.2607497,87.6144671 51.4914303,87.6053427 C51.2963204,87.603315 51.1648992,87.6438681 51.1345712,87.8587993 C51.1259783,87.919122 51.0988095,87.9765933 51.0678339,88.0334943 L51.005183,88.1472119 C50.9363794,88.2805723 50.9004562,88.4191075 51.0850356,88.591796 C51.6481248,89.1169582 52.181897,89.673549 52.719713,90.2250707 C52.8420358,90.351799 52.9623367,90.3893106 53.1352061,90.3609234 C53.6548253,90.2747482 54.1784882,90.2149324 54.6970964,90.1226742 C54.8679439,90.0922594 54.9063594,90.1500475 54.926578,90.2940109 C55.0114963,90.8881133 55.0994474,91.4822157 55.1914423,92.0753043 C55.2207593,92.2669175 55.0994474,92.2973323 54.9599388,92.316595 C54.568708,92.369314 54.1774772,92.4433233 53.7842246,92.4656275 C53.5385681,92.4798211 53.4536498,92.5771485 53.4263546,92.8052595 C53.3788408,93.2107901 53.2989771,93.6122655 53.2544961,94.0177961 C53.2352884,94.1992711 53.2049604,94.264156 52.9977193,94.2296859 C52.4184552,94.1333723 51.8351473,94.0603768 51.2518394,93.9944781 C51.0365108,93.9701463 51.0759372,93.831252 51.0911012,93.708579 C51.1426587,93.2918962 51.1820851,92.8711582 51.2710471,92.4615722 C51.3519217,92.0955808 51.2811564,91.8309721 50.9950626,91.5714324 C50.4956621,91.1192658 50.0286114,90.6316152 49.5645935,90.1429507 C49.4058771,89.9756693 49.2764778,89.9290333 49.080357,90.0658999 C48.9853293,90.1328125 48.8640175,90.1743793 48.7487712,90.1987112 C48.5829783,90.2341951 48.5546722,90.3294948 48.5556831,90.4815688 C48.5627597,91.2764089 48.5627597,92.0722628 48.5556831,92.8671029 C48.5546722,93.0293151 48.6042079,93.1276563 48.7376509,93.222956 C49.1480894,93.5159519 49.542353,93.831252 49.9497587,94.129317 C50.1185844,94.2540177 50.1923824,94.3452621 50.0225458,94.5510689 C49.6778179,94.9677517 49.3624071,95.4087663 49.0480071,95.848767 C48.9226515,96.0251728 48.826613,96.0505185 48.6507108,95.907569 L48.2640105,95.6018439 L48.2640105,95.6018439 L47.4780294,95.0072909 L47.4780294,95.0072909 C47.4777261,95.0064216 47.4777261,95.0067549 47.4777261,95.0070881 C47.0723423,95.3071808 46.6598819,95.5991629 46.2646074,95.9114215 C46.1109457,96.0320669 46.0280493,96.0128042 45.9198796,95.8647855 C45.5943594,95.4166741 45.2698501,94.9685627 44.9220895,94.5376864 C44.7674168,94.3460732 44.8371711,94.2568564 44.9958875,94.1402664 C45.3941948,93.8492981 45.77936,93.5410948 46.1807001,93.2551957 C46.3343618,93.1457024 46.3990614,93.03114 46.3960286,92.838513 C46.3849084,92.0669909 46.3828865,91.2954688 46.3970396,90.5249606 C46.4010833,90.3171261 46.3333508,90.2177711 46.1412737,90.166066 C46.0138963,90.1326097 45.8885407,90.0809045 45.7763272,90.013992 C45.6358076,89.9308582 45.5438128,89.9602592 45.4336212,90.0727939 C44.869521,90.6486474 44.3003661,91.2204457 43.7251457,91.7861609 C43.6078776,91.9017372 43.586648,92.0142719 43.6129322,92.1724289 C43.6998724,92.6945496 43.7635611,93.2197118 43.8464576,93.7428463 C43.8707199,93.8989756 43.8191624,93.9648744 43.6685335,93.9851509 C43.109488,94.0581464 42.5504425,94.1341834 41.9924079,94.2142757 C41.8084182,94.2406352 41.7093468,94.2071789 41.6891282,93.9861647 C41.6527346,93.5907723 41.5688273,93.2014629 41.5243462,92.8070843 C41.4990729,92.5850563 41.4323514,92.4745492 41.1796184,92.4603556 C40.797486,92.4390653 40.4193973,92.3549177 40.0392868,92.3123369 C39.7855428,92.2849636 39.7360071,92.1683736 39.7794772,91.9270828 C39.8654065,91.4536258 39.9280843,90.9761134 39.9786309,90.4975873 C40.006937,90.2289232 40.0777022,90.0920566 40.3910912,90.1539 C40.8379233,90.2441306 41.2948646,90.2775869 41.7437185,90.3576792 C41.9691564,90.3982323 42.12484,90.3475409 42.2845673,90.1802595 C42.7940771,89.651042 43.3126854,89.1319628 43.840392,88.6209942 C44.0011302,88.4648649 44.0082067,88.341178 43.9455289,88.1221915 C43.8130968,87.6548174 43.5553091,87.5250476 43.0872475,87.5615453 C42.4655241,87.6091952 41.8377352,87.5838495 41.2129791,87.5676283 C40.9804647,87.5625592 40.8359014,87.6446791 40.7044802,87.8302094 C40.4274848,88.2225603 40.1211723,88.5966623 39.8451878,88.9900271 C39.7248869,89.1603499 39.649067,89.2140828 39.4610336,89.0589673 C39.052617,88.7233907 38.6270145,88.4080906 38.1933246,88.1049564 C37.9901272,87.9640345 37.9597992,87.8555551 38.1225593,87.6598865 C38.3672049,87.3638491 38.574446,87.0353693 38.8251572,86.7433872 C38.9869064,86.5568431 38.9636549,86.4260595 38.8190916,86.2506675 C38.5613039,85.9333398 38.3308114,85.5937078 38.0750455,85.2743525 C37.9668758,85.1395135 37.9719304,85.0655042 38.1144719,84.9620939 C38.5815225,84.6224619 39.0445295,84.2757332 39.4964162,83.9178524 C39.6399686,83.8053177 39.7107338,83.8306633 39.8077833,83.9644884 C40.1060083,84.3720468 40.4214192,84.7674391 40.7135786,85.1800666 C40.8308467,85.3453203 40.9562023,85.4142605 41.1604106,85.4112191 C41.916588,85.400067 42.6747871,85.4010808 43.4319754,85.4112191 C43.6422493,85.4142605 43.7767032,85.3676245 43.8201733,85.1415412 C43.8686981,84.8890983 44.1800652,84.6802501 43.8424138,84.3771159 C43.3056088,83.8955482 42.8062083,83.3713999 42.3088297,82.8482653 C42.1298947,82.6586797 41.9509596,82.6059608 41.7032813,82.6495553 C41.2544273,82.7296476 40.8005188,82.7772975 40.3516649,82.8533345 C40.126227,82.890846 40.022101,82.8198782 39.9937949,82.5907534 C39.9270733,82.0534252 39.8512534,81.517111 39.7663351,80.9828243 C39.7299416,80.756741 39.8563081,80.7161879 40.0271556,80.6938837 L40.8114893,80.585592 C40.9423863,80.5688451 41.0734705,80.5539757 41.2048917,80.5428236 C41.4121328,80.5245747 41.4930074,80.4454962 41.5162588,80.2386756 C41.5637726,79.8088131 41.6456581,79.3830059 41.6982266,78.9531434 C41.7174343,78.7929588 41.76697,78.7584887 41.9256863,78.7828205 C42.5059614,78.8720373 43.0892693,78.9490881 43.6725772,79.020056 C43.8323045,79.0403325 43.8717309,79.1062312 43.8474685,79.2583052 C43.765583,79.7814398 43.7039161,80.3076158 43.6139432,80.8287227 C43.5826043,81.0061423 43.6230415,81.1207047 43.7463753,81.2423639 C44.3044099,81.7908441 44.8604226,82.341352 45.4022823,82.9060534 C45.5508893,83.0611689 45.6580481,83.0104776 45.8349612,82.9709383 C46.3424492,82.8584036 46.4304003,82.5522279 46.4010833,82.0889092 C46.3616569,81.464392 46.3838974,80.8358195 46.3960286,80.2092746 C46.4000724,79.9953572 46.3414383,79.8544353 46.1604814,79.7287208 C45.7561085,79.446877 45.3739762,79.1325907 44.973647,78.8456778 C44.809876,78.7280739 44.7906683,78.6378433 44.9190567,78.4736034 C45.2536752,78.04881 45.5771735,77.6138784 45.8935953,77.1738777 C46.0159181,77.002541 46.1099348,76.9650294 46.2919026,77.1120342 C46.5466575,77.318179 46.8112971,77.5126084 47.0765358,77.706437 L47.4739857,77.9983215 L47.4739857,77.9983215 C47.8753258,77.6921458 48.2807096,77.3910393 48.676995,77.0787807 C48.8215583,76.9642183 48.9105204,76.9703013 49.0227338,77.1254167 Z M47.4437598,84.7755777 L47.4605403,84.7593285 C47.3503487,84.8982228 47.1825339,84.8860569 47.0349378,84.9266099 C46.285837,85.1293752 45.7854256,85.8552751 45.8430487,86.6541705 C45.8996609,87.4256926 46.5112749,88.0400715 47.2957583,88.113067 L47.4379682,88.1216481 C47.488505,88.126888 47.5370028,88.1386408 47.5792194,88.1704882 L47.5012808,88.2237769 C47.5533438,88.1786616 47.6129888,88.1523021 47.6752875,88.1325325 L47.8652164,88.0808273 L47.8652164,88.0808273 C48.5819674,87.8638684 49.1207943,87.1633142 49.0975428,86.4779674 C49.0712586,85.7165836 48.5546722,85.100177 47.78232,84.9187021 C47.6537118,84.8886564 47.5208782,84.8713236 47.4437598,84.7755777 Z" id="Combined-Shape" fill="#1ECAD3"></path>
                        <g id="Group" transform="translate(118.000000, 25.000000)">
                            <path d="M10.5530887,2.1534218 C8.43650314,1.71738622 6.56957124,3.34051868 6.56758197,5.39368623 L6.56758197,27.4634873 C6.56758197,28.3125566 6.15978118,29.0986207 5.44264857,29.6316642 C3.97953892,30.7207531 2.81183617,32.2038741 2.34734112,33.9740186 C1.51582537,37.1352766 2.60296259,40.2955345 5.01992824,42.225692 C6.89481724,43.7228142 9.34560051,44.2618582 11.7426734,43.7008124 C14.5226813,43.0517594 16.7337572,40.8625807 17.4111044,38.0753533 C18.1968669,34.8430895 16.9893787,31.5448204 14.3337004,29.6706674 C13.5847394,29.1416242 13.1550567,28.3415589 13.1550567,27.4734881 L13.1550567,5.48869399 C13.1550567,3.90756495 12.0927853,2.47044767 10.5530887,2.1534218" id="Fill-17" fill="#F3F2F2"></path>
                            <path d="M10.3979255,0.0262482104 C13.1848957,0.300270573 15.225889,2.81847608 15.225889,5.63370582 L15.225889,27.4734881 C15.225889,27.7285089 15.4347625,27.9025231 15.5232851,27.9655283 L15.5232851,27.9665283 C19.0214202,30.4357298 20.5362509,34.8480899 19.286988,39.0774351 C18.2933466,42.4407095 15.6128024,44.9359132 12.2131363,45.7289779 C11.4343363,45.9109927 10.650563,46 9.8747469,46 C7.64775674,46 5.49337501,45.2619398 3.73286917,43.855825 C1.36066214,41.9616704 0,39.1294393 0,36.087191 C0,32.8629279 1.56655181,29.8296804 4.1913964,27.9725288 C4.28389755,27.9075235 4.49774431,27.7275088 4.49774431,27.4634873 L4.49774431,5.39368623 C4.49873894,2.24142899 7.20116515,-0.286777335 10.3979255,0.0262482104 Z M6.56758197,5.39368623 L6.56758197,27.4634873 C6.56758197,28.3125566 6.15978118,29.0986207 5.44264857,29.6316642 C3.97953892,30.7207531 2.81183617,32.2038741 2.34734112,33.9740186 C1.51582537,37.1352766 2.60296259,40.2955345 5.01992824,42.225692 C6.89481724,43.7228142 9.34560051,44.2618582 11.7426734,43.7008124 C14.5226813,43.0517594 16.7337572,40.8625807 17.4111044,38.0753533 C18.1968669,34.8430895 16.9893787,31.5448204 14.3337004,29.6706674 C13.5847394,29.1416242 13.1550567,28.3415589 13.1550567,27.4734881 L13.1550567,5.48869399 C13.1550567,3.90756495 12.0927853,2.47044767 10.5530887,2.1534218 C8.43650314,1.71738622 6.56957124,3.34051868 6.56758197,5.39368623 Z M9.8619161,14.0406919 C10.4338318,14.0406919 10.8973322,14.5067299 10.8973322,15.0817769 L10.8973322,15.0817769 L10.8973322,28.7998963 C10.8973322,29.6849686 11.4115591,30.4800335 12.2062733,30.8600645 C14.0493339,31.7411364 15.3244574,33.6272903 15.3244574,35.8154689 C15.3244574,38.8757186 12.8358779,41.3509206 9.78234521,41.3079171 C6.96851977,41.2669137 4.56249512,38.9517248 4.40832652,36.1254942 C4.28101311,33.7993043 5.59592199,31.7701387 7.53546233,30.8520638 C8.32520337,30.4780333 8.82649995,29.677968 8.82649995,28.8008964 L8.82649995,28.8008964 L8.82649995,15.0817769 C8.82649995,14.5067299 9.29000036,14.0406919 9.8619161,14.0406919 Z M22.826301,24.5641507 C23.3992114,24.5641507 23.8617172,25.0301887 23.8617172,25.6052356 C23.8617172,26.1419461 23.4588233,26.5836977 22.9393067,26.6402125 L22.826301,26.6463206 L18.688615,26.6463206 C18.1166992,26.6463206 17.6531988,26.1802826 17.6531988,25.6052356 C17.6531988,25.0685252 18.0569592,24.6267736 18.5757826,24.5702587 L18.688615,24.5641507 L22.826301,24.5641507 Z M22.826301,20.8832503 C23.3992114,20.8832503 23.8617172,21.3492883 23.8617172,21.9243353 C23.8617172,22.4610457 23.4588233,22.9027973 22.9393067,22.9593122 L22.826301,22.9654202 L18.688615,22.9654202 C18.1166992,22.9654202 17.6531988,22.4993822 17.6531988,21.9243353 C17.6531988,21.3876248 18.0569592,20.9458732 18.5757826,20.8893583 L18.688615,20.8832503 L22.826301,20.8832503 Z M26.9635892,16.5026928 C27.5364996,16.5026928 28,16.9687308 28,17.5437778 C28,18.0795548 27.5962396,18.5221154 27.0766076,18.5787422 L26.9635892,18.5848627 L18.6892118,18.5848627 C18.1163014,18.5848627 17.6537956,18.1178246 17.6537956,17.5437778 C17.6537956,17.0070673 18.0566895,16.5653157 18.5762061,16.5088009 L18.6892118,16.5026928 L26.9635892,16.5026928 Z M22.8265994,12.1210352 C23.3985152,12.1210352 23.8620156,12.5880733 23.8620156,13.1621202 C23.8620156,13.6988307 23.4582552,14.1405823 22.9394318,14.1970971 L22.8265994,14.2032052 L18.6889134,14.2032052 C18.1169976,14.2032052 17.6534972,13.7371671 17.6534972,13.1621202 C17.6534972,12.6263431 18.0572576,12.1837826 18.576081,12.1271557 L18.6889134,12.1210352 L22.8265994,12.1210352 Z M22.8265994,8.4408349 C23.3985152,8.4408349 23.8620156,8.90687293 23.8620156,9.48191986 C23.8620156,10.0176969 23.4582552,10.4602575 22.9394318,10.5168843 L22.8265994,10.5230048 L18.6889134,10.5230048 C18.1169976,10.5230048 17.6534972,10.0559667 17.6534972,9.48191986 C17.6534972,8.9452094 18.0572576,8.50345779 18.576081,8.44694296 L18.6889134,8.4408349 L22.8265994,8.4408349 Z M26.9632908,4.05957736 C27.5362012,4.05957736 27.9997016,4.52561539 27.9997016,5.10066232 C27.9997016,5.63737279 27.5959413,6.07912439 27.0763092,6.13563923 L26.9632908,6.14174728 L18.6889134,6.14174728 C18.1169976,6.14174728 17.6534972,5.67570925 17.6534972,5.10066232 C17.6534972,4.56395185 18.0572576,4.12220025 18.576081,4.06568541 L18.6889134,4.05957736 L26.9632908,4.05957736 Z" id="Combined-Shape" fill="#002E6D"></path>
                        </g>
                        <path d="M76.964804,104 C76.9859216,103.753233 77,103.504468 77,103.252706 C77,98.159516 72.7976003,94.0284176 67.6137356,94.0284176 C67.567478,94.0284176 67.5192092,94.0334129 67.4709405,94.0334129 C66.8776368,89.5016928 62.9397097,86 58.1671352,86 C54.046189,86 50.54972,88.6085364 49.289704,92.2401066 C45.6071992,92.547816 42.690961,95.4770495 42.477774,99.1216074 C42.098663,99.0766498 41.7074849,99.0496753 41.3173123,99.0496753 C37.7021826,99.0496753 34.5667238,101.057779 33,104 L76.964804,104 Z" id="Fill-26" fill="#F3F2F2"></path>
                        <g id="atoms/ico/24px/ico_correos-copy" transform="translate(78.000000, 47.000000)" fill="#002E6D">
                            <path d="M13.7501667,8.08308333 L10.0001667,8.08308333 L6.25016667,8.08308333 L6.25016667,7.44975 L6.25016667,6.81641667 L10.0001667,6.81641667 L13.7501667,6.81641667 L13.7501667,7.44975 L13.7501667,8.08308333 Z M11.2501667,14.0989167 C11.2501667,13.3989167 10.6901667,12.8314167 10.0001667,12.8314167 C9.30933333,12.8314167 8.75016667,13.3989167 8.75016667,14.0989167 C8.75016667,14.7980833 9.30933333,15.3655833 10.0001667,15.3655833 C10.6901667,15.3655833 11.2501667,14.7980833 11.2501667,14.0989167 L11.2501667,14.0989167 Z M10.0001667,17.89975 C14.4085,17.89975 18.0643333,14.5964167 18.6626667,10.2980833 L17.3968333,10.2980833 C16.8043333,13.8939167 13.7168333,16.63225 10.0001667,16.63225 C8.61933333,16.63225 7.50183333,15.4980833 7.50183333,14.0989167 C7.50183333,12.69975 8.61933333,11.5664167 10.0001667,11.5664167 C11.381,11.5664167 12.5001667,12.6664167 12.5001667,14.0989167 C12.5001667,14.3780833 12.4443333,14.64225 12.3618333,14.8939167 C12.861,14.68725 13.3243333,14.4139167 13.7501667,14.0905833 C13.7501667,11.99975 12.0701667,10.2989167 10.0001667,10.2989167 C7.92933333,10.2989167 6.25016667,11.99975 6.25016667,14.0989167 C6.25016667,16.19725 7.92933333,17.89975 10.0001667,17.89975 L10.0001667,17.89975 Z M1.34933333,10.2980833 C1.746,13.0989167 3.4235,15.4764167 5.771,16.7930833 C5.28516667,16.01225 5.00016667,15.0905833 5.00016667,14.0989167 L5.00016667,14.0989167 L5.00016667,10.2980833 L1.34933333,10.2980833 Z M16.2501667,9.03141667 L20.0001667,9.03141667 C20.0001667,14.6289167 15.5226667,19.1664167 10.0001667,19.1664167 C4.47766667,19.1664167 0.000166666667,14.6289167 0.000166666667,9.03141667 L6.25016667,9.03141667 L6.25016667,10.7555833 C7.166,9.70058333 8.50433333,9.03141667 10.0001667,9.03141667 C12.3851667,9.03141667 14.3768333,10.72475 14.876,12.98975 C15.7351667,11.9055833 16.2501667,10.52975 16.2501667,9.03141667 L16.2501667,9.03141667 Z M13.1251667,2.06308333 C14.5051667,2.06308333 15.6251667,3.19725 15.6251667,4.59641667 L15.6251667,5.86391667 L14.3751667,5.86391667 L14.3751667,4.59641667 C14.3751667,3.89725 13.8151667,3.32975 13.1251667,3.32975 C13.0135,3.32975 12.9068333,3.34975 12.8035,3.37725 C13.0018333,3.74058333 13.1251667,4.15225 13.1251667,4.59641667 L13.1251667,5.86391667 L11.8751667,5.86391667 L11.8751667,4.59641667 C11.8751667,3.89725 11.3151667,3.32975 10.6251667,3.32975 L10.6251667,5.86391667 L9.37516667,5.86391667 L9.37516667,3.32975 C8.68433333,3.32975 8.12516667,3.89725 8.12516667,4.59641667 L8.12516667,5.86391667 L6.87516667,5.86391667 L6.87516667,4.59641667 C6.87516667,4.15225 6.99766667,3.74058333 7.19683333,3.37808333 C7.0935,3.34975 6.98683333,3.32975 6.87516667,3.32975 C6.18433333,3.32975 5.62516667,3.89725 5.62516667,4.59641667 L5.62516667,5.86391667 L4.37516667,5.86391667 L4.37516667,4.59641667 C4.37516667,3.19725 5.49433333,2.06308333 6.87516667,2.06308333 C7.33433333,2.06308333 7.76266667,2.19141667 8.13183333,2.41058333 C8.49933333,2.19558333 8.92016667,2.06308333 9.37516667,2.06308333 C9.58766667,2.06308333 9.79016667,2.09891667 9.98683333,2.14891667 C10.191,2.09475 10.4043333,2.06308333 10.6251667,2.06308333 C11.0826667,2.06308333 11.5051667,2.19641667 11.8743333,2.41391667 C12.2435,2.19641667 12.6676667,2.06308333 13.1251667,2.06308333 L13.1251667,2.06308333 Z M10.2726667,0.59725 L10.8618333,0.59725 L10.8618333,1.14975 L10.2726667,1.14975 L10.2726667,1.74641667 L9.72766667,1.74641667 L9.72766667,1.14975 L9.1385,1.14975 L9.1385,0.59725 L9.72766667,0.59725 L9.72766667,-0.00025 L10.2726667,-0.00025 L10.2726667,0.59725 Z" id="Fill-1"></path>
                        </g>
                    </g>
                </g>
            </g>
        </g>
    </g>
</svg>