<?xml version="1.0" encoding="utf-8"?>
<!-- Generator: Adobe Illustrator 25.0.0, SVG Export Plug-In . SVG Version: 6.00 Build 0)  -->
<svg version="1.1" id="Capa_1" xmlns="http://www.w3.org/2000/svg" xmlns:xlink="http://www.w3.org/1999/xlink" x="0px" y="0px"
	 viewBox="0 0 232 232" style="enable-background:new 0 0 232 232;" xml:space="preserve">
<style type="text/css">
	.st0{fill-rule:evenodd;clip-rule:evenodd;fill:#FFFFFF;}
	.st1{filter:url(#Adobe_OpacityMaskFilter);}
	.st2{mask:url(#mask-2_1_);}
	.st3{fill-rule:evenodd;clip-rule:evenodd;fill:#F3F2F2;}
	.st4{fill-rule:evenodd;clip-rule:evenodd;fill:#DACC92;stroke:#C4BDA4;stroke-width:0.5585;}
	.st5{fill-rule:evenodd;clip-rule:evenodd;fill:#C4BDA4;}
	.st6{fill-rule:evenodd;clip-rule:evenodd;fill:#FFCD00;}
	.st7{fill-rule:evenodd;clip-rule:evenodd;fill:#002E6D;}
	.st8{filter:url(#Adobe_OpacityMaskFilter_1_);}
	.st9{mask:url(#mask-2_2_);}
	.st10{fill-rule:evenodd;clip-rule:evenodd;fill:#BFB9C4;}
	.st11{fill-rule:evenodd;clip-rule:evenodd;fill:#C9C9C6;}
	.st12{fill-rule:evenodd;clip-rule:evenodd;fill:#333333;}
	.st13{fill-rule:evenodd;clip-rule:evenodd;fill:#FCBFBF;}
	.st14{fill-rule:evenodd;clip-rule:evenodd;}
	.st15{fill-rule:evenodd;clip-rule:evenodd;fill:#8E737E;}
	.st16{fill-rule:evenodd;clip-rule:evenodd;fill:#666666;}
	.st17{fill-rule:evenodd;clip-rule:evenodd;fill:#37305E;}
	.st18{fill-rule:evenodd;clip-rule:evenodd;fill:#261C42;}
</style>
<g id="UI-KIT">
	<g id="Correos_web_UIkit_54_Illustrations" transform="translate(-1072.000000, -1824.000000)">
		<g id="atoms_x2F_img_x2F_ilustraciones_x2F_big_x2F_deberías_x5F_saber" transform="translate(1072.000000, 1824.000000)">
			<g id="chica-y-caja" transform="translate(0.000000, 18.000000)">
				<g id="Path-2">
					<path id="path-1_1_" class="st0" d="M23.7,19.1c-39.8,21.7-36.2,139.1,70.3,172.1s170.7-130.6,120-166.4S63.5-2.7,23.7,19.1z"
						/>
				</g>
				<defs>
					<filter id="Adobe_OpacityMaskFilter" filterUnits="userSpaceOnUse" x="28" y="23.4" width="209.4" height="189.7">
						<feColorMatrix  type="matrix" values="1 0 0 0 0  0 1 0 0 0  0 0 1 0 0  0 0 0 1 0"/>
					</filter>
				</defs>
				<mask maskUnits="userSpaceOnUse" x="28" y="23.4" width="209.4" height="189.7" id="mask-2_1_">
					<g class="st1">
						<path id="path-1_2_" class="st0" d="M23.7,19.1c-39.8,21.7-36.2,139.1,70.3,172.1s170.7-130.6,120-166.4S63.5-2.7,23.7,19.1z"
							/>
					</g>
				</mask>
				<g id="caja-copy-2" class="st2">
					<g transform="translate(27.276892, 23.366708)">
						<path id="Fill-13" class="st3" d="M113.8,28.6c0-0.4-0.1-0.8-0.1-1.2c0-8.1,6.4-14.6,14.3-14.6c0.1,0,0.1,0,0.2,0
							c0.9-7.2,6.9-12.7,14.1-12.7c6.3,0,11.6,4.1,13.5,9.9c5.6,0.5,10,5.1,10.4,10.9c0.6-0.1,1.2-0.1,1.8-0.1
							c5.5,0,10.3,3.2,12.6,7.8H113.8z"/>
						<path id="Fill-49" class="st3" d="M173.7,47.2h36.4c0,0,0-0.1,0-0.1c0-4.1-3.3-7.5-7.3-7.5c-0.7,0-1.3,0.1-2,0.3
							c-0.7-5.3-5.2-9.4-10.6-9.4c-5.9,0-10.7,4.9-10.7,10.9c0,0,0,0,0,0.1C176.5,41.9,174.2,44.2,173.7,47.2"/>
						<polygon id="Fill-14-Copy" class="st4" points="43,189.5 152.4,189.5 152.4,94.2 43,94.2 						"/>
						<polygon id="Fill-15-Copy-2" class="st5" points="43,98.8 152.4,98.8 152.4,93.9 43,93.9 						"/>
						<polygon id="Fill-50-Copy" class="st6" points="78,141 120,141 120,99 78,99 						"/>
						<path id="Fill-13-Copy" class="st3" d="M0.8,150.6c0-0.4-0.1-0.8-0.1-1.2c0-8.2,6.5-14.9,14.5-14.9c0.1,0,0.1,0,0.2,0
							c0.9-7.3,7-12.9,14.4-12.9c6.4,0,11.8,4.2,13.7,10.1c5.7,0.5,10.2,5.2,10.5,11.1c0.6-0.1,1.2-0.1,1.8-0.1
							c5.6,0,10.4,3.2,12.9,8H0.8z"/>
						<g id="atoms_x2F_ico_x2F_24_x2F_ico_x5F_perfil-copy-2" transform="translate(88.248169, 109.664328)">
							<path id="Fill-1" class="st7" d="M15.5,9.1h-4.2H7.1V8.4V7.7h4.2h4.2v0.7V9.1z M12.7,15.9c0-0.8-0.6-1.4-1.4-1.4
								c-0.8,0-1.4,0.6-1.4,1.4c0,0.8,0.6,1.4,1.4,1.4C12.1,17.4,12.7,16.7,12.7,15.9L12.7,15.9z M11.3,20.2c5,0,9.1-3.7,9.8-8.6
								h-1.4c-0.7,4.1-4.2,7.2-8.4,7.2c-1.6,0-2.8-1.3-2.8-2.9s1.3-2.9,2.8-2.9s2.8,1.2,2.8,2.9c0,0.3-0.1,0.6-0.2,0.9
								c0.6-0.2,1.1-0.5,1.6-0.9c0-2.4-1.9-4.3-4.2-4.3c-2.3,0-4.2,1.9-4.2,4.3C7.1,18.3,9,20.2,11.3,20.2L11.3,20.2z M1.5,11.6
								c0.4,3.2,2.3,5.9,5,7.3c-0.5-0.9-0.9-1.9-0.9-3l0,0v-4.3H1.5z M18.4,10.2h4.2c0,6.3-5.1,11.5-11.3,11.5S0,16.5,0,10.2h7.1
								v1.9c1-1.2,2.5-1.9,4.2-1.9c2.7,0,4.9,1.9,5.5,4.5C17.8,13.5,18.4,11.9,18.4,10.2L18.4,10.2z M14.8,2.3
								c1.6,0,2.8,1.3,2.8,2.9v1.4h-1.4V5.2c0-0.8-0.6-1.4-1.4-1.4c-0.1,0-0.2,0-0.4,0.1c0.2,0.4,0.4,0.9,0.4,1.4v1.4h-1.4V5.2
								c0-0.8-0.6-1.4-1.4-1.4v2.9h-1.4V3.8c-0.8,0-1.4,0.6-1.4,1.4v1.4H7.8V5.2c0-0.5,0.1-1,0.4-1.4C8,3.8,7.9,3.8,7.8,3.8
								C7,3.8,6.4,4.4,6.4,5.2v1.4H4.9V5.2c0-1.6,1.3-2.9,2.8-2.9c0.5,0,1,0.1,1.4,0.4c0.4-0.2,0.9-0.4,1.4-0.4c0.2,0,0.5,0,0.7,0.1
								c0.2-0.1,0.5-0.1,0.7-0.1c0.5,0,1,0.2,1.4,0.4C13.8,2.5,14.3,2.3,14.8,2.3L14.8,2.3z M11.6,0.7h0.7v0.6h-0.7V2H11V1.3h-0.7
								V0.7H11V0h0.6V0.7z"/>
						</g>
					</g>
				</g>
				<defs>
					<filter id="Adobe_OpacityMaskFilter_1_" filterUnits="userSpaceOnUse" x="58.5" y="9.3" width="149.4" height="113.1">
						<feColorMatrix  type="matrix" values="1 0 0 0 0  0 1 0 0 0  0 0 1 0 0  0 0 0 1 0"/>
					</filter>
				</defs>
				<mask maskUnits="userSpaceOnUse" x="58.5" y="9.3" width="149.4" height="113.1" id="mask-2_2_">
					<g class="st8">
						<path id="path-1_3_" class="st0" d="M23.7,19.1c-39.8,21.7-36.2,139.1,70.3,172.1s170.7-130.6,120-166.4S63.5-2.7,23.7,19.1z"
							/>
					</g>
				</mask>
				<g id="Group-3" class="st9">
					<g transform="translate(58.477380, 9.307636)">
						<path id="Fill-33-Copy-2" class="st10" d="M9.6,47C8.3,46.6,7.1,46,6,45.1c-0.7-0.6-1.4-1.3-2-2c2,1.5,4.4,2.2,6.9,2.4
							C10.5,46,10,46.5,9.6,47"/>
						<path id="Fill-40-Copy" class="st10" d="M22.3,106.5c-3.7-2.4-7.2-5.2-10.3-8.3c0-0.1,0-0.2,0-0.3c0.2,0.1,0.3,0.2,0.5,0.3
							c0.8,0.5,2.1,0.7,3.9,0.7c4.3,0,10.9-1.2,17.3-2.7l7.3,6C34.4,102.7,27.9,103.8,22.3,106.5 M130.9,103.4
							c-2.1,0-4.2-0.1-6.3-0.1c-1-2.8-2.2-6.2-3.9-9.9c0.4,0,0.8,0,1.2,0c7.9,0.3,15.2,0.6,19.7,0.8
							C138.4,97.7,134.8,100.8,130.9,103.4 M102.8,102.8c-14.9-0.3-29.7-0.6-44.6-0.8c2-2.3,4.2-4.8,6.5-7.3l8.9-0.7
							c5.4-0.2,9.3-0.4,10.7-0.7c1.4-0.4,5.4-0.5,10.7-0.5c0.6,0,1.2,0,1.8,0C99,96.3,101.1,99.9,102.8,102.8"/>
						<path id="Fill-42-Copy" class="st11" d="M10.7,97c-0.9-0.8-1.9-1.8-2.8-3.1C8.8,94.9,9.7,96,10.7,97"/>
						<path id="Fill-43-Copy" class="st10" d="M16.3,98.8c-1.8,0-3.1-0.2-3.9-0.7c-0.2-0.1-0.3-0.2-0.5-0.3
							c-0.4-0.3-0.8-0.6-1.3-0.9c-1-1-1.9-2-2.8-3.1C5.2,89.9,3.2,83,5.1,71l0.3-3.2c1.5-0.1,3.9-0.3,6.4-0.6c2.6-0.3,5-0.6,6.5-0.8
							c-0.8,6-2.3,19.9,1.8,19.9c0.1,0,0.1,0,0.2,0c5.2-0.5,9.8-0.9,13.7-1.2c-3.9,3.7-6.3,6.3-6.3,6.3l5.8,4.8
							C27.2,97.6,20.6,98.8,16.3,98.8"/>
						<path id="Fill-45-Copy" class="st10" d="M3.5,67.8c1-15.2,5.1-19.4,5.2-19.4c0,0,0,0,0,0c2-1.2,3.6-1.7,5-1.7
							c4.8,0,6.1,6.4,6.4,11.8c0,0.2,0,0.4-0.1,0.6c-0.1,0-0.1,0-0.2,0c-0.1,0-0.2,0-0.4-0.1c-0.3-0.1-0.5-0.3-0.7-0.6
							c-0.2-0.3-0.1-0.7,0.1-1.2c0.1-0.2,0.1-0.6,0-0.9c-0.1-0.3-0.4-0.5-0.6-0.6c-0.2-0.1-0.4-0.1-0.5-0.1c-0.3,0-0.6,0.1-0.8,0.2
							c-0.6,0.4-0.8,0.7-0.8,0.8c0,0,0,0,0,0c0.1,0,0.4-0.2,0.9-0.4c0.1-0.1,0.3-0.1,0.4-0.1c0.5,0,1,0.3,0.7,1
							c-0.1,0.2-0.2,0.5-0.2,0.7c0,0.3,0,0.6,0.1,0.8c0.2,0.5,0.7,0.7,1.1,0.8c0.1,0,0.1,0,0.2,0c0.2,0,0.3,0,0.5-0.1
							c-0.1,1.3-0.2,2.4-0.3,3.4c-0.1,1.3-0.2,2.3-0.2,3.1c0,0.1,0,0.1,0,0.2c-1.3,0-4.3,0.3-7.7,0.6C7.7,67.1,4.3,67.5,3.5,67.8
							 M8.4,62c0.1,0,0.1,0,0.2,0c0.4,0,0.6,0.3,0.9,0.7c0.2,0.2,0.4,0.4,0.7,0.5c0.1,0,0.1,0,0.2,0c0.2,0,0.5-0.1,0.6-0.2
							c0.4-0.3,0.6-0.8,0.6-1.2c0-0.7-0.2-1.1-0.3-1.1c0,0,0,0,0,0c-0.1,0,0,0.4-0.1,1c0,0.4-0.4,0.9-0.8,0.9
							c-0.2,0-0.4-0.1-0.5-0.3c-0.2-0.2-0.3-0.4-0.5-0.5c-0.2-0.2-0.5-0.3-0.8-0.3c0,0-0.1,0-0.1,0c-0.5,0-0.9,0.2-1.1,0.5
							c-0.5,0.6-0.3,1.1-0.2,1.1c0,0,0,0,0,0h0c0.1,0,0.1-0.4,0.5-0.8C7.9,62.2,8.1,62,8.4,62 M10.6,52.5c-0.2,0-0.3,0-0.5,0.1
							c-0.5,0.2-0.8,0.6-0.9,0.9c-0.2,0.7,0.2,1.1,0.3,1.1c0,0,0,0,0,0c0.1,0-0.1-0.4,0.1-1c0.1-0.3,0.3-0.5,0.7-0.6
							c0.1,0,0.2,0,0.3,0c0.3,0,0.5,0.1,0.9,0.3c0.2,0.1,0.4,0.2,0.7,0.2c0.1,0,0.1,0,0.2,0c0.3-0.1,0.6-0.3,0.7-0.5
							c0.3-0.5,0.2-1,0.1-1.3c-0.3-0.6-0.6-0.9-0.7-0.9c0,0,0,0,0,0c-0.1,0,0.1,0.4,0.3,1c0.2,0.4-0.1,1.2-0.6,1.2
							c-0.1,0-0.3,0-0.4-0.1c-0.2-0.1-0.4-0.2-0.7-0.3C10.8,52.5,10.7,52.5,10.6,52.5 M20,66c-0.1,0-0.1,0-0.2,0c0,0-0.1,0-0.1,0
							c0-0.1,0-0.1,0-0.2c0.1-0.7,0.3-1.8,0.4-3c0-0.2,0.1-0.4,0.1-0.6C20.2,64.3,20,65.8,20,66"/>
						<path id="Fill-51-Copy" class="st10" d="M25.7,43.9c-1.9,0-3.6-0.9-4.7-2.4c0.1-0.1,0.1-0.2,0.2-0.3c0.7,0.3,1.5,0.5,2.3,0.5
							c0.4,0,0.9-0.1,1.3-0.2c0.9-0.2,1.8-0.7,2.5-1.3c0.6,0.1,1.1,0.1,1.7,0.1c0.2,0,0.5,0,0.7,0c0.5,0,0.9-0.1,1.4-0.1
							c-0.7,1.7-2.1,3-4,3.5C26.6,43.9,26.2,43.9,25.7,43.9"/>
						<path id="Fill-74-Copy" class="st10" d="M19.5,67L19.5,67c0,0,0-0.2,0-0.7c0.1,0,0.1,0,0.2,0C19.6,66.7,19.5,67,19.5,67
							 M19.5,66c0-0.1,0-0.1,0-0.2c0-0.7,0.1-1.8,0.2-3.1c0.1-1,0.2-2.2,0.3-3.4c0-0.1,0-0.2,0-0.3c0-0.2,0-0.4,0.1-0.6
							c0.2-1.8,0.4-3.7,0.6-5.7c0.1-1,0.1-1.9,0-2.8c-0.1-0.9-0.5-1.7-1-2.3c-0.3-0.4-0.7-0.8-1.1-1.1c-0.2-0.1-0.4-0.3-0.6-0.4
							c-0.3-0.2-0.6-0.3-0.9-0.5c-0.2-0.1-0.4-0.1-0.6-0.2c-0.2-0.1-0.3-0.1-0.5-0.1c-0.2,0-0.3-0.1-0.5-0.1
							c0.3-0.1,0.5-0.2,0.8-0.2c0.2,0.1,0.5,0.1,0.8,0.2c0.5,0.2,1,0.4,1.4,0.7c0.6,0.4,1.1,0.8,1.6,1.4c0.6,0.7,1,1.6,1.1,2.6
							c0.2,1,0.1,2,0,3c-0.4,3.6-0.8,6.9-1.1,9.4c0,0.2-0.1,0.4-0.1,0.6c-0.2,1.3-0.3,2.3-0.4,3c0,0.1,0,0.1,0,0.2
							C19.6,66,19.6,66,19.5,66"/>
						<path id="Fill-75-Copy" class="st10" d="M3.8,67.9c-0.3,0-0.4,0-0.4,0c0,0,0.1,0,0.2-0.1c0.8-0.2,4.2-0.7,8.2-1.1
							c3.4-0.4,6.4-0.6,7.7-0.6c0.1,0,0.1,0,0.2,0c0,0,0.1,0,0.1,0c0.1,0,0.2,0,0.2,0c0.1,0,0.2,0,0.2,0c0,0-0.2,0.1-0.6,0.2
							c-0.1,0-0.1,0-0.2,0c-0.3,0.1-0.7,0.1-1.1,0.2c-1.5,0.2-3.9,0.5-6.5,0.8c-2.6,0.3-4.9,0.5-6.4,0.6C4.7,67.9,4.1,67.9,3.8,67.9
							"/>
						<path id="Fill-86-Copy" class="st12" d="M19.5,6.3c-1.7-0.8-3.9-0.6-5.4,0.5c-1.6,1.1-2.5,3-2.5,4.9c0.1,1.5,0.7,3.2-0.3,4.3
							c-0.7,0.9-2,1-3.1,1.4c-2,0.9-3,3.5-2.1,5.5c0.5,1.1,1.5,2.1,1.3,3.2C7.3,27,6.7,27.6,6.1,28c-0.7,0.4-1.4,0.6-2.1,0.9
							c-2.5,1.2-4,4.1-4,6.9c0.1,2.8,1.6,5.4,3.8,7.2c2.2,1.7,5,2.6,7.8,2.7c2.8,0.1,5.7-0.6,7.9-2.4c1.6-1.4,2.6-3.3,3.4-5.2
							c1.5-3.7,2.1-7.8,1.7-11.8c-0.4-4.1-1.7-8.1-2-12.3c-0.1-1.4-0.1-2.8-0.4-4.1c-0.3-1.4-1-2.7-2.2-3.4L19.5,6.3"/>
						<path id="Fill-87-Copy" class="st12" d="M18.9,6.9c1.6-3.3,4.8-5.8,8.3-6.6c2.2-0.5,4.6-0.3,6.5,0.8s3.3,3.4,3,5.7
							c-0.2,1.4-0.9,2.6-1.4,3.9c-0.5,1.3-0.6,2.9,0.3,4c0.8,1,2.2,1.2,3.2,1.8c1.5,0.9,2.5,2.7,2.4,4.5c-0.1,1.8-1.3,3.5-2.9,4.2
							c1.6,0.2,3.2,1.1,4.1,2.4c0.9,1.3,1.3,3.1,0.9,4.7c-0.5,2.3-2.4,4-4.4,5.3c-2.8,1.7-6,2.7-9.3,2.9c-3.5,0.2-7.3-0.9-9.2-3.8
							c-1.2-1.9-1.4-4.3-1.6-6.6c-0.4-6.9-0.7-13.7-1-20.6c0-1.1-0.1-2.2,0.2-3.3L18.9,6.9"/>
						<path id="Fill-88-Copy" class="st13" d="M30.6,37.9l31,11.6l-3-12.5l8.1-2.1c0,0,8.7,24.5,2.7,25.2c-10.6,1.1-26.5-3-26.5-3
							L30.6,37.9"/>
						<path id="Fill-89-Copy" class="st7" d="M27.8,91.4c0,0,37.5-40.9,62.8-32c25.3,8.9,36,50.6,36,50.6l-20.2-0.3
							c0,0-15.9-31.5-23.7-30.3C75,80.6,51,110.6,51,110.6L27.8,91.4"/>
						<path id="Fill-90-Copy" class="st6" d="M40.5,88.5C32.4,98.5,5,87.6,5,87.6l-0.3-10L4.1,53.6c0.6-9.5,9.5-14.2,9.5-14.2
							c3.7-1.8,9.2-2.9,14.3-2.6c5.2,0.3,6.5,2.8,8.7,7.6c1.7,3.9,6.5,10.2,3.2,22.1L40.5,88.5z"/>
						<path id="Fill-91-Copy" class="st7" d="M10.3,92.1c0,0-4.3,17.5,8.8,20.3c13.1,2.8,61.4-3.7,73.9-2.6
							c12.6,1.1,48.3,3.2,48.3,3.2l2.6-20.8c0,0-55.6-2.7-61.9-1.1C75.8,92.7,10.3,92.1,10.3,92.1"/>
						<path id="Fill-92-Copy" class="st13" d="M16.6,61.5c0,0-3.9,23.2,1.6,22.6C36.4,82.2,47.3,82,47.3,82l3,6.3
							c0.1,1.1-34.6,11-40.1,7.7C6.3,93.7,0,87.4,2.9,68.8l0.7-6.2L16.6,61.5"/>
						<path id="Fill-97-Copy" class="st6" d="M6.6,46.1c0,0-4.3,4.1-5.2,19.6l16.5-1.8C17.8,63.9,20.6,37.5,6.6,46.1"/>
						<path id="Fill-102-Copy" class="st13" d="M14.8,13.7l0.4,4.9c0,0-4.2,0.6-3,4.4s4,2.1,4,2.1s0.7,9.8,10.7,6.7
							c8-2.5,7.5-12.8,6.5-21.6c-0.4-3.4-3.6-5.7-7-5.1l-6,1.2C16.9,7,14.5,10.2,14.8,13.7"/>
						<path id="Fill-13-Copy-4" class="st14" d="M23.5,15c0.4,0.3,0.5,0.9,0.2,1.3c-0.3,0.4-0.9,0.5-1.3,0.2
							c-0.4-0.3-0.5-0.9-0.2-1.3C22.5,14.8,23.1,14.7,23.5,15"/>
						<path id="Fill-13-Copy-5" class="st14" d="M30.1,15c0.4,0.3,0.5,0.9,0.2,1.3c-0.3,0.4-0.9,0.5-1.3,0.2
							c-0.4-0.3-0.5-0.9-0.2-1.3C29,14.8,29.7,14.7,30.1,15"/>
						<path id="Fill-103-Copy" class="st13" d="M15.2,22.7L17.9,37c0.6,3.2,3.8,5.3,7,4.5c3-0.7,4.9-3.6,4.3-6.6l-1.5-8.2L15.2,22.7
							"/>
						<path id="Fill-104-Copy" class="st14" d="M26.2,22.8c0,0,0.1,0.1,0.3,0.1c0.2,0,0.4-0.2,0.5-0.6c0.1-0.4,0-0.9,0-1.5
							c0-0.6-0.1-1.3-0.1-1.9c-0.2-2.7-0.2-4.9,0-4.9c0.2,0,0.4,2.2,0.6,4.9c0,0.7,0.1,1.3,0.1,1.9c0,0.6,0,1.2-0.1,1.6
							c-0.1,0.5-0.6,0.8-1,0.7C26.2,23.1,26.2,22.8,26.2,22.8"/>
						<path id="Fill-105-Copy" class="st15" d="M29.2,30.8c0,0.1-0.4,0.5-1.2,1c-0.8,0.5-2.1,0.9-3.5,1c-1.5,0-2.8-0.4-3.6-0.8
							C20,31.4,19.6,31,19.7,31c0.1-0.2,2,1.2,4.8,1.2C27.2,32.1,29.1,30.6,29.2,30.8"/>
						<path id="Fill-112-Copy" class="st12" d="M15.2,18.6c2.8-2.7,3.6-7.3,4.4-11.1c2.6,1.9,6.1,2.3,9.1,1.2c0.9,1.1,2,2.1,3.2,2.8
							c0.3,0.2,0.8,0.4,1.1,0.3c0.5-0.1,0.7-0.7,0.8-1.2c0.4-1.5,0.4-3.2-0.2-4.6S32,3.3,30.6,2.8c-1.6-0.6-3.3-0.3-4.9,0.1
							c-2.4,0.6-4.8,1.6-7,2.9c-2.1,1.3-4.2,2.9-5.1,5.2c-0.9,2.3-0.9,6.8,1.3,7.9"/>
						<path id="Fill-119-Copy" class="st6" d="M15.1,31.6c-0.2,0-0.2-1.6-0.4-3.5c-0.1-1.9-0.2-3.5,0-3.5c0.2,0,0.5,1.5,0.6,3.5
							C15.4,30,15.2,31.6,15.1,31.6"/>
						<path id="Fill-120-Copy" class="st6" d="M31.6,37.7c-2.7-1.1,18.1,6.6,18.1,6.6l-2.1,14.2L39.7,56L31.6,37.7"/>
						<path id="Fill-121-Copy" class="st12" d="M19.3,5.6c0.7-1,0.9-2.3,0.6-3.4c-0.2-0.9-1-1.9-1.9-1.9c-0.6,0-1.1,0.2-1.5,0.6
							c-1,0.9-1.3,2.6-0.6,3.8c0.7,1.2,2.2,1.8,3.5,1.5"/>
						<path id="Fill-122-Copy" class="st16" d="M149.3,90.6c-0.8,3.7-7.7,20-7.7,20l1.8-14C143.4,96.6,150.2,86.9,149.3,90.6z"/>
						<path id="Fill-124-Copy" class="st13" d="M59.2,37.7c0,0-5.4-7.6-4.5-7.6c1,0,1.5,1.4,3.3,2.4c0,0-3-9.5-2.1-9.3
							c0.9,0.2,3.1,6.3,3.3,6.3c0.1,0-1.9-6.8-1.1-6.9c0.8-0.1,2.7,6.3,2.7,6.3s-1.3-6-0.5-6.2c0.8-0.1,2,5.4,2,5.4s-1-4.7-0.2-4.8
							c0.5-0.1,4.5,11.5,4.5,11.5C66.6,34.9,59.2,37.7,59.2,37.7"/>
						<path id="Fill-141-Copy" class="st14" d="M17.3,64.8c0,0,0-0.4,0-1.1c0-0.7,0.1-1.8,0.2-3.1c0.2-2.6,0.6-6.2,1-10.1
							c0.1-1,0.1-1.9,0-2.8c-0.1-0.9-0.5-1.7-1-2.3c-1-1.3-2.4-2-3.7-2.3c-1.2-0.3-2.3-0.3-3-0.3c-0.7,0-1.1,0.1-1.1,0
							c0,0,0.4-0.2,1.1-0.2c0.7-0.1,1.8-0.2,3.1,0.1c1.3,0.3,2.9,0.9,4,2.3c0.6,0.7,1,1.6,1.1,2.6c0.2,1,0.1,2,0,3
							c-0.4,3.9-0.9,7.5-1.2,10.1c-0.2,1.3-0.3,2.3-0.4,3C17.4,64.4,17.3,64.8,17.3,64.8"/>
						<path id="Fill-142-Copy" class="st14" d="M18,63.9c0,0.2-3.7,0.7-8.4,1.2c-4.6,0.5-8.4,0.8-8.4,0.6c0-0.2,3.7-0.7,8.4-1.2
							C14.2,64,18,63.7,18,63.9"/>
						<path id="Fill-143-Copy" class="st14" d="M40.8,60.1c0-4.1-1.8-7.1-1.7-7.2c0.1,0,0.6,0.7,1.1,1.9c0.6,1.3,1.1,3.1,1.1,5.2
							c0,2.1-0.4,4-0.9,5.2c-0.5,1.3-1,2-1.1,1.9C39.1,67.2,40.8,64.2,40.8,60.1z"/>
						<path id="Fill-75-Copy-2" class="st0" d="M23.4,24.6l4.3,1.4c0,0-1.4,1.6-3.4,0.4C22.9,25.6,23.4,24.6,23.4,24.6"/>
						
							<g id="movil" transform="translate(52.686810, 78.613559) scale(-1, 1) rotate(-30.000000) translate(-52.686810, -78.613559) translate(47.186810, 68.113559)">
							<path id="Fill-11" class="st17" d="M9.7,1.6L3.2,0C2.9-0.1,2.6,0.2,2.5,0.6L0,17.8c-0.1,0.4,0.2,0.8,0.5,0.9L7,20.2
								c0.4,0.1,0.7-0.2,0.8-0.6l2.5-17.2C10.3,2,10.1,1.6,9.7,1.6"/>
							<path id="Fill-14" class="st18" d="M10.3,1.7L3.9,0.2C3.5,0.1,3.2,0.3,3.1,0.7L0.6,17.9c-0.1,0.4,0.2,0.8,0.5,0.9l6.5,1.5
								c0.4,0.1,0.7-0.2,0.8-0.6l2.5-17.2C10.9,2.2,10.7,1.8,10.3,1.7"/>
							<polygon id="Fill-16" class="st0" points="10,3.4 4.3,2 2.3,16 8,17.4 							"/>
						</g>
						<path id="Fill-123-Copy" class="st13" d="M48.1,79.4c0.5,1,3.5,2.6,4.6,2.9c3.5,0.4,4-3.6,5.1-2.1c1.1,1.6-0.3,7.5-1.6,8.8
							c-3.5,3.3-11.9,0.8-11.9,1.2c0,0.2,1.2-8.2,1.2-8.2S47.5,78.5,48.1,79.4z"/>
					</g>
				</g>
			</g>
		</g>
	</g>
</g>
</svg>
