<?xml version="1.0" encoding="UTF-8"?>
<svg width="232px" height="232px" viewBox="0 0 232 232" version="1.1" xmlns="http://www.w3.org/2000/svg" xmlns:xlink="http://www.w3.org/1999/xlink">
	<title>
		atoms/img/ilustraciones/big/enviar_caja isotérmica
	</title>
	<g id="atoms/img/ilustraciones/big/enviar_caja-isotérmica" stroke="none" stroke-width="1" fill="none" fill-rule="evenodd">
		<path d="M28.7396776,69.719574 C51.2960036,32.0795281 166.848265,-9.55926376 222.067728,89.3171033 C277.287191,188.19347 86.7674136,241.50578 31.4053081,209.912013 C-23.9577879,178.318246 6.18335155,107.35962 28.7396776,69.719574" id="Fill-1" fill="#F3F2F2">
		</path>
		<g id="Group-58" transform="translate(4.000000, 12.000000)">
			<path d="M97.9054761,80.4861647 C101.67937,75.1874108 72,114.94983 72,114.94983 L93.2954737,139 L105,124.514497 L97.9054761,80.4861647" id="Fill-4" fill="#FFCD00">
			</path>
			<path d="M87,206.272649 C127.624774,204.328611 162.653496,187.148396 162.653496,187.148396 L163.541301,163.28841 L165,109.726317 C163.554114,88.3954122 143.827177,77.9241652 143.827177,77.9241652 C135.673246,73.8448575 123.235863,71.5272717 112.031476,72.0811539 C100.334285,72.6617889 97.446455,78.2887961 92.6248626,89.0077542 C88.7336838,97.6707096 88.1511897,110.123646 88.1511897,141.647371 L87,206.272649 Z" id="Fill-6" fill="#FFCD00">
			</path>
			<path d="M144.573995,25.3073816 L143.723565,36.2578649 C143.723565,36.2578649 153.222867,37.5125768 150.514051,46.0081459 C147.807228,54.4987596 141.312847,50.7841781 141.312847,50.7841781 C141.312847,50.7841781 139.688754,72.5483752 116.950445,65.6484508 C98.856108,60.1548741 99.9627648,37.1795727 102.259825,17.5908042 C103.149139,10.0030678 110.47102,4.78402122 118.114928,6.24586961 L131.786626,8.85539288 C139.685763,10.3648133 145.183155,17.4371863 144.573995,25.3073816" id="Fill-8" fill="#FCBFBF">
			</path>
			<path d="M121.5,34 C120.118421,34 119,32.8802369 119,31.4994516 C119,30.1186664 120.118421,29 121.5,29 C122.879386,29 124,30.1186664 124,31.4994516 C124,32.8802369 122.879386,34 121.5,34" id="Fill-10" fill="#000000">
			</path>
			<path d="M107.5,34 C106.118421,34 105,32.8802369 105,31.4994516 C105,30.1186664 106.118421,29 107.5,29 C108.879386,29 110,30.1186664 110,31.4994516 C110,32.8802369 108.879386,34 107.5,34" id="Fill-12" fill="#000000">
			</path>
			<path d="M144,45 L137.896735,77.3955331 C136.521069,84.6954735 129.289798,89.3645365 122.030453,87.6420563 C115.303526,86.0456597 110.993039,79.5061918 112.203264,72.7314341 L115.516093,54.1614103 L144,45" id="Fill-14" fill="#FCBFBF">
			</path>
			<path d="M114.969193,45.1252803 C114.884092,45.0648408 114.704241,45.404082 114.300672,45.449899 C113.907631,45.4908419 113.309296,45.0862871 113.16366,44.23331 C112.962753,43.3881315 113.074173,42.2758494 113.195244,40.9880977 C113.299645,39.6038377 113.403169,38.2342002 113.510203,36.8021735 C113.885698,30.8586291 113.907631,26.0215179 113.561088,26 C113.21279,25.9786253 112.624983,30.778693 112.250366,36.7232122 C112.177548,38.1581634 112.10473,39.5297506 112.034544,40.9159602 C111.98366,42.1861649 111.935407,43.4407724 112.308269,44.4838415 C112.601296,45.5668787 113.728657,46.2404869 114.431393,45.9197675 C115.102546,45.5815012 115.014813,45.1174817 114.969193,45.1252803" id="Fill-16" fill="#000000">
			</path>
			<path d="M114.891578,65.923761 C117.577174,68.2220793 119.008192,68.9201027 122.076888,68.9969589 C125.146558,69.0727624 127.910139,67.7209343 129.50395,66.1153753 C131.097761,64.5098162 132.082317,63.6643972 131.994584,63.5264771 C131.83959,63.1316675 127.747346,66.5607205 121.948213,66.3922684 C116.148106,66.2722463 112.180637,62.6442092 112.01492,63.0284906 C111.920364,63.1611466 112.206957,63.6264955 114.891578,65.923761" id="Fill-18" fill="#8E737E">
			</path>
			<path d="M122,52.979949 L113,52 C113,52 113.931371,55.2526805 118.634162,54.9842554 C121.896406,54.7977395 122,52.979949 122,52.979949" id="Fill-20" fill="#FFFFFF">
			</path>
			<path d="M143.171396,36.4097799 C135.992603,32.3726742 130.926605,26.3809561 130.408224,13.9548549 C124.648106,18.1847659 119.761775,16.7888953 113.120998,14.1889756 C111.035692,16.6580631 108.589091,18.814334 105.881334,20.5672878 C105.112599,21.0630727 104.199541,21.5470532 103.323791,21.2804705 C102.279175,20.9617516 101.816755,19.7577025 101.566401,18.6854693 C100.772139,15.2602251 100.743667,11.5939744 101.928678,8.28480687 C103.11369,4.97367193 105.596618,2.06782148 108.851226,0.797864491 C112.329682,-0.559641813 116.243067,0.0305783193 119.854063,0.973946831 C125.293137,2.39637735 130.535856,4.58117554 135.382916,7.44571058 C140.139652,10.2561421 144.710831,13.9764963 146.732321,19.1497758 C148.749884,24.3250227 148.740066,34.3823737 143.874353,37" id="Fill-22" fill="#333333">
			</path>
			<path d="M88.4100191,137 C88.7275171,136.982186 89.0160541,130.983085 89.6349607,123.545896 C90.2560124,116.096864 89.9771291,109.980307 89.5909829,110 C89.2734849,110.016827 88.9849479,116.013954 88.3660414,123.453117 C87.7449896,130.900175 88.0206551,137.019693 88.4100191,137" id="Fill-24" fill="#000000">
			</path>
			<polygon id="Fill-26" fill="#C4BDA4" points="2 87 96 87 96 83 2 83">
			</polygon>
			<polygon id="Fill-28" fill="#DACC92" points="2 164 96 164 96 87 2 87">
			</polygon>
			<g id="Group" transform="translate(39.000000, 129.000000)" fill="#1ECAD3">
				<path d="M16,8.61858642 C15.578174,8.92127293 15.1501293,9.21604606 14.7386676,9.5315918 C14.5863127,9.64930322 14.5210178,9.6186389 14.4194479,9.48312239 C14.1831424,9.16559831 13.9261083,8.86291181 13.6866935,8.5463769 C13.5975608,8.42965465 13.5053187,8.36931518 13.3446724,8.37129352 C12.706233,8.38019607 12.06883,8.3792069 11.4303906,8.3722827 C11.2687079,8.37030435 11.1588466,8.40294702 11.1339723,8.57209536 C11.1059888,8.76300547 10.8313354,8.91731624 11.0935516,9.15174991 C11.5599441,9.56621281 12.0035351,10.005405 12.449199,10.4406405 C12.5507689,10.5405468 12.6502659,10.570222 12.7932929,10.5484602 C13.2244468,10.4802074 13.6597464,10.4327271 14.0898639,10.3595284 C14.230818,10.3357883 14.2629473,10.3812902 14.2795301,10.4940558 C14.3500072,10.9639123 14.4235936,11.4327796 14.4992528,11.9006578 C14.5241271,12.052001 14.4225572,12.0767303 14.3075137,12.0915679 C13.9831118,12.1331131 13.65871,12.1914742 13.3322353,12.2092793 C13.1290955,12.2201602 13.057582,12.2973156 13.035817,12.4773448 C12.9964328,12.7978364 12.929065,13.1143713 12.8938264,13.4348629 C12.8772436,13.5782928 12.8513329,13.6297297 12.6792859,13.6020329 C12.1994199,13.5258667 11.7154082,13.4675056 11.2313965,13.4160686 C11.053131,13.3972744 11.0852602,13.2874763 11.0976973,13.1905375 C11.1412273,12.8611434 11.1733566,12.5287817 11.2479794,12.2053226 C11.3143107,11.9164845 11.2562708,11.7087585 11.0178924,11.5030108 C10.6043578,11.1459198 10.2167339,10.7611321 9.83221922,10.3753552 C9.69955648,10.2437953 9.59280444,10.2062068 9.4300853,10.3150157 C9.3513168,10.368431 9.25078332,10.4010736 9.15543198,10.4198679 C9.01758711,10.4475647 8.9947857,10.5227417 8.99582213,10.6424315 C9.00100427,11.2705555 9.00100427,11.8986794 8.9947857,12.5268034 C8.99374927,12.6544065 9.03520638,12.7315619 9.14610413,12.8067389 C9.48605239,13.0382051 9.81356352,13.2874763 10.1514389,13.5228992 C10.2913567,13.6208272 10.3525059,13.6930367 10.2115517,13.8552608 C9.92653413,14.1836658 9.66431794,14.5328434 9.40417461,14.8810318 C9.29949542,15.0195158 9.21969049,15.0402884 9.0735542,14.9265337 C8.75744377,14.6802299 8.42578694,14.4517313 8.10138509,14.2163084 C7.98841448,14.1094779 8.00603375,13.9709939 8.00603375,13.8404232 C8.00292447,12.323034 8.00292447,10.8056448 8.00603375,9.28825559 C8.00603375,9.13790151 7.99566947,8.9816124 8.12004079,8.86093346 C8.20710071,8.78971311 8.31799846,8.77784305 8.42267765,8.74717873 C9.01758711,8.57605204 9.46325099,8.02310513 9.44459529,7.48301744 C9.42283031,6.88061194 8.9947857,6.39492869 8.353237,6.25149881 C8.20606428,6.21885615 8.05163656,6.20500774 8.02261659,6.02003266 C7.98219591,5.32464503 8.00914303,4.63024657 8.00499732,3.93584812 C7.99981518,3.03174528 8.00188804,2.12764245 8.00603375,1.22255044 C8.00603375,1.07417471 7.97597735,0.91491808 8.09723938,0.787314945 C8.43096907,0.545957077 8.76677162,0.308555896 9.09531918,0.0622521696 C9.21554478,-0.0287516167 9.28913114,-0.0228165871 9.38240963,0.0988515184 C9.65706295,0.46088832 9.93689841,0.819957607 10.229171,1.16913518 C10.3421416,1.30366251 10.3027574,1.37290453 10.1763132,1.4609408 C9.83843778,1.69537446 9.51092666,1.94563488 9.16994197,2.17710103 C9.04246137,2.26315896 8.99167642,2.35317357 8.99374927,2.50352765 C9.00411355,3.10296564 9.00411355,3.70339279 8.99374927,4.30283078 C8.99063999,4.47000077 9.03002424,4.57089628 9.21347193,4.60650645 C9.29949542,4.6223332 9.39070105,4.65200835 9.46117813,4.70047775 C9.60938728,4.80434077 9.69955648,4.74795799 9.81149067,4.63914912 C10.2281346,4.22963208 10.6458149,3.81912587 11.0831874,3.43038143 C11.2604165,3.27310315 11.3049829,3.11087901 11.2676715,2.90018546 C11.2096315,2.57276966 11.1619559,2.2443647 11.1049523,1.9169489 C11.0707502,1.71713624 11.0748959,1.59151145 11.3619864,1.57370636 C11.8066138,1.54699873 12.248132,1.46687583 12.6886137,1.39268796 C12.842005,1.3669695 12.8751707,1.4085147 12.8917536,1.54403121 C12.9332107,1.8823279 13.0057606,2.21765706 13.0420356,2.55793209 C13.0617277,2.73103712 13.1560426,2.77554984 13.3104703,2.79137659 C13.6462729,2.82797594 13.9800026,2.87644534 14.3158051,2.91106635 C14.4474314,2.92491475 14.5210178,2.96547079 14.4982164,3.10593315 C14.4256664,3.56589794 14.3500072,4.02487356 14.2867851,4.48483835 C14.2650202,4.63914912 14.2049074,4.6569542 14.0525525,4.63024657 C13.651455,4.56100456 13.2462118,4.51945935 12.8430415,4.46109823 C12.6886137,4.43933646 12.5621696,4.44626066 12.4388347,4.56891793 C11.9962801,5.00712095 11.5443977,5.43839976 11.0852602,5.86077603 C10.9598525,5.97650911 10.9899089,6.06454538 11.024111,6.20698609 C11.1142802,6.57990378 11.3443671,6.65705916 11.7102261,6.63529738 C12.2274035,6.60562224 12.7476901,6.61650312 13.2659039,6.63331904 C13.4825173,6.64024324 13.6131072,6.56704454 13.7322964,6.40383123 C13.9416547,6.11499313 14.1872881,5.84890597 14.3873186,5.55413284 C14.5251635,5.35135266 14.6308791,5.38300615 14.797744,5.51060929 C15.1314737,5.76581556 15.4776405,6.00618425 15.820698,6.25149881 C15.8735558,6.2900765 15.9160494,6.35437265 16,6.33458922 L16,6.44834395 C15.8486816,6.73817123 15.6310318,6.98348578 15.4216734,7.23275702 C15.2672457,7.41674294 15.2496264,7.55918365 15.4144184,7.75207211 C15.6310318,8.00530004 15.8621551,8.25358211 16,8.56121447 L16,8.61858642 Z" id="Fill-29">
				</path>
				<path d="M7.87331281,0.773079002 C7.87019756,2.55546602 7.86604388,4.33785304 7.86292862,6.11924929 C7.7715477,6.22922426 7.63136106,6.22030737 7.50882755,6.25201186 C6.88577582,6.41251586 6.46936958,6.98616905 6.5181753,7.6182774 C6.56490418,8.22759814 7.07372976,8.7130732 7.72585724,8.77152836 C7.82243026,8.78044525 7.92938747,8.76261148 8,8.8537619 C7.85877494,8.92707854 7.87435123,9.05290575 7.87538965,9.17675143 C7.87642807,10.8590711 7.87642807,12.5404001 7.87746649,14.2227198 C7.53998014,14.4595127 7.19730169,14.6913518 6.86812269,14.9380524 C6.7414355,15.0331659 6.67186139,15.0173137 6.58255731,14.9004034 C6.31152981,14.5467001 6.04154073,14.1910153 5.75286009,13.8511828 C5.62409607,13.6995956 5.68224756,13.6292513 5.81412684,13.5371101 C6.14538268,13.3072525 6.4652159,13.0635242 6.799587,12.8376297 C6.92627418,12.7504424 6.980272,12.6602827 6.97819516,12.5077048 C6.96884939,11.8983841 6.96677255,11.2880726 6.97819516,10.6787518 C6.98234884,10.5142848 6.92523576,10.4350235 6.76531915,10.3944021 C6.66043878,10.3686422 6.5555584,10.3270301 6.46210064,10.2745195 C6.34579765,10.2081382 6.26999303,10.2319166 6.17757369,10.3210855 C5.70924647,10.7758468 5.23572715,11.2276359 4.75805416,11.6754619 C4.66044272,11.767603 4.64278959,11.8557812 4.6645964,11.9816084 C4.73624735,12.3937668 4.79024517,12.8088975 4.85878086,13.2230375 C4.87851083,13.3458924 4.83593563,13.3984029 4.71132528,13.4142552 C4.24611332,13.4717196 3.78193978,13.5321563 3.31776624,13.5955653 C3.16511857,13.6163713 3.08308342,13.5906114 3.06646871,13.415246 C3.03635454,13.1031548 2.96574202,12.7950268 2.92835891,12.4829357 C2.90759052,12.3075702 2.85255428,12.2203828 2.64279353,12.2084937 C2.32503715,12.1916506 2.01039603,12.1252694 1.69367806,12.0915833 C1.4828789,12.0697865 1.44238053,11.9786361 1.47872522,11.7874184 C1.55037617,11.412909 1.60229714,11.0344366 1.64383393,10.656955 C1.66771758,10.4439404 1.72690749,10.335947 1.9875508,10.3854853 C2.35826658,10.4558296 2.73832813,10.4825803 3.11112075,10.5459893 C3.29803627,10.5786845 3.42783872,10.5380631 3.56075642,10.4062913 C3.98339318,9.98719755 4.41537571,9.57702066 4.85358876,9.17278837 C4.98754488,9.04993345 4.9937754,8.95184767 4.94185442,8.77846372 C4.83074353,8.40989898 4.6168291,8.30685938 4.22742177,8.33559157 C3.71132725,8.37324066 3.18900222,8.35243459 2.66979244,8.3405454 C2.47664641,8.33559157 2.35618974,8.40098209 2.24819411,8.54761538 C2.01662655,8.85871572 1.76221376,9.15297306 1.53272303,9.4640734 C1.43303476,9.59980827 1.37072958,9.64142042 1.21392823,9.51955627 C0.874365039,9.25403113 0.520263972,9.00435824 0.159932387,8.76558377 C-0.00932999954,8.65362728 -0.0342520688,8.56743068 0.100742473,8.41287128 C0.305311125,8.17905063 0.47665035,7.91847932 0.68537268,7.68862174 C0.820367222,7.54099769 0.799598831,7.43795809 0.680180583,7.29826016 C0.466266155,7.04759651 0.274158538,6.77909907 0.0623209495,6.52744465 C-0.0280215515,6.42044199 -0.0228294537,6.36198682 0.0955503752,6.27975329 C0.482880868,6.01125586 0.867096102,5.7378046 1.24300398,5.45444569 C1.36242223,5.36428603 1.42161214,5.38509211 1.50260887,5.49110401 C1.74975272,5.81310277 2.01247287,6.12618465 2.25546304,6.45214648 C2.35203606,6.58292752 2.45691643,6.63741962 2.62617882,6.63543809 C3.25546107,6.6265212 3.88474332,6.6265212 4.51402557,6.63543809 C4.68848005,6.63642885 4.80062936,6.60076129 4.83697405,6.42242352 C4.87747241,6.2222889 5.13603888,6.05683107 4.8556656,5.81706584 C4.41018361,5.43661191 3.99377737,5.02247196 3.58152481,4.608332 C3.43199239,4.45872642 3.2834984,4.41612351 3.07789133,4.4508003 C2.70509871,4.51420929 2.32711399,4.55185837 1.95432137,4.61229507 C1.76636743,4.64201803 1.68017861,4.5855444 1.65629496,4.40423432 C1.60125872,3.97919595 1.53895355,3.55613911 1.4673026,3.13308227 C1.43718844,2.95474449 1.54206881,2.92204923 1.68433229,2.90520622 C2.01039603,2.86458484 2.33542135,2.81207427 2.66252351,2.7853236 C2.83490115,2.77046212 2.90239842,2.70903466 2.92212839,2.54555837 C2.96158834,2.20473506 3.03012403,1.86787481 3.07269923,1.52804226 C3.08931394,1.40221505 3.1298123,1.37447362 3.26273001,1.39329816 C3.7455951,1.46463328 4.22949861,1.52506997 4.71444054,1.5815436 C4.84735824,1.59739584 4.87954925,1.64891565 4.85981928,1.76978903 C4.79128359,2.18293822 4.74040103,2.5990597 4.6645964,3.01121812 C4.63967433,3.15190681 4.67290376,3.24206647 4.77570729,3.33817072 C5.23884241,3.77212598 5.70093911,4.20806277 6.1516132,4.65390721 C6.27518513,4.77676213 6.36448921,4.73614074 6.51194478,4.70542702 C6.93354312,4.61625813 7.00623249,4.37451136 6.98234884,4.00792815 C6.95015783,3.51452696 6.96781097,3.01716271 6.97715674,2.52178 C6.98131042,2.35235911 6.9325047,2.24040261 6.78193387,2.14132607 C6.44548593,1.91840385 6.12876797,1.67071249 5.79647371,1.44283644 C5.65940233,1.35069525 5.64382604,1.27836937 5.75078325,1.14956987 C6.02804127,0.813700385 6.29699194,0.468914013 6.55971208,0.121155345 C6.6614772,-0.0135887542 6.73935866,-0.0443024827 6.89096792,0.0716170733 C7.2087243,0.317326901 7.54517224,0.54123989 7.87331281,0.773079002" id="Fill-30">
				</path>
			</g>
			<path d="M67.6143179,139.091091 C68.0116977,139.400628 68.4317262,139.685283 68.8424893,139.978896 C68.8383714,142.237224 68.833224,144.494558 68.8291061,146.751891 C68.7148336,146.890237 68.5398218,146.878294 68.386429,146.919101 C67.608141,147.122141 67.0882528,147.848708 67.1489922,148.648927 C67.2076727,149.422272 67.8428628,150.036371 68.6582121,150.111018 C68.779691,150.120971 68.9124941,150.099074 69,150.215524 C68.8249881,150.308087 68.8445483,150.467334 68.8445483,150.624591 C68.8466073,152.754526 68.8466073,154.885457 68.8466073,157.015392 C68.4255493,157.315972 67.997285,157.608589 67.5854924,157.921113 C67.4269523,158.041543 67.3404758,158.022633 67.2282623,157.874334 C66.8905924,157.425455 66.5529224,156.976576 66.1915744,156.545612 C66.0309753,156.35352 66.103039,156.263943 66.2687856,156.147493 C66.6826371,155.855872 67.0820759,155.546334 67.5000454,155.260684 C67.6596151,155.151201 67.7255019,155.035747 67.7234429,154.843655 C67.7121186,154.071304 67.7090302,153.297959 67.7244724,152.525608 C67.7275609,152.317591 67.6575561,152.218061 67.4578367,152.167301 C67.3260631,152.133461 67.1953189,152.08071 67.0789875,152.014026 C66.9338306,151.931416 66.8370593,151.96028 66.7227869,152.072748 C66.1370119,152.65002 65.54506,153.222316 64.9489903,153.78864 C64.826482,153.90509 64.8038334,154.017558 64.8316294,154.17581 C64.9211943,154.699337 64.9881106,155.224853 65.0735575,155.749375 C65.0992946,155.904641 65.0457615,155.971326 64.8892803,155.991232 C64.3086528,156.064884 63.7280252,156.140526 63.1484271,156.221145 C62.955914,156.248018 62.8539954,156.214178 62.8334058,155.992227 C62.7953149,155.597094 62.707809,155.205943 62.6614823,154.811805 C62.6357453,154.588859 62.5657406,154.478381 62.3042523,154.464446 C61.9068724,154.443545 61.5146399,154.358945 61.1182896,154.316147 C60.8547423,154.288279 60.8032682,154.171829 60.8485654,153.929972 C60.9381303,153.457206 61.0029876,152.977473 61.0554912,152.498735 C61.0853461,152.22901 61.1584393,152.091659 61.484785,152.154362 C61.9480517,152.243939 62.4226426,152.277779 62.8889978,152.358398 C63.1237195,152.399205 63.2853481,152.348445 63.4510947,152.181235 C63.9802482,151.650742 64.5196965,151.131197 65.0673806,150.618619 C65.2351861,150.462358 65.2423925,150.338941 65.1775352,150.11898 C65.0395846,149.651191 64.77089,149.521802 64.2849747,149.557633 C63.6394898,149.605407 62.9867985,149.579529 62.3371957,149.5646 C62.096297,149.558628 61.9459927,149.641238 61.8101011,149.827358 C61.5218463,150.220501 61.2037365,150.594732 60.9165112,150.98887 C60.7919439,151.159066 60.7137033,151.212812 60.5181018,151.057545 C60.092926,150.721135 59.6512784,150.405626 59.2003655,150.103056 C58.9893218,149.960728 58.9574079,149.852241 59.1262428,149.656167 C59.3815542,149.359569 59.5967159,149.030125 59.8571747,148.738504 C60.0249802,148.551388 60.0002726,148.421004 59.8509978,148.244836 C59.5833326,147.926341 59.3424339,147.586945 59.0778572,147.267455 C58.9656437,147.132094 58.9707911,147.057447 59.1190365,146.953936 C59.6039223,146.61454 60.0846901,146.267181 60.5551632,145.908874 C60.7034085,145.795411 60.7765017,145.821288 60.8784204,145.954658 C61.1872648,146.363725 61.5156694,146.758858 61.8193665,147.172902 C61.9408453,147.338121 62.0715894,147.406796 62.2826331,147.40381 C63.0701865,147.392862 63.8567104,147.393857 64.6432342,147.40381 C64.8614843,147.406796 65.0014938,147.361013 65.046791,147.134085 C65.0972356,146.88128 65.4204928,146.672267 65.0694396,146.368702 C64.5124901,145.885983 63.9936314,145.361461 63.4768317,144.83694 C63.2904955,144.646838 63.1051889,144.594087 62.8478185,144.638876 C62.3814634,144.718499 61.9099608,144.766274 61.4425762,144.841916 C61.2088839,144.879737 61.1007884,144.809071 61.0709334,144.579158 C61.0019581,144.040702 60.9237175,143.504237 60.8351821,142.967772 C60.7970913,142.74184 60.928865,142.701033 61.1059358,142.679136 C61.5136105,142.628376 61.9202557,142.561691 62.3289598,142.527851 C62.5451509,142.50894 62.6285389,142.430312 62.6532465,142.22329 C62.7026616,141.793322 62.7881086,141.366339 62.8416416,140.935376 C62.8622312,140.776128 62.9137053,140.740298 63.0784223,140.76518 C63.6816985,140.854757 64.2880631,140.931395 64.8944277,141.003056 C65.0601743,141.022962 65.100324,141.088652 65.074587,141.241927 C64.9901695,141.764458 64.9263417,142.291966 64.8316294,142.814496 C64.7997154,142.991659 64.8419242,143.107114 64.9706094,143.22854 C65.549178,143.777944 66.1277466,144.330334 66.6898435,144.894667 C66.8442657,145.049933 66.9554497,144.999173 67.1397269,144.960357 C67.6678509,144.847888 67.7584453,144.541337 67.7285903,144.076533 C67.6874111,143.450491 67.7100597,142.820468 67.7224134,142.193431 C67.7275609,141.979442 67.6668214,141.83811 67.4784263,141.711708 C67.0583979,141.430038 66.6620475,141.115525 66.2451075,140.827884 C66.075243,140.710439 66.0546534,140.619867 66.188486,140.455643 C66.5364507,140.029656 66.8720617,139.593716 67.2004663,139.153795 C67.328122,138.982603 67.4259228,138.943787 67.6143179,139.091091 Z M70.7282303,139.125309 C71.0713891,139.583419 71.4217398,140.037553 71.7864744,140.479762 C71.9272311,140.651677 71.8789423,140.739125 71.7207194,140.850423 C71.2974218,141.147548 70.8895355,141.464548 70.4631556,141.757698 C70.3028778,141.867008 70.2391777,141.980293 70.24226,142.171089 C70.254589,142.930298 70.2556165,143.690501 70.24226,144.44971 C70.2391777,144.661374 70.2884939,144.789565 70.5165815,144.834283 C70.6244607,144.855151 70.7395319,144.891919 70.8268628,144.953531 C71.012826,145.084703 71.124815,145.014148 71.2645443,144.875026 C71.7854469,144.356299 72.307377,143.837573 72.8549926,143.344683 C73.0758882,143.145937 73.131369,142.940235 73.085135,142.672922 C73.0121881,142.258537 72.9525976,141.842165 72.8817056,141.42778 C72.8385539,141.175373 72.843691,141.015382 73.202261,140.99352 C73.758096,140.959733 74.3108487,140.856385 74.8615466,140.763969 C75.052647,140.731176 75.0937438,140.784837 75.1153197,140.954765 C75.1666908,141.384056 75.2571038,141.809372 75.3033378,142.238663 C75.3269685,142.459271 75.445122,142.514919 75.6372498,142.535788 C76.0574651,142.582493 76.4756256,142.64311 76.8948136,142.687828 C77.059201,142.704722 77.1516689,142.756396 77.1229011,142.934273 C77.0314606,143.516598 76.9379653,144.09793 76.8588538,144.681249 C76.8321408,144.875026 76.7561117,144.898875 76.5650113,144.865089 C76.0646571,144.777641 75.5581383,144.723979 75.0536744,144.651437 C74.8615466,144.623613 74.7033237,144.631562 74.5492105,144.786584 C73.9954304,145.342079 73.431376,145.88863 72.8570474,146.42425 C72.7008794,146.570328 72.7378666,146.682619 72.7810183,146.862484 C72.8940346,147.334505 73.1806852,147.431891 73.6378877,147.40506 C74.2841358,147.367299 74.9344935,147.381211 75.581769,147.402079 C75.8530083,147.411023 76.0163683,147.318606 76.1653444,147.11191 C76.4273368,146.746218 76.7345358,146.409344 76.9841992,146.035702 C77.156806,145.778326 77.2893434,145.818075 77.4968825,145.980053 C77.915043,146.303015 78.3475874,146.60809 78.7760221,146.919127 C78.8428045,146.967819 78.895203,147.049305 79,147.023468 L79,147.167559 C78.8119819,147.535239 78.5397152,147.846276 78.2777228,148.161288 C78.0845675,148.393821 78.0619643,148.574679 78.2674485,148.819137 C78.5386878,149.140111 78.8284206,149.455123 79,149.844665 L79,149.917207 C78.4729328,150.300787 77.9376463,150.673435 77.4239356,151.073908 C77.2328352,151.221974 77.1506415,151.184212 77.0242686,151.012297 C76.7283713,150.609837 76.4067884,150.226257 76.1078088,149.825784 C75.9968472,149.676725 75.8828035,149.601202 75.6804015,149.604183 C74.8831225,149.615114 74.0858434,149.61412 73.2885644,149.605176 C73.085135,149.603189 72.9495154,149.643932 72.9176653,149.858577 C72.882733,150.100054 72.5385468,150.295818 72.8673217,150.591949 C73.450897,151.117632 74.0036497,151.67412 74.5615396,152.224646 C74.6889398,152.35085 74.8132578,152.389605 74.9920291,152.360787 C75.5314254,152.275327 76.0749313,152.214709 76.6122727,152.122292 C76.7889891,152.091487 76.8280312,152.150117 76.849607,152.293214 C76.9379653,152.887464 77.0294058,153.481714 77.1239285,154.07497 C77.1547512,154.265766 77.0283783,154.296572 76.8845393,154.315452 C76.4787079,154.369114 76.0739039,154.44265 75.6660176,154.465506 C75.411217,154.479418 75.3218314,154.576803 75.2951184,154.804367 C75.2458022,155.210802 75.1625811,155.611275 75.1163471,156.01771 C75.0968261,156.198569 75.064976,156.264155 74.8492175,156.230368 C74.2492034,156.132983 73.6450797,156.059447 73.0399285,155.994855 C72.8159506,155.970011 72.8570474,155.830889 72.8724588,155.708661 C72.9258847,155.291294 72.9669815,154.869953 73.0604769,154.461531 C73.1426706,154.094845 73.0707511,153.830513 72.7727989,153.571149 C72.2560059,153.119003 71.771063,152.631082 71.2902298,152.142167 C71.1258424,151.97522 70.9922776,151.928515 70.7888482,152.066643 C70.6891883,152.13223 70.5638429,152.173966 70.444662,152.198809 C70.2730826,152.234584 70.2432874,152.329982 70.2453423,152.481028 C70.2515068,153.276012 70.2515068,154.071989 70.2443148,154.866972 C70.2432874,155.02895 70.2946585,155.127329 70.4323329,155.222727 C70.8587128,155.515877 71.2676265,155.830889 71.6898967,156.129008 C71.8645584,156.253224 71.941615,156.344647 71.7648985,156.550349 C71.4083833,156.966722 71.0806358,157.408931 70.7549433,157.849153 C70.6244607,158.025043 70.5248009,158.05088 70.3419199,157.906789 C69.9463626,157.595752 69.5333392,157.305583 69.1264803,157.007465 C68.9857236,156.872317 69.0083269,156.696427 69.0083269,156.531468 C69.0042172,154.609596 69.0042172,152.687724 69.0083269,150.765852 C69.0083269,150.575056 68.9949704,150.37631 69.1511385,150.22427 C69.2590177,150.132847 69.398747,150.118934 69.5282021,150.080179 C70.2720552,149.863546 70.829945,149.162967 70.8052869,148.478288 C70.778574,147.716097 70.2432874,147.100979 69.4429261,146.919127 C69.2579903,146.876396 69.0648351,146.858509 69.0288753,146.624983 C68.9775042,145.744539 69.0114091,144.865089 69.006272,143.984645 C69.0001075,142.839869 69.0031898,141.694099 69.0072995,140.549323 C69.0083269,140.360515 68.9703123,140.158788 69.1223707,139.997804 C69.5384763,139.691735 69.9586917,139.390635 70.3696602,139.078604 C70.5196638,138.964325 70.6121317,138.970288 70.7282303,139.125309 Z" id="Combined-Shape" fill="#1ECAD3">
			</path>
			<path d="M20.7961277,155 C17.516334,154.97235 14.6630426,153.889053 12.221341,151.686908 C9.9695275,149.653627 8.62341026,147.150292 8.15117563,144.191715 C7.76941121,141.800956 8.1203561,139.486236 9.09465071,137.265328 C9.73490145,135.806777 10.5988423,134.503266 11.76899,133.414043 C12.0394064,133.161241 12.0493482,132.878814 12.0493482,132.558861 C12.0463657,123.843107 12.0006335,115.127354 12.0712201,106.411601 C12.0970688,103.194297 13.6927247,100.765025 16.495313,99.1227976 C17.5183223,98.5233797 18.6496971,98.2695899 19.782066,98 L20.7901627,98 C20.8498134,98.0720881 20.9154291,98.1481263 20.9204,98.2409522 C20.9711031,99.2511737 21.0585908,100.26337 20.8687027,101.269642 C20.5933154,101.596507 20.1827198,101.516519 19.8297866,101.589595 C17.6366295,102.043849 15.9803287,103.710764 15.6224246,105.847733 C15.5667506,106.179536 15.5727156,106.513314 15.5727156,106.847092 C15.5717215,115.752447 15.563768,124.65879 15.5866341,133.565132 C15.5886225,134.361064 15.3370954,134.896294 14.7296526,135.425599 C10.3055597,139.281821 10.519308,145.964294 15.1412423,149.563764 C16.6265445,150.721124 18.3236066,151.328442 20.1916674,151.499281 C20.429276,151.521006 20.685774,151.495331 20.8577668,151.719496 C21.0029168,152.816618 21.1112822,153.911765 20.7961277,155" id="Fill-35" fill="#DBDBDB">
			</path>
			<path d="M21,101.387911 C21,100.258941 21,99.1289696 21,98 L22.1543556,98 C23.0661737,98.2544439 23.9974358,98.4387655 24.8611558,98.857496 C27.6559653,100.210857 29.287209,102.40769 29.8828073,105.377872 C30.0097046,106.009974 30.0004943,106.646084 29.9994709,107.283196 C29.9984476,113.787543 29.9984476,120.292892 29.9984476,126.79724 C29.946256,126.853338 29.8858774,126.912441 29.8111718,126.91745 C28.7284517,126.988574 27.6457317,127.082738 26.5681284,126.864357 C26.2744227,126.569843 26.3685723,126.193186 26.3675489,125.846582 C26.3614087,119.582653 26.3634554,113.319727 26.3634554,107.055799 C26.3634554,105.474039 25.8313057,104.108657 24.6503426,103.005733 C23.8777021,102.285476 22.9710008,101.827678 21.9138649,101.654375 C21.6314161,101.608295 21.3397571,101.592267 21.075729,101.461038 C21.0511682,101.436996 21.0255841,101.412954 21,101.387911" id="Fill-36" fill="#C9C9CE">
			</path>
			<path d="M21.0060814,154.9773 C21.0040543,153.882484 21.0020271,152.786696 21,151.690907 C21.0222985,151.67047 21.044597,151.650034 21.065882,151.628624 C21.6963217,151.491407 22.3429786,151.451507 22.9764591,151.326941 C26.95573,150.541594 29.9822463,147.25812 30.3430768,143.362523 C30.6329575,140.233783 29.4977605,137.667536 27.066209,135.615121 C26.5584111,135.185954 26.2796797,134.745108 26.3161681,134.064862 C26.3739416,132.98951 26.3263038,131.908319 26.3354259,130.830047 C26.3374531,130.563399 26.2847475,130.266582 26.593886,130.093358 C27.6003597,129.938624 28.6098742,130.016478 29.6193887,130.0447 C29.7308813,130.047619 29.8352789,130.10017 29.9123101,130.187755 C29.9123101,131.119079 29.9224458,132.050402 29.9072422,132.981725 C29.903188,133.275622 29.9822463,133.496531 30.206245,133.708682 C32.2658167,135.657941 33.5094656,138.035394 33.8763775,140.765134 C34.3872161,144.574119 33.3168875,147.963668 30.6278896,150.85982 C28.5865621,153.056263 26.0313553,154.332089 23.0443682,154.841056 C22.3784535,154.954917 21.693281,155.043475 21.0060814,154.9773" id="Fill-37" fill="#C9C9CE">
			</path>
			<path d="M30.0400388,129.953608 C28.9054827,129.953608 27.7709265,129.95461 26.6363703,129.955612 C26.5991222,129.962625 26.5628808,129.97064 26.5266395,129.977653 C24.9209455,130.021736 23.3152515,129.984667 21.7105642,129.997691 C21.2323795,130.0027 21.0169447,129.783288 21.0109045,129.320419 C21.0088911,129.114031 21.0038576,128.907643 21.0038576,128.700254 C21.0038576,121.575871 21.0038576,114.451489 21.005871,107.327107 C21.005871,106.990474 20.9676162,106.648833 21.0864073,106.321217 C21.1186219,106.251085 21.1679504,106.195982 21.2333862,106.153903 C21.2847282,106.131862 21.3350634,106.103809 21.3914389,106.09379 C22.8219662,105.83831 23.0746491,106.044698 23.0746491,107.469374 C23.0746491,113.285299 23.0746491,119.101223 23.0746491,124.91815 C23.0746491,125.068432 23.0746491,125.218714 23.0756558,125.368996 C23.0806893,126.244641 23.0967966,126.262675 23.9524956,126.266683 C24.5957799,126.268686 25.2390642,126.262675 25.8813418,126.268686 C26.1450984,126.271692 26.415902,126.253658 26.6363703,126.445018 C27.7709265,126.44602 28.9054827,126.44602 30.0400388,126.447021 C30.8876842,126.454035 31.7353295,126.474072 32.5819682,126.46205 C32.903107,126.45704 33.0057909,126.560234 32.9997506,126.878833 C32.9816299,127.759487 32.9816299,128.641143 32.9997506,129.521797 C33.0057909,129.841397 32.9021003,129.942587 32.5809615,129.93858 C31.7343228,129.926557 30.8876842,129.946595 30.0400388,129.953608" id="Fill-38" fill="#0E477E">
			</path>
			<path d="M20.8096209,151 C17.0879174,150.901895 14.2612023,149.342018 12.337753,146.322333 C11.338263,144.754608 10.8850781,143.033839 11.0247584,141.216927 C11.2306575,138.532762 12.3822438,136.274375 14.624371,134.564397 C15.0206492,134.263214 15.2265483,133.927693 15.2255136,133.396943 C15.2037855,124.316304 15.2099936,115.235666 15.2110282,106.155027 C15.2110282,103.771065 17.226563,101.524451 19.7170107,101.109465 C20.0801795,101.048639 20.4392095,100.981928 20.8096209,101.004492 C20.9948267,101.19776 20.9948267,101.439099 20.9958613,101.677495 C21.0010347,102.920491 21.0020693,104.164468 20.9948267,105.408445 C20.993792,105.644879 21.0020693,105.889161 20.8034129,106.076543 L20.8147943,106.106955 C20.5654391,106.296299 20.2664198,106.26 19.9777473,106.270791 C19.3083166,106.295318 19.2658951,106.33456 19.2503751,106.982056 C19.2452018,107.201812 19.2493404,107.42353 19.2483058,107.644267 C19.2420978,114.82068 19.2627911,121.997092 19.2400284,129.172523 C19.194503,131.103238 19.2079537,133.035915 19.2348551,134.96663 C19.2441671,135.644538 19.028956,136.019301 18.3419359,136.308712 C14.8085421,137.796971 13.5141714,141.533807 15.421066,144.725177 C16.261217,146.131028 17.560761,147.02673 19.216231,147.449564 C19.7025254,147.574158 20.2157211,147.579064 20.690634,147.757616 C20.8717011,147.865532 20.9544746,148.032311 20.9658559,148.221654 C21.012416,149.032005 21.0072427,149.841375 20.9689599,150.651726 C20.9627519,150.783187 20.9017065,150.898951 20.8096209,151" id="Fill-39" fill="#FCF0F1">
			</path>
			<path d="M21,106.090448 C21.0018455,104.393304 21.003691,102.697144 21.0055364,101 C23.7442244,101.01772 25.9966292,103.414788 25.9984747,106.32474 C26.0012429,112.873117 25.9993974,119.42051 25.9993974,125.967903 C25.0305219,125.974793 24.0607237,125.956089 23.092771,125.99842 C22.6470883,126.018108 22.5548144,125.855678 22.5557372,125.407766 C22.570501,120.513219 22.5649646,115.619655 22.5649646,110.726092 C22.5649646,109.34101 22.5557372,107.955928 22.5723465,106.570846 C22.5760374,106.218423 22.492991,106.072728 22.1414276,106.098323 C21.7631048,106.125887 21.381091,106.09537 21,106.090448" id="Fill-40" fill="#E5E5EA">
			</path>
			<path d="M21.2362576,151.990912 C21.2362576,151.106564 21.2310765,150.223208 21.2393662,149.338859 C21.2424749,149.107599 21.2310765,148.898174 21,148.765174 C21.0549195,148.676838 21.1450705,148.641107 21.2435111,148.618279 C24.0651315,148.508108 26.0277275,147.177118 27.0846693,144.698759 C28.3105147,141.824378 26.768623,138.331648 23.7625559,137.143583 C23.0475658,136.860711 22.7947288,136.485533 22.8144169,135.764952 C22.8589742,134.087568 22.8216704,132.409192 22.8351412,130.731808 C22.8372137,130.473749 22.7294471,130.155145 23.0931594,130.003287 C24.3428378,130.017183 25.5904437,129.975496 26.8380496,130.025123 L26.8442669,130.061847 C26.8442669,131.365045 26.9178383,132.673206 26.816289,133.968464 C26.7551522,134.746612 27.1458062,135.155536 27.6670236,135.592251 C29.5860985,137.200158 30.6782717,139.212026 30.9425072,141.654654 C31.2191773,144.204476 30.4927888,146.462493 28.8607462,148.456496 C27.2856955,150.381021 25.2039345,151.506555 22.6797086,151.879748 C22.2009761,151.950218 21.7232798,152.026644 21.2362576,151.990912" id="Fill-41" fill="#E5E5EA">
			</path>
			<path d="M26,129.776391 C24.78103,129.790459 23.5620601,129.803522 22.3421062,129.817589 C21.8137875,130.128084 21.2382448,129.93817 20.6843464,129.975349 C20.1324157,129.930131 19.5529377,130.144161 19.0315058,129.798497 C19.024619,129.04487 19.0118291,128.291243 19.0118291,127.536611 C19.0108453,120.578119 19.0167483,113.618623 19,106.660131 C18.9980554,106.145655 19.1210347,105.946697 19.6355797,106.012012 C19.9809053,106.056225 20.3360693,106.029094 20.6863141,106.034118 C20.6843464,113.743222 20.6853303,121.452327 20.6725404,129.161431 C20.6715566,129.578438 20.781746,129.716101 21.2008591,129.709067 C22.6028222,129.684951 24.0057691,129.697009 25.4077321,129.703038 C25.6064665,129.704043 25.8160231,129.644757 26,129.776391" id="Fill-42" fill="#012A60">
			</path>
			<path d="M19.2498801,130 L20.8242361,130.015113 C21.0093991,130.230724 20.9971803,130.502757 20.9971803,130.765723 C21.0009399,136.585216 21.0009399,142.403701 20.9971803,148.223194 C20.9962403,148.485152 21.0140987,148.757185 20.8289356,148.974812 C20.7565623,148.982872 20.6841889,148.99194 20.6108756,149 C17.1811293,148.762223 14.7401726,145.867589 15.0221468,142.209248 C15.2091897,139.778078 16.4338977,138.012886 18.540245,137.042634 C19.0722363,136.797805 19.2630389,136.532824 19.2489402,135.897073 C19.2057041,133.932389 19.2433007,131.965691 19.2498801,130" id="Fill-43" fill="#1FC7D1">
			</path>
			<path d="M21.0048378,148.985682 C21.0038702,142.656785 21.0019351,136.328897 21,130 C21.5457049,130.001009 22.0904423,130.002018 22.6361472,130.004036 C22.6361472,132.070285 22.6448553,134.136534 22.6274392,136.202783 C22.6245365,136.580116 22.7232278,136.757684 23.078323,136.899941 C25.6191407,137.919949 27.1149914,140.332255 26.9930786,143.157205 C26.8837441,145.711767 25.0908519,148.017128 22.6158284,148.786927 C22.0904423,148.949362 21.5553806,149.036128 21.0048378,148.985682" id="Fill-44" fill="#1DBDBD">
			</path>
			<polygon id="Fill-45" fill="#FFCD00" points="39 126 75 126 75 87 39 87">
			</polygon>
			<path d="M112.027522,159.524008 C87.401743,164.602122 47.8679196,164 47.8679196,164 L18,164 C18,164 26.4526428,175.41887 39.8662088,175.41887 C43.5453867,174.307817 105.501869,189.89608 118.574017,187.807063 C127.804218,186.332231 144.388804,179.177917 152.681098,141.895036 L156,129.604442 L131.790077,118 C131.790077,118 123.24172,157.211204 112.027522,159.524008 Z" id="Fill-46" fill="#FCBFBF">
			</path>
			<path d="M162.073844,99.9234429 C162.073844,99.9234429 168.131227,111.688168 158.762157,145 L125,128.986272 C125,128.986272 138.562949,71.4193817 162.073844,99.9234429" id="Fill-47" fill="#FFCD00">
			</path>
			<path d="M126.031032,131 C126.117985,131.020601 126.380818,130.209661 126.784948,128.724771 C127.188091,127.240882 127.732531,125.082043 128.376769,122.408242 C129.668209,117.063639 131.356862,109.645192 133.159147,101.461801 C133.628492,99.4369514 134.174908,97.4980957 135.070122,95.8252202 C135.944586,94.1433454 137.225157,92.8064449 138.732989,91.8845135 C141.775332,90.023652 145.281092,89.7336736 148.067519,90.0616492 C150.891494,90.3926246 153.115695,91.2055641 154.622539,91.7835211 C156.132348,92.3724772 156.952466,92.7594484 156.998907,92.6774545 C157.032502,92.6154591 156.291431,92.0874984 154.815218,91.3535531 C153.339004,90.6366064 151.106898,89.6656787 148.151507,89.2057129 C145.236628,88.7517467 141.453214,88.935733 138.071954,90.9235851 C136.393181,91.9035121 134.914991,93.4153996 133.950611,95.2382639 C132.961528,97.0541288 132.388433,99.0879774 131.912172,101.147824 C130.10297,109.358213 128.558578,116.79166 127.492424,122.195257 C126.960829,124.896056 126.552746,127.085893 126.298806,128.60778 C126.041901,130.129667 125.94408,130.978604 126.031032,131" id="Fill-48" fill="#000000">
			</path>
			<path d="M124.002256,129.020612 C123.848648,129.334908 131.558157,133.161917 141.222402,137.569838 C150.886646,141.976786 158.84514,145.291971 158.997744,144.979622 C159.151352,144.665326 151.440839,140.838317 141.774587,136.432342 C132.113354,132.023447 124.155864,128.706317 124.002256,129.020612" id="Fill-49" fill="#000000">
			</path>
			<path d="M1.34615385,120 C1.34615385,120 0,120.090852 0,121.59694 C0,122.482048 0.691268191,123 1.34615385,123 C2.0010395,123 3,122.153294 3,121.618483 C3,121.082735 2.06860707,120 1.34615385,120" id="Fill-50" fill="#AA9D65">
			</path>
			<path d="M1.52249869,124 C1.52249869,124 -0.126913147,125.208082 0.00782753819,126.282865 C0.14349747,127.357649 0.869238679,128 1.52249869,128 C2.1757587,128 3,126.963002 3,126.309105 C3,125.654159 2.24266442,124 1.52249869,124" id="Fill-51" fill="#AA9D65">
			</path>
			<path d="M1.52249869,126 C1.52249869,126 -0.126913147,127.208082 0.00782753819,128.282865 C0.14349747,129.357649 0.869238679,130 1.52249869,130 C2.1757587,130 3,128.963002 3,128.309105 C3,127.654159 2.24266442,126 1.52249869,126" id="Fill-52" fill="#AA9D65">
			</path>
			<path d="M2.0150709,129 C2.0150709,129 0.914739206,129.907024 1.00529819,130.71225 C1.09505576,131.518493 1.44607199,132 1.88203735,132 C2.31720131,132 3,131.22226 3,130.731591 C3,130.240923 2.49511364,129 2.0150709,129" id="Fill-53" fill="#AA9D65">
			</path>
			<path d="M1.51851852,120 C1.51851852,120 0,120.090852 0,121.59694 C0,122.482048 0.863425926,123 1.51851852,123 C2.17361111,123 3,122.153294 3,121.618483 C3,121.082735 2.24074074,120 1.51851852,120" id="Fill-54" fill="#FCBFBF">
			</path>
			<path d="M1.52257991,124 C1.52257991,124 -0.1276197,125.20904 0.00791393551,126.283513 C0.143447571,127.357987 0.869742321,128 1.52257991,128 C2.1754175,128 3,126.963534 3,126.309194 C3,125.654854 2.24266701,124 1.52257991,124" id="Fill-55" fill="#FCBFBF">
			</path>
			<path d="M1.52257991,126 C1.52257991,126 -0.1276197,127.20904 0.00791393551,128.283513 C0.143447571,129.357987 0.869742321,130 1.52257991,130 C2.1754175,130 3,128.963534 3,128.309194 C3,127.654854 2.24266701,126 1.52257991,126" id="Fill-56" fill="#FCBFBF">
			</path>
			<path d="M2.01511349,129 C2.01511349,129 0.915145133,129.906676 1.00524797,130.71272 C1.09535082,131.517768 1.57976511,132 2.01511349,132 C2.45046187,132 3,131.221853 3,130.731651 C3,130.240452 2.49506724,129 2.01511349,129" id="Fill-57" fill="#FCBFBF">
			</path>
		</g>
		<g id="atoms/ico/24px/ico_correos" transform="translate(51.000000, 108.000000)" fill="#002E6D">
			<path d="M13.7501667,8.08308333 L10.0001667,8.08308333 L6.25016667,8.08308333 L6.25016667,7.44975 L6.25016667,6.81641667 L10.0001667,6.81641667 L13.7501667,6.81641667 L13.7501667,7.44975 L13.7501667,8.08308333 Z M11.2501667,14.0989167 C11.2501667,13.3989167 10.6901667,12.8314167 10.0001667,12.8314167 C9.30933333,12.8314167 8.75016667,13.3989167 8.75016667,14.0989167 C8.75016667,14.7980833 9.30933333,15.3655833 10.0001667,15.3655833 C10.6901667,15.3655833 11.2501667,14.7980833 11.2501667,14.0989167 L11.2501667,14.0989167 Z M10.0001667,17.89975 C14.4085,17.89975 18.0643333,14.5964167 18.6626667,10.2980833 L17.3968333,10.2980833 C16.8043333,13.8939167 13.7168333,16.63225 10.0001667,16.63225 C8.61933333,16.63225 7.50183333,15.4980833 7.50183333,14.0989167 C7.50183333,12.69975 8.61933333,11.5664167 10.0001667,11.5664167 C11.381,11.5664167 12.5001667,12.6664167 12.5001667,14.0989167 C12.5001667,14.3780833 12.4443333,14.64225 12.3618333,14.8939167 C12.861,14.68725 13.3243333,14.4139167 13.7501667,14.0905833 C13.7501667,11.99975 12.0701667,10.2989167 10.0001667,10.2989167 C7.92933333,10.2989167 6.25016667,11.99975 6.25016667,14.0989167 C6.25016667,16.19725 7.92933333,17.89975 10.0001667,17.89975 L10.0001667,17.89975 Z M1.34933333,10.2980833 C1.746,13.0989167 3.4235,15.4764167 5.771,16.7930833 C5.28516667,16.01225 5.00016667,15.0905833 5.00016667,14.0989167 L5.00016667,14.0989167 L5.00016667,10.2980833 L1.34933333,10.2980833 Z M16.2501667,9.03141667 L20.0001667,9.03141667 C20.0001667,14.6289167 15.5226667,19.1664167 10.0001667,19.1664167 C4.47766667,19.1664167 0.000166666667,14.6289167 0.000166666667,9.03141667 L6.25016667,9.03141667 L6.25016667,10.7555833 C7.166,9.70058333 8.50433333,9.03141667 10.0001667,9.03141667 C12.3851667,9.03141667 14.3768333,10.72475 14.876,12.98975 C15.7351667,11.9055833 16.2501667,10.52975 16.2501667,9.03141667 L16.2501667,9.03141667 Z M13.1251667,2.06308333 C14.5051667,2.06308333 15.6251667,3.19725 15.6251667,4.59641667 L15.6251667,5.86391667 L14.3751667,5.86391667 L14.3751667,4.59641667 C14.3751667,3.89725 13.8151667,3.32975 13.1251667,3.32975 C13.0135,3.32975 12.9068333,3.34975 12.8035,3.37725 C13.0018333,3.74058333 13.1251667,4.15225 13.1251667,4.59641667 L13.1251667,5.86391667 L11.8751667,5.86391667 L11.8751667,4.59641667 C11.8751667,3.89725 11.3151667,3.32975 10.6251667,3.32975 L10.6251667,5.86391667 L9.37516667,5.86391667 L9.37516667,3.32975 C8.68433333,3.32975 8.12516667,3.89725 8.12516667,4.59641667 L8.12516667,5.86391667 L6.87516667,5.86391667 L6.87516667,4.59641667 C6.87516667,4.15225 6.99766667,3.74058333 7.19683333,3.37808333 C7.0935,3.34975 6.98683333,3.32975 6.87516667,3.32975 C6.18433333,3.32975 5.62516667,3.89725 5.62516667,4.59641667 L5.62516667,5.86391667 L4.37516667,5.86391667 L4.37516667,4.59641667 C4.37516667,3.19725 5.49433333,2.06308333 6.87516667,2.06308333 C7.33433333,2.06308333 7.76266667,2.19141667 8.13183333,2.41058333 C8.49933333,2.19558333 8.92016667,2.06308333 9.37516667,2.06308333 C9.58766667,2.06308333 9.79016667,2.09891667 9.98683333,2.14891667 C10.191,2.09475 10.4043333,2.06308333 10.6251667,2.06308333 C11.0826667,2.06308333 11.5051667,2.19641667 11.8743333,2.41391667 C12.2435,2.19641667 12.6676667,2.06308333 13.1251667,2.06308333 L13.1251667,2.06308333 Z M10.2726667,0.59725 L10.8618333,0.59725 L10.8618333,1.14975 L10.2726667,1.14975 L10.2726667,1.74641667 L9.72766667,1.74641667 L9.72766667,1.14975 L9.1385,1.14975 L9.1385,0.59725 L9.72766667,0.59725 L9.72766667,-0.00025 L10.2726667,-0.00025 L10.2726667,0.59725 Z" id="Fill-1">
			</path>
		</g>
	</g>
</svg>
