<?xml version="1.0" encoding="UTF-8"?>
<svg width="112px" height="112px" viewBox="0 0 112 112" version="1.1" xmlns="http://www.w3.org/2000/svg" xmlns:xlink="http://www.w3.org/1999/xlink">
    <title>atoms/img/ilustraciones/round_base/farmacia_hospitalaria</title>
    <defs>
        <polygon id="path-1" points="0 0 110.599685 0 110.599685 111.999858 0 111.999858"></polygon>
        <polygon id="path-3" points="0 0 111.99986 0 111.99986 1.41804462 0 1.41804462"></polygon>
    </defs>
    <g id="atoms/img/ilustraciones/round_base/farmacia_hospitalaria" stroke="none" stroke-width="1" fill="none" fill-rule="evenodd">
        <g id="Group-52" transform="translate(-0.000000, 0.000142)">
            <g id="Group-3" transform="translate(0.430737, 0.000000)">
                <mask id="mask-2" fill="white">
                    <use xlink:href="#path-1"></use>
                </mask>
                <g id="Clip-2"></g>
                <path d="M110.599685,56 C110.599685,25.0724469 85.8407142,0 55.2998425,0 C24.7589708,0 0,25.0724469 0,56 C0,86.9275531 24.7589708,112 55.2998425,112 C85.8407142,112 110.599685,86.9275531 110.599685,56" id="Fill-1" fill="#FFCD00" mask="url(#mask-2)"></path>
            </g>
            <line x1="0.700157535" y1="79.4839533" x2="111.299842" y2="79.4839533" id="Fill-4" fill="#002453"></line>
            <g id="Group-8" transform="translate(0.000000, 78.774931)">
                <mask id="mask-4" fill="white">
                    <use xlink:href="#path-3"></use>
                </mask>
                <g id="Clip-7"></g>
                <path d="M111.299702,1.41804462 L0.700017504,1.41804462 C0.313530544,1.41804462 -0.000140031507,1.10040262 -0.000140031507,0.709022309 C-0.000140031507,0.317641994 0.313530544,0 0.700017504,0 L111.299702,0 C111.686189,0 111.99986,0.317641994 111.99986,0.709022309 C111.99986,1.10040262 111.686189,1.41804462 111.299702,1.41804462" id="Fill-6" fill="#0A244E" mask="url(#mask-4)"></path>
            </g>
            <path d="M76.6105374,79.2155175 L31.7696482,79.2155175 L31.7696482,23.3431415 C31.7696482,22.3632726 32.5538246,21.5705857 33.520042,21.5705857 L74.8601435,21.5705857 C75.8263609,21.5705857 76.6105374,22.3632726 76.6105374,23.3431415 L76.6105374,79.2155175 Z" id="Fill-9" fill="#FFFFFF"></path>
            <path d="M32.4698057,78.5064952 L75.9103798,78.5064952 L75.9103798,23.3431415 C75.9103798,22.756071 75.439874,22.279608 74.8601435,22.279608 L33.520042,22.279608 C32.9403116,22.279608 32.4698057,22.756071 32.4698057,23.3431415 L32.4698057,78.5064952 Z M76.6105374,79.9245398 L31.7696482,79.9245398 C31.3831612,79.9245398 31.0694906,79.6068978 31.0694906,79.2155175 L31.0694906,23.3431415 C31.0694906,21.9747284 32.168738,20.8615634 33.520042,20.8615634 L74.8601435,20.8615634 C76.2114476,20.8615634 77.3106949,21.9747284 77.3106949,23.3431415 L77.3106949,79.2155175 C77.3106949,79.6068978 76.9970243,79.9245398 76.6105374,79.9245398 L76.6105374,79.9245398 Z" id="Fill-11" fill="#1D294A"></path>
            <polygon id="Fill-13" fill="#CBCBCB" points="39.591108 37.0235851 44.5972344 37.0235851 44.5972344 30.6608189 39.591108 30.6608189"></polygon>
            <path d="M40.2912655,36.3145628 L43.8970768,36.3145628 L43.8970768,31.3698412 L40.2912655,31.3698412 L40.2912655,36.3145628 Z M44.5972344,37.7326074 L39.591108,37.7326074 C39.204621,37.7326074 38.8909505,37.4149654 38.8909505,37.0235851 L38.8909505,30.6608189 C38.8909505,30.2694386 39.204621,29.9517966 39.591108,29.9517966 L44.5972344,29.9517966 C44.9851217,29.9517966 45.2973919,30.2694386 45.2973919,30.6608189 L45.2973919,37.0235851 C45.2973919,37.4149654 44.9851217,37.7326074 44.5972344,37.7326074 L44.5972344,37.7326074 Z" id="Fill-15" fill="#1D294A"></path>
            <polygon id="Fill-16" fill="#CBCBCB" points="39.591108 50.1603505 44.5972344 50.1603505 44.5972344 43.7975843 39.591108 43.7975843"></polygon>
            <path d="M40.2912655,49.4513282 L43.8970768,49.4513282 L43.8970768,44.5066066 L40.2912655,44.5066066 L40.2912655,49.4513282 Z M44.5972344,50.8693728 L39.591108,50.8693728 C39.204621,50.8693728 38.8909505,50.5517308 38.8909505,50.1603505 L38.8909505,43.7975843 C38.8909505,43.4062039 39.204621,43.088562 39.591108,43.088562 L44.5972344,43.088562 C44.9851217,43.088562 45.2973919,43.4062039 45.2973919,43.7975843 L45.2973919,50.1603505 C45.2973919,50.5517308 44.9851217,50.8693728 44.5972344,50.8693728 L44.5972344,50.8693728 Z" id="Fill-17" fill="#1D294A"></path>
            <polygon id="Fill-18" fill="#CBCBCB" points="39.591108 63.2985338 44.5972344 63.2985338 44.5972344 56.9357676 39.591108 56.9357676"></polygon>
            <path d="M40.2912655,62.5895115 L43.8970768,62.5895115 L43.8970768,57.64479 L40.2912655,57.64479 L40.2912655,62.5895115 Z M44.5972344,64.0075562 L39.591108,64.0075562 C39.204621,64.0075562 38.8909505,63.6899142 38.8909505,63.2985338 L38.8909505,56.9343496 C38.8909505,56.5429693 39.204621,56.2253273 39.591108,56.2253273 L44.5972344,56.2253273 C44.9851217,56.2253273 45.2973919,56.5429693 45.2973919,56.9343496 L45.2973919,63.2985338 C45.2973919,63.6899142 44.9851217,64.0075562 44.5972344,64.0075562 L44.5972344,64.0075562 Z" id="Fill-19" fill="#1D294A"></path>
            <polygon id="Fill-20" fill="#CBCBCB" points="51.6870296 50.1603505 56.693156 50.1603505 56.693156 43.7975843 51.6870296 43.7975843"></polygon>
            <path d="M52.3871871,49.4513282 L55.9929984,49.4513282 L55.9929984,44.5066066 L52.3871871,44.5066066 L52.3871871,49.4513282 Z M56.693156,50.8693728 L51.6870296,50.8693728 C51.3005426,50.8693728 50.986872,50.5517308 50.986872,50.1603505 L50.986872,43.7975843 C50.986872,43.4062039 51.3005426,43.088562 51.6870296,43.088562 L56.693156,43.088562 C57.0796429,43.088562 57.3933135,43.4062039 57.3933135,43.7975843 L57.3933135,50.1603505 C57.3933135,50.5517308 57.0796429,50.8693728 56.693156,50.8693728 L56.693156,50.8693728 Z" id="Fill-21" fill="#1D294A"></path>
            <polygon id="Fill-22" fill="#CBCBCB" points="51.6870296 63.2985338 56.693156 63.2985338 56.693156 56.9357676 51.6870296 56.9357676"></polygon>
            <path d="M52.3871871,62.5895115 L55.9929984,62.5895115 L55.9929984,57.64479 L52.3871871,57.64479 L52.3871871,62.5895115 Z M56.693156,64.0075562 L51.6870296,64.0075562 C51.3005426,64.0075562 50.986872,63.6899142 50.986872,63.2985338 L50.986872,56.9343496 C50.986872,56.5429693 51.3005426,56.2253273 51.6870296,56.2253273 L56.693156,56.2253273 C57.0796429,56.2253273 57.3933135,56.5429693 57.3933135,56.9343496 L57.3933135,63.2985338 C57.3933135,63.6899142 57.0796429,64.0075562 56.693156,64.0075562 L56.693156,64.0075562 Z" id="Fill-23" fill="#1D294A"></path>
            <polygon id="Fill-24" fill="#CBCBCB" points="62.9105549 37.0235851 67.9166813 37.0235851 67.9166813 30.6608189 62.9105549 30.6608189"></polygon>
            <path d="M63.6107124,36.3145628 L67.2165237,36.3145628 L67.2165237,31.3698412 L63.6107124,31.3698412 L63.6107124,36.3145628 Z M67.9166813,37.7326074 L62.9105549,37.7326074 C62.5240679,37.7326074 62.2103973,37.4149654 62.2103973,37.0235851 L62.2103973,30.6608189 C62.2103973,30.2694386 62.5240679,29.9517966 62.9105549,29.9517966 L67.9166813,29.9517966 C68.3031682,29.9517966 68.6168388,30.2694386 68.6168388,30.6608189 L68.6168388,37.0235851 C68.6168388,37.4149654 68.3031682,37.7326074 67.9166813,37.7326074 L67.9166813,37.7326074 Z" id="Fill-25" fill="#1D294A"></path>
            <polygon id="Fill-26" fill="#CBCBCB" points="62.9105549 50.1603505 67.9166813 50.1603505 67.9166813 43.7975843 62.9105549 43.7975843"></polygon>
            <path d="M63.6107124,49.4513282 L67.2165237,49.4513282 L67.2165237,44.5066066 L63.6107124,44.5066066 L63.6107124,49.4513282 Z M67.9166813,50.8693728 L62.9105549,50.8693728 C62.5240679,50.8693728 62.2103973,50.5517308 62.2103973,50.1603505 L62.2103973,43.7975843 C62.2103973,43.4062039 62.5240679,43.088562 62.9105549,43.088562 L67.9166813,43.088562 C68.3031682,43.088562 68.6168388,43.4062039 68.6168388,43.7975843 L68.6168388,50.1603505 C68.6168388,50.5517308 68.3031682,50.8693728 67.9166813,50.8693728 L67.9166813,50.8693728 Z" id="Fill-27" fill="#1D294A"></path>
            <polygon id="Fill-28" fill="#CBCBCB" points="62.9105549 63.2985338 67.9166813 63.2985338 67.9166813 56.9357676 62.9105549 56.9357676"></polygon>
            <path d="M63.6107124,62.5895115 L67.2165237,62.5895115 L67.2165237,57.64479 L63.6107124,57.64479 L63.6107124,62.5895115 Z M67.9166813,64.0075562 L62.9105549,64.0075562 C62.5240679,64.0075562 62.2103973,63.6899142 62.2103973,63.2985338 L62.2103973,56.9343496 C62.2103973,56.5429693 62.5240679,56.2253273 62.9105549,56.2253273 L67.9166813,56.2253273 C68.3031682,56.2253273 68.6168388,56.5429693 68.6168388,56.9343496 L68.6168388,63.2985338 C68.6168388,63.6899142 68.3031682,64.0075562 67.9166813,64.0075562 L67.9166813,64.0075562 Z" id="Fill-29" fill="#1D294A"></path>
            <polygon id="Fill-30" fill="#CBCBCB" points="48.4859093 78.9594186 59.8928759 78.9594186 59.8928759 68.5821681 48.4859093 68.5821681"></polygon>
            <path d="M49.1860669,78.2503963 L59.1927184,78.2503963 L59.1927184,69.2911904 L49.1860669,69.2911904 L49.1860669,78.2503963 Z M59.8928759,79.6684409 L48.4859093,79.6684409 C48.0994224,79.6684409 47.7857518,79.3507989 47.7857518,78.9594186 L47.7857518,68.5821681 C47.7857518,68.1907878 48.0994224,67.8731458 48.4859093,67.8731458 L59.8928759,67.8731458 C60.2793629,67.8731458 60.5930334,68.1907878 60.5930334,68.5821681 L60.5930334,78.9594186 C60.5930334,79.3507989 60.2793629,79.6684409 59.8928759,79.6684409 L59.8928759,79.6684409 Z" id="Fill-31" fill="#1D294A"></path>
            <path d="M61.1454577,21.0459092 C61.1454577,24.8235801 58.1207772,27.8865564 54.3903378,27.8865564 C50.6584982,27.8865564 47.6352179,24.8235801 47.6352179,21.0459092 C47.6352179,17.2682383 50.6584982,14.205262 54.3903378,14.205262 C58.1207772,14.205262 61.1454577,17.2682383 61.1454577,21.0459092" id="Fill-32" fill="#FFFFFF"></path>
            <path d="M54.3900578,14.9142843 C51.0517066,14.9142843 48.3350954,17.6652908 48.3350954,21.0459092 C48.3350954,24.4265276 51.0517066,27.1775341 54.3900578,27.1775341 C57.7284089,27.1775341 60.4450201,24.4265276 60.4450201,21.0459092 C60.4450201,17.6652908 57.7284089,14.9142843 54.3900578,14.9142843 M54.3900578,28.5955787 C50.2787327,28.5955787 46.9347803,25.2092882 46.9347803,21.0459092 C46.9347803,16.8825302 50.2787327,13.4962396 54.3900578,13.4962396 C58.5013828,13.4962396 61.8453352,16.8825302 61.8453352,21.0459092 C61.8453352,25.2092882 58.5013828,28.5955787 54.3900578,28.5955787" id="Fill-33" fill="#1D2A4D"></path>
            <polygon id="Fill-34" fill="#F32735" points="58.6258708 19.3673698 56.0478908 19.3673698 56.0478908 16.7567496 52.7319447 16.7567496 52.7319447 19.3673698 50.1539646 19.3673698 50.1539646 22.7238814 52.7319447 22.7238814 52.7319447 25.3345015 56.0478908 25.3345015 56.0478908 22.7238814 58.6258708 22.7238814"></polygon>
            <polygon id="Fill-35" fill="#CBCBCB" points="51.6870296 37.0235851 56.693156 37.0235851 56.693156 30.6608189 51.6870296 30.6608189"></polygon>
            <path d="M52.3871871,36.3145628 L55.9929984,36.3145628 L55.9929984,31.3698412 L52.3871871,31.3698412 L52.3871871,36.3145628 Z M56.693156,37.7326074 L51.6870296,37.7326074 C51.3005426,37.7326074 50.986872,37.4149654 50.986872,37.0235851 L50.986872,30.6608189 C50.986872,30.2694386 51.3005426,29.9517966 51.6870296,29.9517966 L56.693156,29.9517966 C57.0796429,29.9517966 57.3933135,30.2694386 57.3933135,30.6608189 L57.3933135,37.0235851 C57.3933135,37.4149654 57.0796429,37.7326074 56.693156,37.7326074 L56.693156,37.7326074 Z" id="Fill-36" fill="#1D294A"></path>
            <line x1="54.1896727" y1="68.5820263" x2="54.1896727" y2="78.9592768" id="Fill-37" fill="#FFFFFF"></line>
            <path d="M54.1896727,79.6682991 C53.8031857,79.6682991 53.4895151,79.3506571 53.4895151,78.9592768 L53.4895151,68.5820263 C53.4895151,68.190646 53.8031857,67.873004 54.1896727,67.873004 C54.5761596,67.873004 54.8898302,68.190646 54.8898302,68.5820263 L54.8898302,78.9592768 C54.8898302,79.3506571 54.5761596,79.6682991 54.1896727,79.6682991" id="Fill-38" fill="#1D294A"></path>
            <path d="M84.0291266,79.4380087 L76.7530894,79.4380087 C75.5628216,79.4380087 74.5966042,78.4609759 74.5966042,77.2542199 L74.5966042,66.0800284 C74.5966042,65.7708946 74.7254332,65.4759414 74.9508839,65.2660708 L76.5990548,63.7345826 C76.8259058,63.5232939 76.9547348,63.2255045 76.9519342,62.9135347 L76.9463329,61.8131321 L83.8372834,61.8131321 L83.8372834,62.8681573 C83.8372834,63.1716188 83.9605111,63.462318 84.17756,63.6707706 L85.8439349,65.2674888 C86.062384,65.4759414 86.1856118,65.7666405 86.1856118,66.070102 L86.1856118,77.2542199 C86.1856118,78.4609759 85.2207947,79.4380087 84.0291266,79.4380087" id="Fill-39" fill="#FFFFFF"></path>
            <path d="M77.6504113,62.5220126 L77.6518117,62.9091388 C77.6560126,63.4196349 77.444565,63.9102783 77.0720812,64.2562812 L75.4239104,65.7877694 C75.3440924,65.8629257 75.2964817,65.9692791 75.2964817,66.0813046 L75.2964817,77.2540781 C75.2964817,78.0680358 75.9504288,78.7288445 76.7528094,78.7288445 L84.0288465,78.7288445 C84.831227,78.7288445 85.4851742,78.0680358 85.4851742,77.2540781 L85.4851742,66.0713783 C85.4851742,65.9621889 85.4403641,65.8572536 85.3633468,65.7835152 L83.6969718,64.186797 C83.3412918,63.8464663 83.1368458,63.3657492 83.1368458,62.8680155 L83.1368458,62.5220126 L77.6504113,62.5220126 Z M84.0288465,80.1468892 L76.7528094,80.1468892 C75.1774549,80.1468892 73.8961666,78.8493783 73.8961666,77.2540781 L73.8961666,66.0813046 C73.8961666,65.5736446 74.1076142,65.0872553 74.4758971,64.7440885 L76.1254682,63.2111823 C76.2066865,63.1360259 76.2528969,63.0296726 76.2514966,62.9176471 L76.2416944,61.103968 L84.5371609,61.103968 L84.5371609,62.8680155 C84.5371609,62.9772049 84.5819709,63.0821402 84.6589883,63.1558786 L86.3253632,64.7525968 C86.6810432,65.0929275 86.8854892,65.5736446 86.8854892,66.0713783 L86.8854892,77.2540781 C86.8854892,78.8493783 85.6042009,80.1468892 84.0288465,80.1468892 L84.0288465,80.1468892 Z" id="Fill-40" fill="#1D2A4D"></path>
            <path d="M84.0900403,61.8129903 L76.6935761,61.8129903 C75.8057763,61.8129903 75.0874147,61.0841154 75.0874147,60.1864931 L75.0874147,59.3526829 C75.0874147,58.4536426 75.8057763,57.7261857 76.6935761,57.7261857 L84.0900403,57.7261857 C84.9764397,57.7261857 85.6962016,58.4536426 85.6962016,59.3526829 L85.6962016,60.1864931 C85.6962016,61.0841154 84.9764397,61.8129903 84.0900403,61.8129903" id="Fill-41" fill="#CBCACA"></path>
            <path d="M76.693296,58.4347826 C76.1933835,58.4347826 75.7872921,58.8460155 75.7872921,59.3522575 L75.7872921,60.1860677 C75.7872921,60.6923096 76.1933835,61.1035426 76.693296,61.1035426 L84.0897602,61.1035426 C84.5896727,61.1035426 84.995764,60.6923096 84.995764,60.1860677 L84.995764,59.3522575 C84.995764,58.8460155 84.5896727,58.4347826 84.0897602,58.4347826 L76.693296,58.4347826 Z M84.0897602,62.5215872 L76.693296,62.5215872 C75.4218099,62.5215872 74.3869771,61.4736522 74.3869771,60.1860677 L74.3869771,59.3522575 C74.3869771,58.064673 75.4218099,57.016738 76.693296,57.016738 L84.0897602,57.016738 C85.3612463,57.016738 86.3960791,58.064673 86.3960791,59.3522575 L86.3960791,60.1860677 C86.3960791,61.4736522 85.3612463,62.5215872 84.0897602,62.5215872 L84.0897602,62.5215872 Z" id="Fill-42" fill="#1D294A"></path>
            <polygon id="Fill-43" fill="#1D2A4D" points="74.5975845 74.078509 85.5312445 74.078509 85.5312445 66.7004229 74.5975845 66.7004229"></polygon>
            <path d="M76.7526694,82.208726 L68.2457553,82.208726 C66.1718887,82.208726 64.4915106,80.5070725 64.4915106,78.4069484 C64.4915106,76.3068243 66.1718887,74.6037528 68.2457553,74.6037528 L76.7526694,74.6037528 C78.826536,74.6037528 80.5069141,76.3068243 80.5069141,78.4069484 C80.5069141,80.5070725 78.826536,82.208726 76.7526694,82.208726" id="Fill-44" fill="#1D2A4D"></path>
            <path d="M76.7526694,82.2090096 L71.5224926,82.2090096 C71.4174689,82.2090096 71.3320497,82.1225089 71.3320497,82.0175736 L71.3320497,74.7954724 C71.3320497,74.6905371 71.4174689,74.6040364 71.5224926,74.6040364 L76.7526694,74.6040364 C78.826536,74.6040364 80.5069141,76.3071079 80.5069141,78.405814 C80.5069141,80.5059381 78.826536,82.2090096 76.7526694,82.2090096" id="Fill-45" fill="#FFCC02"></path>
            <path d="M76.7526694,74.6040364 L71.5224926,74.6040364 C71.4174689,74.6040364 71.3320497,74.6905371 71.3320497,74.7954724 L71.3320497,82.0175736 C71.3320497,82.123927 71.4174689,82.2090096 71.5224926,82.2090096 L76.7526694,82.2090096 C78.826536,82.2090096 80.5069141,80.5073561 80.5069141,78.407232 C80.5069141,76.3071079 78.826536,74.6040364 76.7526694,74.6040364 M76.7526694,76.022081 C78.0507614,76.022081 79.106599,77.0912866 79.106599,78.407232 C79.106599,79.7203413 78.0507614,80.790965 76.7526694,80.790965 L72.7323648,80.790965 L72.7323648,76.022081 L76.7526694,76.022081" id="Fill-46" fill="#1D294A"></path>
            <path d="M70.4492911,86.5506369 L62.3610712,83.884713 C60.3880273,83.2338305 59.3097847,81.088329 59.9525293,79.0917222 C60.5938736,77.0951153 62.7139506,76.003221 64.6855943,76.6526854 L72.7738141,79.3200273 C74.7454577,79.9694918 75.8237003,82.1149933 75.1809557,84.1116001 C74.5396114,86.1082069 72.4209347,87.2001013 70.4492911,86.5506369" id="Fill-47" fill="#1D2A4D"></path>
            <path d="M70.4485909,86.5509205 L65.4746718,84.9116609 C65.3752494,84.8790459 65.3206371,84.7698564 65.3542447,84.6691753 L67.5611413,77.8030032 C67.5933485,77.702322 67.7011728,77.6470183 67.7991948,77.6796333 L72.773114,79.320311 C74.7447576,79.9697754 75.8230002,82.1152769 75.1816559,84.1118837 C74.5389113,86.1084905 72.4202346,87.2003849 70.4485909,86.5509205" id="Fill-48" fill="#FFCC02"></path>
            <path d="M67.7416419,77.6706997 C67.6618239,77.6706997 67.5876072,77.7217493 67.5610012,77.8025778 L65.3541047,84.6701679 C65.3204971,84.7708491 65.3765097,84.8786204 65.4745318,84.9112355 L70.4498512,86.550495 C70.8349379,86.6781191 71.2270261,86.739095 71.6121127,86.739095 C73.1944688,86.739095 74.6647996,85.7181029 75.1815158,84.1114583 C75.8228601,82.1148515 74.7446175,79.96935 72.7729739,79.3198855 L67.8004551,77.6792079 C67.7808507,77.6735357 67.7612463,77.6706997 67.7416419,77.6706997 M68.5174164,79.4078043 L72.3402766,80.668446 C72.9382111,80.8655542 73.4255207,81.2867134 73.7097847,81.8539313 C73.995449,82.4211491 74.04446,83.0677775 73.8498162,83.6732825 C73.533345,84.6588235 72.6343427,85.3210504 71.6121127,85.3210504 C71.3656573,85.3210504 71.1206021,85.2813451 70.8825486,85.2033527 L67.0596884,83.942711 L68.5174164,79.4078043" id="Fill-49" fill="#1D294A"></path>
            <path d="M83.1047786,69.8127472 L76.2600385,69.8127472 C75.9743742,69.8127472 75.7419219,69.5773518 75.7419219,69.2880707 C75.7419219,68.9987896 75.9743742,68.7633942 76.2600385,68.7633942 L83.1047786,68.7633942 C83.3904428,68.7633942 83.6228952,68.9987896 83.6228952,69.2880707 C83.6228952,69.5773518 83.3904428,69.8127472 83.1047786,69.8127472" id="Fill-50" fill="#FFFFFF"></path>
            <path d="M79.9014178,71.9813628 L76.2591983,71.9813628 C75.973534,71.9813628 75.7410817,71.7459674 75.7410817,71.4566863 C75.7410817,71.1674052 75.973534,70.9320098 76.2591983,70.9320098 L79.9014178,70.9320098 C80.1884824,70.9320098 80.4195344,71.1674052 80.4195344,71.4566863 C80.4195344,71.7459674 80.1884824,71.9813628 79.9014178,71.9813628" id="Fill-51" fill="#FFFFFF"></path>
        </g>
    </g>
</svg>