<?xml version="1.0" encoding="UTF-8"?>
<svg width="232px" height="132px" viewBox="0 0 232 132" version="1.1" xmlns="http://www.w3.org/2000/svg" xmlns:xlink="http://www.w3.org/1999/xlink">
    <title>atoms/img/ilustraciones/howto/salud y farmacia</title>
    <defs>
        <polygon id="path-1" points="0 0 232 0 232 132 0 132"></polygon>
        <path d="M44.1162173,9.47950959 C20.0260095,12.2758786 0.0491636894,29.7775742 0,53.0878437 L0,53.0878437 L0,53.2829593 C0.0474386476,71.7058423 12.5350157,93.7271402 45.2374944,114.973156 L45.2374944,114.973156 C123.576815,165.866381 231.860272,110.051236 232,55.620893 L232,55.620893 L232,55.4309575 C231.977574,45.5258196 228.367062,35.6655756 220.336993,26.5115465 L220.336993,26.5115465 C190.619699,-7.36172844 166.243134,2.42340468 140.599526,12.1653706 L140.599526,12.1653706 C140.599526,12.1653706 142.518635,8.36838674 116.837077,2.18771196 L116.837077,2.18771196 C110.336257,0.623333873 103.789723,0 97.4096565,0 L97.4096565,0 C73.8498991,0 52.5525338,8.49875158 44.1162173,9.47950959" id="path-3"></path>
        <path d="M44.1162173,9.47950959 C20.0260095,12.2758786 0.0491636894,29.7775742 0,53.0878437 L0,53.0878437 L0,53.2829593 C0.0474386476,71.7058423 12.5350157,93.7271402 45.2374944,114.973156 L45.2374944,114.973156 C123.576815,165.866381 231.860272,110.051236 232,55.620893 L232,55.620893 L232,55.4309575 C231.977574,45.5258196 228.367062,35.6655756 220.336993,26.5115465 L220.336993,26.5115465 C190.619699,-7.36172844 166.243134,2.42340468 140.599526,12.1653706 L140.599526,12.1653706 C140.599526,12.1653706 142.518635,8.36838674 116.837077,2.18771196 L116.837077,2.18771196 C110.336257,0.623333873 103.789723,0 97.4096565,0 L97.4096565,0 C73.8498991,0 52.5525338,8.49875158 44.1162173,9.47950959" id="path-5"></path>
        <path d="M44.1162173,9.47950959 C20.0260095,12.2758786 0.0491636894,29.7775742 0,53.0878437 L0,53.0878437 L0,53.2829593 C0.0474386476,71.7058423 12.5350157,93.7271402 45.2374944,114.973156 L45.2374944,114.973156 C123.576815,165.866381 231.860272,110.051236 232,55.620893 L232,55.620893 L232,55.4309575 C231.977574,45.5258196 228.367062,35.6655756 220.336993,26.5115465 L220.336993,26.5115465 C190.619699,-7.36172844 166.243134,2.42340468 140.599526,12.1653706 L140.599526,12.1653706 C140.599526,12.1653706 142.518635,8.36838674 116.837077,2.18771196 L116.837077,2.18771196 C110.336257,0.623333873 103.789723,0 97.4096565,0 L97.4096565,0 C73.8498991,0 52.5525338,8.49875158 44.1162173,9.47950959" id="path-7"></path>
        <path d="M44.1162173,9.47950959 C20.0260095,12.2758786 0.0491636894,29.7775742 0,53.0878437 L0,53.0878437 L0,53.2829593 C0.0474386476,71.7058423 12.5350157,93.7271402 45.2374944,114.973156 L45.2374944,114.973156 C123.576815,165.866381 231.860272,110.051236 232,55.620893 L232,55.620893 L232,55.4309575 C231.977574,45.5258196 228.367062,35.6655756 220.336993,26.5115465 L220.336993,26.5115465 C190.619699,-7.36172844 166.243134,2.42340468 140.599526,12.1653706 L140.599526,12.1653706 C140.599526,12.1653706 142.518635,8.36838674 116.837077,2.18771196 L116.837077,2.18771196 C110.336257,0.623333873 103.789723,0 97.4096565,0 L97.4096565,0 C73.8498991,0 52.5525338,8.49875158 44.1162173,9.47950959" id="path-9"></path>
        <path d="M44.1162173,9.47950959 C20.0260095,12.2758786 0.0491636894,29.7775742 0,53.0878437 L0,53.0878437 L0,53.2829593 C0.0474386476,71.7058423 12.5350157,93.7271402 45.2374944,114.973156 L45.2374944,114.973156 C123.576815,165.866381 231.860272,110.051236 232,55.620893 L232,55.620893 L232,55.4309575 C231.977574,45.5258196 228.367062,35.6655756 220.336993,26.5115465 L220.336993,26.5115465 C190.619699,-7.36172844 166.243134,2.42340468 140.599526,12.1653706 L140.599526,12.1653706 C140.599526,12.1653706 142.518635,8.36838674 116.837077,2.18771196 L116.837077,2.18771196 C110.336257,0.623333873 103.789723,0 97.4096565,0 L97.4096565,0 C73.8498991,0 52.5525338,8.49875158 44.1162173,9.47950959" id="path-11"></path>
        <path d="M44.1162173,9.47950959 C20.0260095,12.2758786 0.0491636894,29.7775742 0,53.0878437 L0,53.0878437 L0,53.2829593 C0.0474386476,71.7058423 12.5350157,93.7271402 45.2374944,114.973156 L45.2374944,114.973156 C123.576815,165.866381 231.860272,110.051236 232,55.620893 L232,55.620893 L232,55.4309575 C231.977574,45.5258196 228.367062,35.6655756 220.336993,26.5115465 L220.336993,26.5115465 C190.619699,-7.36172844 166.243134,2.42340468 140.599526,12.1653706 L140.599526,12.1653706 C140.599526,12.1653706 142.518635,8.36838674 116.837077,2.18771196 L116.837077,2.18771196 C110.336257,0.623333873 103.789723,0 97.4096565,0 L97.4096565,0 C73.8498991,0 52.5525338,8.49875158 44.1162173,9.47950959" id="path-13"></path>
        <path d="M44.1162173,9.47950959 C20.0260095,12.2758786 0.0491636894,29.7775742 0,53.0878437 L0,53.0878437 L0,53.2829593 C0.0474386476,71.7058423 12.5350157,93.7271402 45.2374944,114.973156 L45.2374944,114.973156 C123.576815,165.866381 231.860272,110.051236 232,55.620893 L232,55.620893 L232,55.4309575 C231.977574,45.5258196 228.367062,35.6655756 220.336993,26.5115465 L220.336993,26.5115465 C190.619699,-7.36172844 166.243134,2.42340468 140.599526,12.1653706 L140.599526,12.1653706 C140.599526,12.1653706 142.518635,8.36838674 116.837077,2.18771196 L116.837077,2.18771196 C110.336257,0.623333873 103.789723,0 97.4096565,0 L97.4096565,0 C73.8498991,0 52.5525338,8.49875158 44.1162173,9.47950959" id="path-15"></path>
        <path d="M44.1162173,9.47950959 C20.0260095,12.2758786 0.0491636894,29.7775742 0,53.0878437 L0,53.0878437 L0,53.2829593 C0.0474386476,71.7058423 12.5350157,93.7271402 45.2374944,114.973156 L45.2374944,114.973156 C123.576815,165.866381 231.860272,110.051236 232,55.620893 L232,55.620893 L232,55.4309575 C231.977574,45.5258196 228.367062,35.6655756 220.336993,26.5115465 L220.336993,26.5115465 C190.619699,-7.36172844 166.243134,2.42340468 140.599526,12.1653706 L140.599526,12.1653706 C140.599526,12.1653706 142.518635,8.36838674 116.837077,2.18771196 L116.837077,2.18771196 C110.336257,0.623333873 103.789723,0 97.4096565,0 L97.4096565,0 C73.8498991,0 52.5525338,8.49875158 44.1162173,9.47950959" id="path-17"></path>
        <path d="M44.1162173,9.47950959 C20.0260095,12.2758786 0.0491636894,29.7775742 0,53.0878437 L0,53.0878437 L0,53.2829593 C0.0474386476,71.7058423 12.5350157,93.7271402 45.2374944,114.973156 L45.2374944,114.973156 C123.576815,165.866381 231.860272,110.051236 232,55.620893 L232,55.620893 L232,55.4309575 C231.977574,45.5258196 228.367062,35.6655756 220.336993,26.5115465 L220.336993,26.5115465 C190.619699,-7.36172844 166.243134,2.42340468 140.599526,12.1653706 L140.599526,12.1653706 C140.599526,12.1653706 142.518635,8.36838674 116.837077,2.18771196 L116.837077,2.18771196 C110.336257,0.623333873 103.789723,0 97.4096565,0 L97.4096565,0 C73.8498991,0 52.5525338,8.49875158 44.1162173,9.47950959" id="path-19"></path>
        <path d="M44.1162173,9.47950959 C20.0260095,12.2758786 0.0491636894,29.7775742 0,53.0878437 L0,53.0878437 L0,53.2829593 C0.0474386476,71.7058423 12.5350157,93.7271402 45.2374944,114.973156 L45.2374944,114.973156 C123.576815,165.866381 231.860272,110.051236 232,55.620893 L232,55.620893 L232,55.4309575 C231.977574,45.5258196 228.367062,35.6655756 220.336993,26.5115465 L220.336993,26.5115465 C190.619699,-7.36172844 166.243134,2.42340468 140.599526,12.1653706 L140.599526,12.1653706 C140.599526,12.1653706 142.518635,8.36838674 116.837077,2.18771196 L116.837077,2.18771196 C110.336257,0.623333873 103.789723,0 97.4096565,0 L97.4096565,0 C73.8498991,0 52.5525338,8.49875158 44.1162173,9.47950959" id="path-21"></path>
        <path d="M44.1162173,9.47950959 C20.0260095,12.2758786 0.0491636894,29.7775742 0,53.0878437 L0,53.0878437 L0,53.2829593 C0.0474386476,71.7058423 12.5350157,93.7271402 45.2374944,114.973156 L45.2374944,114.973156 C123.576815,165.866381 231.860272,110.051236 232,55.620893 L232,55.620893 L232,55.4309575 C231.977574,45.5258196 228.367062,35.6655756 220.336993,26.5115465 L220.336993,26.5115465 C190.619699,-7.36172844 166.243134,2.42340468 140.599526,12.1653706 L140.599526,12.1653706 C140.599526,12.1653706 142.518635,8.36838674 116.837077,2.18771196 L116.837077,2.18771196 C110.336257,0.623333873 103.789723,0 97.4096565,0 L97.4096565,0 C73.8498991,0 52.5525338,8.49875158 44.1162173,9.47950959" id="path-23"></path>
        <path d="M44.1162173,9.47950959 C20.0260095,12.2758786 0.0491636894,29.7775742 0,53.0878437 L0,53.0878437 L0,53.2829593 C0.0474386476,71.7058423 12.5350157,93.7271402 45.2374944,114.973156 L45.2374944,114.973156 C123.576815,165.866381 231.860272,110.051236 232,55.620893 L232,55.620893 L232,55.4309575 C231.977574,45.5258196 228.367062,35.6655756 220.336993,26.5115465 L220.336993,26.5115465 C190.619699,-7.36172844 166.243134,2.42340468 140.599526,12.1653706 L140.599526,12.1653706 C140.599526,12.1653706 142.518635,8.36838674 116.837077,2.18771196 L116.837077,2.18771196 C110.336257,0.623333873 103.789723,0 97.4096565,0 L97.4096565,0 C73.8498991,0 52.5525338,8.49875158 44.1162173,9.47950959" id="path-25"></path>
        <path d="M44.1162173,9.47950959 C20.0260095,12.2758786 0.0491636894,29.7775742 0,53.0878437 L0,53.0878437 L0,53.2829593 C0.0474386476,71.7058423 12.5350157,93.7271402 45.2374944,114.973156 L45.2374944,114.973156 C123.576815,165.866381 231.860272,110.051236 232,55.620893 L232,55.620893 L232,55.4309575 C231.977574,45.5258196 228.367062,35.6655756 220.336993,26.5115465 L220.336993,26.5115465 C190.619699,-7.36172844 166.243134,2.42340468 140.599526,12.1653706 L140.599526,12.1653706 C140.599526,12.1653706 142.518635,8.36838674 116.837077,2.18771196 L116.837077,2.18771196 C110.336257,0.623333873 103.789723,0 97.4096565,0 L97.4096565,0 C73.8498991,0 52.5525338,8.49875158 44.1162173,9.47950959" id="path-27"></path>
        <path d="M44.1162173,9.47950959 C20.0260095,12.2758786 0.0491636894,29.7775742 0,53.0878437 L0,53.0878437 L0,53.2829593 C0.0474386476,71.7058423 12.5350157,93.7271402 45.2374944,114.973156 L45.2374944,114.973156 C123.576815,165.866381 231.860272,110.051236 232,55.620893 L232,55.620893 L232,55.4309575 C231.977574,45.5258196 228.367062,35.6655756 220.336993,26.5115465 L220.336993,26.5115465 C190.619699,-7.36172844 166.243134,2.42340468 140.599526,12.1653706 L140.599526,12.1653706 C140.599526,12.1653706 142.518635,8.36838674 116.837077,2.18771196 L116.837077,2.18771196 C110.336257,0.623333873 103.789723,0 97.4096565,0 L97.4096565,0 C73.8498991,0 52.5525338,8.49875158 44.1162173,9.47950959" id="path-29"></path>
        <path d="M44.1162173,9.47950959 C20.0260095,12.2758786 0.0491636894,29.7775742 0,53.0878437 L0,53.0878437 L0,53.2829593 C0.0474386476,71.7058423 12.5350157,93.7271402 45.2374944,114.973156 L45.2374944,114.973156 C123.576815,165.866381 231.860272,110.051236 232,55.620893 L232,55.620893 L232,55.4309575 C231.977574,45.5258196 228.367062,35.6655756 220.336993,26.5115465 L220.336993,26.5115465 C190.619699,-7.36172844 166.243134,2.42340468 140.599526,12.1653706 L140.599526,12.1653706 C140.599526,12.1653706 142.518635,8.36838674 116.837077,2.18771196 L116.837077,2.18771196 C110.336257,0.623333873 103.789723,0 97.4096565,0 L97.4096565,0 C73.8498991,0 52.5525338,8.49875158 44.1162173,9.47950959" id="path-31"></path>
        <path d="M44.1162173,9.47950959 C20.0260095,12.2758786 0.0491636894,29.7775742 0,53.0878437 L0,53.0878437 L0,53.2829593 C0.0474386476,71.7058423 12.5350157,93.7271402 45.2374944,114.973156 L45.2374944,114.973156 C123.576815,165.866381 231.860272,110.051236 232,55.620893 L232,55.620893 L232,55.4309575 C231.977574,45.5258196 228.367062,35.6655756 220.336993,26.5115465 L220.336993,26.5115465 C190.619699,-7.36172844 166.243134,2.42340468 140.599526,12.1653706 L140.599526,12.1653706 C140.599526,12.1653706 142.518635,8.36838674 116.837077,2.18771196 L116.837077,2.18771196 C110.336257,0.623333873 103.789723,0 97.4096565,0 L97.4096565,0 C73.8498991,0 52.5525338,8.49875158 44.1162173,9.47950959" id="path-33"></path>
        <path d="M44.1162173,9.47950959 C20.0260095,12.2758786 0.0491636894,29.7775742 0,53.0878437 L0,53.0878437 L0,53.2829593 C0.0474386476,71.7058423 12.5350157,93.7271402 45.2374944,114.973156 L45.2374944,114.973156 C123.576815,165.866381 231.860272,110.051236 232,55.620893 L232,55.620893 L232,55.4309575 C231.977574,45.5258196 228.367062,35.6655756 220.336993,26.5115465 L220.336993,26.5115465 C190.619699,-7.36172844 166.243134,2.42340468 140.599526,12.1653706 L140.599526,12.1653706 C140.599526,12.1653706 142.518635,8.36838674 116.837077,2.18771196 L116.837077,2.18771196 C110.336257,0.623333873 103.789723,0 97.4096565,0 L97.4096565,0 C73.8498991,0 52.5525338,8.49875158 44.1162173,9.47950959" id="path-35"></path>
        <path d="M44.1162173,9.47950959 C20.0260095,12.2758786 0.0491636894,29.7775742 0,53.0878437 L0,53.0878437 L0,53.2829593 C0.0474386476,71.7058423 12.5350157,93.7271402 45.2374944,114.973156 L45.2374944,114.973156 C123.576815,165.866381 231.860272,110.051236 232,55.620893 L232,55.620893 L232,55.4309575 C231.977574,45.5258196 228.367062,35.6655756 220.336993,26.5115465 L220.336993,26.5115465 C190.619699,-7.36172844 166.243134,2.42340468 140.599526,12.1653706 L140.599526,12.1653706 C140.599526,12.1653706 142.518635,8.36838674 116.837077,2.18771196 L116.837077,2.18771196 C110.336257,0.623333873 103.789723,0 97.4096565,0 L97.4096565,0 C73.8498991,0 52.5525338,8.49875158 44.1162173,9.47950959" id="path-37"></path>
        <path d="M44.1162173,9.47950959 C20.0260095,12.2758786 0.0491636894,29.7775742 0,53.0878437 L0,53.0878437 L0,53.2829593 C0.0474386476,71.7058423 12.5350157,93.7271402 45.2374944,114.973156 L45.2374944,114.973156 C123.576815,165.866381 231.860272,110.051236 232,55.620893 L232,55.620893 L232,55.4309575 C231.977574,45.5258196 228.367062,35.6655756 220.336993,26.5115465 L220.336993,26.5115465 C190.619699,-7.36172844 166.243134,2.42340468 140.599526,12.1653706 L140.599526,12.1653706 C140.599526,12.1653706 142.518635,8.36838674 116.837077,2.18771196 L116.837077,2.18771196 C110.336257,0.623333873 103.789723,0 97.4096565,0 L97.4096565,0 C73.8498991,0 52.5525338,8.49875158 44.1162173,9.47950959" id="path-39"></path>
        <path d="M44.1162173,9.47950959 C20.0260095,12.2758786 0.0491636894,29.7775742 0,53.0878437 L0,53.0878437 L0,53.2829593 C0.0474386476,71.7058423 12.5350157,93.7271402 45.2374944,114.973156 L45.2374944,114.973156 C123.576815,165.866381 231.860272,110.051236 232,55.620893 L232,55.620893 L232,55.4309575 C231.977574,45.5258196 228.367062,35.6655756 220.336993,26.5115465 L220.336993,26.5115465 C190.619699,-7.36172844 166.243134,2.42340468 140.599526,12.1653706 L140.599526,12.1653706 C140.599526,12.1653706 142.518635,8.36838674 116.837077,2.18771196 L116.837077,2.18771196 C110.336257,0.623333873 103.789723,0 97.4096565,0 L97.4096565,0 C73.8498991,0 52.5525338,8.49875158 44.1162173,9.47950959" id="path-41"></path>
        <path d="M44.1162173,9.47950959 C20.0260095,12.2758786 0.0491636894,29.7775742 0,53.0878437 L0,53.0878437 L0,53.2829593 C0.0474386476,71.7058423 12.5350157,93.7271402 45.2374944,114.973156 L45.2374944,114.973156 C123.576815,165.866381 231.860272,110.051236 232,55.620893 L232,55.620893 L232,55.4309575 C231.977574,45.5258196 228.367062,35.6655756 220.336993,26.5115465 L220.336993,26.5115465 C190.619699,-7.36172844 166.243134,2.42340468 140.599526,12.1653706 L140.599526,12.1653706 C140.599526,12.1653706 142.518635,8.36838674 116.837077,2.18771196 L116.837077,2.18771196 C110.336257,0.623333873 103.789723,0 97.4096565,0 L97.4096565,0 C73.8498991,0 52.5525338,8.49875158 44.1162173,9.47950959" id="path-43"></path>
        <path d="M44.1162173,9.47950959 C20.0260095,12.2758786 0.0491636894,29.7775742 0,53.0878437 L0,53.0878437 L0,53.2829593 C0.0474386476,71.7058423 12.5350157,93.7271402 45.2374944,114.973156 L45.2374944,114.973156 C123.576815,165.866381 231.860272,110.051236 232,55.620893 L232,55.620893 L232,55.4309575 C231.977574,45.5258196 228.367062,35.6655756 220.336993,26.5115465 L220.336993,26.5115465 C190.619699,-7.36172844 166.243134,2.42340468 140.599526,12.1653706 L140.599526,12.1653706 C140.599526,12.1653706 142.518635,8.36838674 116.837077,2.18771196 L116.837077,2.18771196 C110.336257,0.623333873 103.789723,0 97.4096565,0 L97.4096565,0 C73.8498991,0 52.5525338,8.49875158 44.1162173,9.47950959 L44.1162173,9.47950959 Z" id="path-45"></path>
        <path d="M44.1162173,9.47950959 C20.0260095,12.2758786 0.0491636894,29.7775742 0,53.0878437 L0,53.0878437 L0,53.2829593 C0.0474386476,71.7058423 12.5350157,93.7271402 45.2374944,114.973156 L45.2374944,114.973156 C123.576815,165.866381 231.860272,110.051236 232,55.620893 L232,55.620893 L232,55.4309575 C231.977574,45.5258196 228.367062,35.6655756 220.336993,26.5115465 L220.336993,26.5115465 C190.619699,-7.36172844 166.243134,2.42340468 140.599526,12.1653706 L140.599526,12.1653706 C140.599526,12.1653706 142.518635,8.36838674 116.837077,2.18771196 L116.837077,2.18771196 C110.336257,0.623333873 103.789723,0 97.4096565,0 L97.4096565,0 C73.8498991,0 52.5525338,8.49875158 44.1162173,9.47950959 L44.1162173,9.47950959 Z" id="path-47"></path>
        <path d="M44.1162173,9.47950959 C20.0260095,12.2758786 0.0491636894,29.7775742 0,53.0878437 L0,53.0878437 L0,53.2829593 C0.0474386476,71.7058423 12.5350157,93.7271402 45.2374944,114.973156 L45.2374944,114.973156 C123.576815,165.866381 231.860272,110.051236 232,55.620893 L232,55.620893 L232,55.4309575 C231.977574,45.5258196 228.367062,35.6655756 220.336993,26.5115465 L220.336993,26.5115465 C190.619699,-7.36172844 166.243134,2.42340468 140.599526,12.1653706 L140.599526,12.1653706 C140.599526,12.1653706 142.518635,8.36838674 116.837077,2.18771196 L116.837077,2.18771196 C110.336257,0.623333873 103.789723,0 97.4096565,0 L97.4096565,0 C73.8498991,0 52.5525338,8.49875158 44.1162173,9.47950959" id="path-49"></path>
        <path d="M44.1162173,9.47950959 C20.0260095,12.2758786 0.0491636894,29.7775742 0,53.0878437 L0,53.0878437 L0,53.2829593 C0.0474386476,71.7058423 12.5350157,93.7271402 45.2374944,114.973156 L45.2374944,114.973156 C123.576815,165.866381 231.860272,110.051236 232,55.620893 L232,55.620893 L232,55.4309575 C231.977574,45.5258196 228.367062,35.6655756 220.336993,26.5115465 L220.336993,26.5115465 C190.619699,-7.36172844 166.243134,2.42340468 140.599526,12.1653706 L140.599526,12.1653706 C140.599526,12.1653706 142.518635,8.36838674 116.837077,2.18771196 L116.837077,2.18771196 C110.336257,0.623333873 103.789723,0 97.4096565,0 L97.4096565,0 C73.8498991,0 52.5525338,8.49875158 44.1162173,9.47950959" id="path-51"></path>
        <path d="M44.1162173,9.47950959 C20.0260095,12.2758786 0.0491636894,29.7775742 0,53.0878437 L0,53.0878437 L0,53.2829593 C0.0474386476,71.7058423 12.5350157,93.7271402 45.2374944,114.973156 L45.2374944,114.973156 C123.576815,165.866381 231.860272,110.051236 232,55.620893 L232,55.620893 L232,55.4309575 C231.977574,45.5258196 228.367062,35.6655756 220.336993,26.5115465 L220.336993,26.5115465 C190.619699,-7.36172844 166.243134,2.42340468 140.599526,12.1653706 L140.599526,12.1653706 C140.599526,12.1653706 142.518635,8.36838674 116.837077,2.18771196 L116.837077,2.18771196 C110.336257,0.623333873 103.789723,0 97.4096565,0 L97.4096565,0 C73.8498991,0 52.5525338,8.49875158 44.1162173,9.47950959" id="path-53"></path>
        <path d="M44.1162173,9.47950959 C20.0260095,12.2758786 0.0491636894,29.7775742 0,53.0878437 L0,53.0878437 L0,53.2829593 C0.0474386476,71.7058423 12.5350157,93.7271402 45.2374944,114.973156 L45.2374944,114.973156 C123.576815,165.866381 231.860272,110.051236 232,55.620893 L232,55.620893 L232,55.4309575 C231.977574,45.5258196 228.367062,35.6655756 220.336993,26.5115465 L220.336993,26.5115465 C190.619699,-7.36172844 166.243134,2.42340468 140.599526,12.1653706 L140.599526,12.1653706 C140.599526,12.1653706 142.518635,8.36838674 116.837077,2.18771196 L116.837077,2.18771196 C110.336257,0.623333873 103.789723,0 97.4096565,0 L97.4096565,0 C73.8498991,0 52.5525338,8.49875158 44.1162173,9.47950959" id="path-55"></path>
        <path d="M44.1162173,9.47950959 C20.0260095,12.2758786 0.0491636894,29.7775742 0,53.0878437 L0,53.0878437 L0,53.2829593 C0.0474386476,71.7058423 12.5350157,93.7271402 45.2374944,114.973156 L45.2374944,114.973156 C123.576815,165.866381 231.860272,110.051236 232,55.620893 L232,55.620893 L232,55.4309575 C231.977574,45.5258196 228.367062,35.6655756 220.336993,26.5115465 L220.336993,26.5115465 C190.619699,-7.36172844 166.243134,2.42340468 140.599526,12.1653706 L140.599526,12.1653706 C140.599526,12.1653706 142.518635,8.36838674 116.837077,2.18771196 L116.837077,2.18771196 C110.336257,0.623333873 103.789723,0 97.4096565,0 L97.4096565,0 C73.8498991,0 52.5525338,8.49875158 44.1162173,9.47950959" id="path-57"></path>
        <path d="M44.1162173,9.47950959 C20.0260095,12.2758786 0.0491636894,29.7775742 0,53.0878437 L0,53.0878437 L0,53.2829593 C0.0474386476,71.7058423 12.5350157,93.7271402 45.2374944,114.973156 L45.2374944,114.973156 C123.576815,165.866381 231.860272,110.051236 232,55.620893 L232,55.620893 L232,55.4309575 C231.977574,45.5258196 228.367062,35.6655756 220.336993,26.5115465 L220.336993,26.5115465 C190.619699,-7.36172844 166.243134,2.42340468 140.599526,12.1653706 L140.599526,12.1653706 C140.599526,12.1653706 142.518635,8.36838674 116.837077,2.18771196 L116.837077,2.18771196 C110.336257,0.623333873 103.789723,0 97.4096565,0 L97.4096565,0 C73.8498991,0 52.5525338,8.49875158 44.1162173,9.47950959" id="path-59"></path>
        <path d="M44.1162173,9.47950959 C20.0260095,12.2758786 0.0491636894,29.7775742 0,53.0878437 L0,53.0878437 L0,53.2829593 C0.0474386476,71.7058423 12.5350157,93.7271402 45.2374944,114.973156 L45.2374944,114.973156 C123.576815,165.866381 231.860272,110.051236 232,55.620893 L232,55.620893 L232,55.4309575 C231.977574,45.5258196 228.367062,35.6655756 220.336993,26.5115465 L220.336993,26.5115465 C190.619699,-7.36172844 166.243134,2.42340468 140.599526,12.1653706 L140.599526,12.1653706 C140.599526,12.1653706 142.518635,8.36838674 116.837077,2.18771196 L116.837077,2.18771196 C110.336257,0.623333873 103.789723,0 97.4096565,0 L97.4096565,0 C73.8498991,0 52.5525338,8.49875158 44.1162173,9.47950959" id="path-61"></path>
        <path d="M44.1162173,9.47950959 C20.0260095,12.2758786 0.0491636894,29.7775742 0,53.0878437 L0,53.0878437 L0,53.2829593 C0.0474386476,71.7058423 12.5350157,93.7271402 45.2374944,114.973156 L45.2374944,114.973156 C123.576815,165.866381 231.860272,110.051236 232,55.620893 L232,55.620893 L232,55.4309575 C231.977574,45.5258196 228.367062,35.6655756 220.336993,26.5115465 L220.336993,26.5115465 C190.619699,-7.36172844 166.243134,2.42340468 140.599526,12.1653706 L140.599526,12.1653706 C140.599526,12.1653706 142.518635,8.36838674 116.837077,2.18771196 L116.837077,2.18771196 C110.336257,0.623333873 103.789723,0 97.4096565,0 L97.4096565,0 C73.8498991,0 52.5525338,8.49875158 44.1162173,9.47950959" id="path-63"></path>
        <path d="M44.1162173,9.47950959 C20.0260095,12.2758786 0.0491636894,29.7775742 0,53.0878437 L0,53.0878437 L0,53.2829593 C0.0474386476,71.7058423 12.5350157,93.7271402 45.2374944,114.973156 L45.2374944,114.973156 C123.576815,165.866381 231.860272,110.051236 232,55.620893 L232,55.620893 L232,55.4309575 C231.977574,45.5258196 228.367062,35.6655756 220.336993,26.5115465 L220.336993,26.5115465 C190.619699,-7.36172844 166.243134,2.42340468 140.599526,12.1653706 L140.599526,12.1653706 C140.599526,12.1653706 142.518635,8.36838674 116.837077,2.18771196 L116.837077,2.18771196 C110.336257,0.623333873 103.789723,0 97.4096565,0 L97.4096565,0 C73.8498991,0 52.5525338,8.49875158 44.1162173,9.47950959" id="path-65"></path>
        <path d="M44.1162173,9.47950959 C20.0260095,12.2758786 0.0491636894,29.7775742 0,53.0878437 L0,53.0878437 L0,53.2829593 C0.0474386476,71.7058423 12.5350157,93.7271402 45.2374944,114.973156 L45.2374944,114.973156 C123.576815,165.866381 231.860272,110.051236 232,55.620893 L232,55.620893 L232,55.4309575 C231.977574,45.5258196 228.367062,35.6655756 220.336993,26.5115465 L220.336993,26.5115465 C190.619699,-7.36172844 166.243134,2.42340468 140.599526,12.1653706 L140.599526,12.1653706 C140.599526,12.1653706 142.518635,8.36838674 116.837077,2.18771196 L116.837077,2.18771196 C110.336257,0.623333873 103.789723,0 97.4096565,0 L97.4096565,0 C73.8498991,0 52.5525338,8.49875158 44.1162173,9.47950959" id="path-67"></path>
        <path d="M44.1162173,9.47950959 C20.0260095,12.2758786 0.0491636894,29.7775742 0,53.0878437 L0,53.0878437 L0,53.2829593 C0.0474386476,71.7058423 12.5350157,93.7271402 45.2374944,114.973156 L45.2374944,114.973156 C123.576815,165.866381 231.860272,110.051236 232,55.620893 L232,55.620893 L232,55.4309575 C231.977574,45.5258196 228.367062,35.6655756 220.336993,26.5115465 L220.336993,26.5115465 C190.619699,-7.36172844 166.243134,2.42340468 140.599526,12.1653706 L140.599526,12.1653706 C140.599526,12.1653706 142.518635,8.36838674 116.837077,2.18771196 L116.837077,2.18771196 C110.336257,0.623333873 103.789723,0 97.4096565,0 L97.4096565,0 C73.8498991,0 52.5525338,8.49875158 44.1162173,9.47950959" id="path-69"></path>
        <path d="M44.1162173,9.47950959 C20.0260095,12.2758786 0.0491636894,29.7775742 0,53.0878437 L0,53.0878437 L0,53.2829593 C0.0474386476,71.7058423 12.5350157,93.7271402 45.2374944,114.973156 L45.2374944,114.973156 C123.576815,165.866381 231.860272,110.051236 232,55.620893 L232,55.620893 L232,55.4309575 C231.977574,45.5258196 228.367062,35.6655756 220.336993,26.5115465 L220.336993,26.5115465 C190.619699,-7.36172844 166.243134,2.42340468 140.599526,12.1653706 L140.599526,12.1653706 C140.599526,12.1653706 142.518635,8.36838674 116.837077,2.18771196 L116.837077,2.18771196 C110.336257,0.623333873 103.789723,0 97.4096565,0 L97.4096565,0 C73.8498991,0 52.5525338,8.49875158 44.1162173,9.47950959" id="path-71"></path>
        <path d="M44.1162173,9.47950959 C20.0260095,12.2758786 0.0491636894,29.7775742 0,53.0878437 L0,53.0878437 L0,53.2829593 C0.0474386476,71.7058423 12.5350157,93.7271402 45.2374944,114.973156 L45.2374944,114.973156 C123.576815,165.866381 231.860272,110.051236 232,55.620893 L232,55.620893 L232,55.4309575 C231.977574,45.5258196 228.367062,35.6655756 220.336993,26.5115465 L220.336993,26.5115465 C190.619699,-7.36172844 166.243134,2.42340468 140.599526,12.1653706 L140.599526,12.1653706 C140.599526,12.1653706 142.518635,8.36838674 116.837077,2.18771196 L116.837077,2.18771196 C110.336257,0.623333873 103.789723,0 97.4096565,0 L97.4096565,0 C73.8498991,0 52.5525338,8.49875158 44.1162173,9.47950959" id="path-73"></path>
        <path d="M44.1162173,9.47950959 C20.0260095,12.2758786 0.0491636894,29.7775742 0,53.0878437 L0,53.0878437 L0,53.2829593 C0.0474386476,71.7058423 12.5350157,93.7271402 45.2374944,114.973156 L45.2374944,114.973156 C123.576815,165.866381 231.860272,110.051236 232,55.620893 L232,55.620893 L232,55.4309575 C231.977574,45.5258196 228.367062,35.6655756 220.336993,26.5115465 L220.336993,26.5115465 C190.619699,-7.36172844 166.243134,2.42340468 140.599526,12.1653706 L140.599526,12.1653706 C140.599526,12.1653706 142.518635,8.36838674 116.837077,2.18771196 L116.837077,2.18771196 C110.336257,0.623333873 103.789723,0 97.4096565,0 L97.4096565,0 C73.8498991,0 52.5525338,8.49875158 44.1162173,9.47950959 L44.1162173,9.47950959 Z" id="path-75"></path>
    </defs>
    <g id="UI-KIT" stroke="none" stroke-width="1" fill="none" fill-rule="evenodd">
        <g id="Correos_web_UIkit_Illustrations" transform="translate(-888.000000, -14380.000000)">
            <g id="HOW-TO" transform="translate(64.000000, 8775.000000)">
                <g id="Group" transform="translate(824.000000, 5593.000000)">
                    <g id="Group-116" transform="translate(0.000000, 9.000000)">
                        <g id="Group-3" transform="translate(0.000000, 3.000000)">
                            <mask id="mask-2" fill="white">
                                <use xlink:href="#path-1"></use>
                            </mask>
                            <g id="Clip-2"></g>
                            <path d="M77.3299983,12.3245179 C22.2563159,-14.6350946 -47.4543455,51.792279 45.2381844,111.981542 C137.929852,172.170806 272.544346,83.0466866 220.33682,23.5632987 C168.128432,-35.9183633 132.403681,39.2858561 77.3299983,12.3245179" id="Fill-1" fill="#F2F1F1" mask="url(#mask-2)"></path>
                        </g>
                        <g id="Group-115">
                            <g id="Group-6">
                                <mask id="mask-4" fill="white">
                                    <use xlink:href="#path-3"></use>
                                </mask>
                                <g id="Clip-5"></g>
                                <path d="M114.001453,3.21698986 C107.349692,3.21698986 101.483688,6.55208508 97.9568398,11.6371772 C94.4299919,6.55208508 88.56485,3.21698986 81.9122266,3.21698986 C71.1246781,3.21698986 62.3795791,11.9704277 62.3795791,22.7682625 C62.3795791,25.2322444 62.7461504,27.6262954 63.6673227,29.7622067 C71.2376684,47.3191564 97.9568398,66.3230694 97.9568398,66.3230694 C97.9568398,66.3230694 124.676011,47.3191564 132.246357,29.7622067 C133.167529,27.6262954 133.5341,25.2322444 133.5341,22.7682625 C133.5341,11.9704277 124.789001,3.21698986 114.001453,3.21698986" id="Fill-4" fill="#F5C4C5" mask="url(#mask-4)"></path>
                            </g>
                            <g id="Group-9">
                                <mask id="mask-6" fill="white">
                                    <use xlink:href="#path-5"></use>
                                </mask>
                                <g id="Clip-8"></g>
                                <path d="M100.257959,15.5490721 C100.427876,15.6483566 100.615043,15.6958404 100.797897,15.6958404 C101.167919,15.6958404 101.52759,15.5050416 101.726832,15.1631576 C103.537264,12.0603018 106.898507,8.361739 112.626508,8.361739 C113.219923,8.361739 113.700347,7.87999343 113.700347,7.28601323 C113.700347,6.69203303 113.219923,6.2111508 112.626508,6.2111508 C105.523649,6.2111508 101.587104,11.1408411 99.8715498,14.0787984 C99.5731176,14.5916243 99.7456218,15.249492 100.257959,15.5490721" id="Fill-7" fill="#967F8A" mask="url(#mask-6)"></path>
                            </g>
                            <g id="Group-12">
                                <mask id="mask-8" fill="white">
                                    <use xlink:href="#path-7"></use>
                                </mask>
                                <g id="Clip-11"></g>
                                <path d="M128.910644,21.7720507 C128.317229,21.7720507 127.835943,22.2537963 127.835943,22.8477765 C127.835943,24.9819611 127.494384,26.8571428 126.819893,28.4197942 C121.074642,41.7454983 101.831801,56.3411803 98.3334164,58.9173968 C94.6521773,56.252256 75.6180668,42.0347183 69.9107663,29.0534882 C69.8417646,28.8972231 69.7926009,28.7254177 69.7304994,28.5631092 C69.6200967,28.2712992 69.5122816,27.9768991 69.423442,27.6652322 C69.401879,27.5883946 69.3872161,27.5072403 69.3665156,27.4304028 C69.2759509,27.0842021 69.1914239,26.7328214 69.1275973,26.3624471 C69.1215597,26.3313667 69.1189721,26.296833 69.113797,26.2657526 C69.0447953,25.8504845 68.9887315,25.4231296 68.9525056,24.9793711 C68.948193,24.9232538 68.9490555,24.8636831 68.9456054,24.8084291 C68.9154172,24.3819375 68.8938542,23.9485392 68.8938542,23.4970106 C68.8938542,15.2943858 75.191119,8.62246868 82.9305187,8.62246868 C83.5230706,8.62246868 84.0043572,8.15021989 84.0043572,7.56746315 C84.0043572,6.98470641 83.5230706,6.51245762 82.9305187,6.51245762 C74.0060153,6.51245762 66.7461772,14.1314624 66.7461772,23.4970106 C66.7461772,23.5185942 66.7487648,23.5401778 66.7487648,23.5617614 C66.7487648,23.5703948 66.7461772,23.5790282 66.7461772,23.5876617 C66.7461772,24.0132899 66.7737779,24.420788 66.7996535,24.8300127 C66.8074162,24.9474274 66.8056912,25.0717488 66.8151789,25.1874368 C66.8531298,25.6579589 66.9178189,26.1094875 66.9902706,26.5549726 C67.0023459,26.6274935 67.007521,26.7034677 67.0204588,26.7751252 C67.0920481,27.1774432 67.1869254,27.5607676 67.2861153,27.941502 C67.3145785,28.0511466 67.337004,28.1668346 67.3680548,28.2747525 C67.4681072,28.6244066 67.5897226,28.9550671 67.7147881,29.2848642 C67.7527391,29.3832853 67.7803397,29.4912033 67.8191532,29.5887611 C67.8243283,29.6008479 67.833816,29.6094813 67.8389911,29.6215681 C67.875217,29.7079024 67.9002301,29.8037335 67.938181,29.8874778 C70.6913477,36.1510336 76.5452768,43.3081497 85.3378145,51.1619838 C91.8507095,56.979191 97.6494373,61.0377679 97.7072262,61.0783451 C97.8961183,61.2113 98.1134735,61.2734607 98.3282412,61.2734607 C98.3411791,61.2734607 98.3532543,61.2700073 98.3653296,61.269144 C98.3782674,61.2700073 98.3894802,61.2734607 98.402418,61.2734607 C98.6171857,61.2734607 98.834541,61.2095733 99.0234331,61.0748917 C99.081222,61.0343146 104.87995,56.8945834 111.391982,50.9634148 C120.185383,42.9559056 126.039312,35.6572012 128.793341,29.2727774 C129.58341,27.4373095 129.984482,25.2772245 129.984482,22.8477765 C129.984482,22.2537963 129.504058,21.7720507 128.910644,21.7720507" id="Fill-10" fill="#967F8A" mask="url(#mask-8)"></path>
                            </g>
                            <g id="Group-15">
                                <mask id="mask-10" fill="white">
                                    <use xlink:href="#path-9"></use>
                                </mask>
                                <g id="Clip-14"></g>
                                <path d="M147.187834,117.309794 L147.544113,33.9116937 C147.558776,30.507531 150.327468,27.7595092 153.728388,27.7741276 L196.398157,27.9572149 C199.799077,27.9718917 202.543619,30.7423604 202.52987,34.1473864 L202.172735,117.544624 C202.158072,120.94965 199.38938,123.696808 195.98846,123.683047 L153.319553,123.499966 C149.918633,123.485289 147.173229,120.713957 147.187834,117.309794" id="Fill-13" fill="#9E9E9E" mask="url(#mask-10)"></path>
                            </g>
                            <g id="Group-18">
                                <mask id="mask-12" fill="white">
                                    <use xlink:href="#path-11"></use>
                                </mask>
                                <g id="Clip-17"></g>
                                <path d="M172.014323,116.664014 L172.364531,34.7707203 C172.370569,33.419588 173.46942,32.3291854 174.818403,32.3352038 L175.269501,32.3369555 C176.619346,32.3429989 177.70871,33.4420349 177.702698,34.7931672 L177.352489,116.686461 C177.346452,118.037593 176.248463,119.127995 174.898617,119.121977 L174.447519,119.120225 C173.097674,119.114182 172.00831,118.014283 172.014323,116.664014" id="Fill-16" fill="#F5F4F4" mask="url(#mask-12)"></path>
                            </g>
                            <g id="Group-21">
                                <mask id="mask-14" fill="white">
                                    <use xlink:href="#path-13"></use>
                                </mask>
                                <g id="Clip-20"></g>
                                <path d="M189.171268,119.183247 C194.298092,119.204747 198.472693,115.062425 198.495202,109.929849 C198.516681,104.798137 194.378306,100.619555 189.25062,100.597881 C184.122933,100.575525 179.949195,104.717846 179.926685,109.850422 C179.905206,114.982998 184.043581,119.16158 189.171268,119.183247" id="Fill-19" fill="#F5F4F4" mask="url(#mask-14)"></path>
                            </g>
                            <g id="Group-24">
                                <mask id="mask-16" fill="white">
                                    <use xlink:href="#path-15"></use>
                                </mask>
                                <g id="Clip-23"></g>
                                <path d="M189.181445,116.811631 C192.999825,116.828826 196.109213,113.742374 196.125666,109.920353 C196.141989,106.097469 193.059339,102.985116 189.240097,102.968647 C185.421717,102.952309 182.312329,106.037898 182.295876,109.860782 C182.279553,113.683666 185.362203,116.795156 189.181445,116.811631" id="Fill-22" fill="#08327B" mask="url(#mask-16)"></path>
                            </g>
                            <g id="Group-27">
                                <mask id="mask-18" fill="white">
                                    <use xlink:href="#path-17"></use>
                                </mask>
                                <g id="Clip-26"></g>
                                <path d="M160.174955,119.058494 C165.301779,119.079994 169.47638,114.938536 169.498889,109.80596 C169.520369,104.673384 165.381993,100.494802 160.254307,100.473128 C155.12662,100.450772 150.952882,104.593956 150.930372,109.725669 C150.908893,114.859108 155.047268,119.036826 160.174955,119.058494" id="Fill-25" fill="#F5F4F4" mask="url(#mask-18)"></path>
                            </g>
                            <g id="Group-30">
                                <mask id="mask-20" fill="white">
                                    <use xlink:href="#path-19"></use>
                                </mask>
                                <g id="Clip-29"></g>
                                <path d="M160.185046,116.687648 C164.004289,116.703986 167.112814,113.617534 167.129267,109.796377 C167.14559,105.973492 164.06294,102.860276 160.243698,102.844671 C156.425318,102.828333 153.31593,105.913922 153.299484,109.735943 C153.284017,113.558827 156.365804,116.670316 160.185046,116.687648" id="Fill-28" fill="#08327B" mask="url(#mask-20)"></path>
                            </g>
                            <g id="Group-33">
                                <mask id="mask-22" fill="white">
                                    <use xlink:href="#path-21"></use>
                                </mask>
                                <g id="Clip-32"></g>
                                <path d="M189.268215,96.449691 C194.395902,96.4711906 198.570503,92.3297327 198.592149,87.1971567 C198.613629,82.0645807 194.475253,77.885999 189.347567,77.8643247 C184.21988,77.8419685 180.046142,81.9851531 180.024488,87.1168658 C180.002153,92.2503051 184.141391,96.4280234 189.268215,96.449691" id="Fill-31" fill="#F5F4F4" mask="url(#mask-22)"></path>
                            </g>
                            <g id="Group-36">
                                <mask id="mask-24" fill="white">
                                    <use xlink:href="#path-23"></use>
                                </mask>
                                <g id="Clip-35"></g>
                                <path d="M189.278306,94.078845 C193.097549,94.0951834 196.206937,91.0087311 196.222527,87.1875736 C196.23885,83.3646894 193.157063,80.2514734 189.33782,80.2358681 C185.518578,80.2195297 182.410053,83.3051187 182.3936,87.1271395 C182.377277,90.9500237 185.459927,94.061513 189.278306,94.078845" id="Fill-34" fill="#08327B" mask="url(#mask-24)"></path>
                            </g>
                            <g id="Group-39">
                                <mask id="mask-26" fill="white">
                                    <use xlink:href="#path-25"></use>
                                </mask>
                                <g id="Clip-38"></g>
                                <path d="M160.272247,96.3257149 C165.399071,96.3472145 169.573672,92.2057566 169.596182,87.0723172 C169.617661,81.9406046 165.479286,77.7620229 160.351599,77.7403486 C155.223913,77.7179924 151.050174,81.861177 151.027665,86.9928897 C151.006186,92.1254657 155.144561,96.3040473 160.272247,96.3257149" id="Fill-37" fill="#F5F4F4" mask="url(#mask-26)"></path>
                            </g>
                            <g id="Group-42">
                                <mask id="mask-28" fill="white">
                                    <use xlink:href="#path-27"></use>
                                </mask>
                                <g id="Clip-41"></g>
                                <path d="M160.282339,93.9540989 C164.100719,93.9712937 167.210106,90.8848413 167.226559,87.0628205 C167.242882,83.2399363 164.160233,80.1275836 160.34099,80.1119713 C156.52261,80.0947766 153.413223,83.1803656 153.39677,87.0032498 C153.380447,90.826134 156.463096,93.9376233 160.282339,93.9540989" id="Fill-40" fill="#08327B" mask="url(#mask-28)"></path>
                            </g>
                            <g id="Group-45">
                                <mask id="mask-30" fill="white">
                                    <use xlink:href="#path-29"></use>
                                </mask>
                                <g id="Clip-44"></g>
                                <path d="M189.365421,73.7169118 C194.493108,73.7384114 198.666846,69.5969536 198.689356,64.4635142 C198.710835,59.3318016 194.57246,55.1532199 189.444773,55.1315456 C184.317086,55.1091894 180.143348,59.252374 180.120839,64.3840866 C180.099359,69.5166626 184.238597,73.6952443 189.365421,73.7169118" id="Fill-43" fill="#F5F4F4" mask="url(#mask-30)"></path>
                            </g>
                            <g id="Group-48">
                                <mask id="mask-32" fill="white">
                                    <use xlink:href="#path-31"></use>
                                </mask>
                                <g id="Clip-47"></g>
                                <path d="M189.375599,71.3452959 C193.194841,71.3624906 196.303366,68.2760383 196.319819,64.4540174 C196.336142,60.6311332 193.254355,57.5187806 189.435113,57.5031683 C185.61587,57.4859736 182.507345,60.5715626 182.490892,64.3944467 C182.474569,68.2173309 185.556356,71.3288202 189.375599,71.3452959" id="Fill-46" fill="#08327B" mask="url(#mask-32)"></path>
                            </g>
                            <g id="Group-51">
                                <mask id="mask-34" fill="white">
                                    <use xlink:href="#path-33"></use>
                                </mask>
                                <g id="Clip-50"></g>
                                <path d="M160.369108,73.593022 C165.496795,73.6145217 169.671396,69.4722004 169.693043,64.3396244 C169.714522,59.2079118 165.576147,55.0293302 160.44846,55.0076558 C155.320774,54.9852996 151.147035,59.1276209 151.125382,64.2601969 C151.103047,69.3927729 155.242284,73.5713545 160.369108,73.593022" id="Fill-49" fill="#F5F4F4" mask="url(#mask-34)"></path>
                            </g>
                            <g id="Group-54">
                                <mask id="mask-36" fill="white">
                                    <use xlink:href="#path-35"></use>
                                </mask>
                                <g id="Clip-53"></g>
                                <path d="M160.3792,71.2213198 C164.198442,71.2385145 167.30783,68.1520622 167.32342,64.3300413 C167.339743,60.5071571 164.257956,57.3948045 160.438714,57.3783359 C156.619471,57.3619975 153.510946,60.4475865 153.494493,64.2704706 C153.47817,68.0933548 156.56082,71.2048441 160.3792,71.2213198" id="Fill-52" fill="#08327B" mask="url(#mask-36)"></path>
                            </g>
                            <g id="Group-57">
                                <mask id="mask-38" fill="white">
                                    <use xlink:href="#path-37"></use>
                                </mask>
                                <g id="Clip-56"></g>
                                <path d="M189.462713,50.984219 C194.5904,51.0057186 198.764138,46.8633974 198.786648,41.7308214 C198.808127,36.5991088 194.669752,32.4205271 189.542065,32.3988527 C184.414379,32.3764966 180.24064,36.5188178 180.218131,41.6513938 C180.196652,46.7839698 184.335027,50.9625515 189.462713,50.984219" id="Fill-55" fill="#F5F4F4" mask="url(#mask-38)"></path>
                            </g>
                            <g id="Group-60">
                                <mask id="mask-40" fill="white">
                                    <use xlink:href="#path-39"></use>
                                </mask>
                                <g id="Clip-59"></g>
                                <path d="M189.472891,48.6125167 C193.292134,48.6297115 196.400659,45.5432592 196.417112,41.7212383 C196.433435,37.8983541 193.350785,34.7860015 189.532405,34.7695328 C185.713163,34.7531944 182.603775,37.8387834 182.588185,41.6616676 C182.571862,45.4845518 185.653649,48.5960411 189.472891,48.6125167" id="Fill-58" fill="#08327B" mask="url(#mask-40)"></path>
                            </g>
                            <g id="Group-63">
                                <mask id="mask-42" fill="white">
                                    <use xlink:href="#path-41"></use>
                                </mask>
                                <g id="Clip-62"></g>
                                <path d="M160.466401,50.8594727 C165.594087,50.8818289 169.767826,46.7395077 169.790335,41.6069317 C169.811814,36.4743557 165.673439,32.295774 160.545753,32.2740997 C155.418066,32.2517435 151.244328,36.3949281 151.221818,41.5266407 C151.200339,46.6600801 155.339577,50.8377984 160.466401,50.8594727" id="Fill-61" fill="#F5F4F4" mask="url(#mask-42)"></path>
                            </g>
                            <g id="Group-66">
                                <mask id="mask-44" fill="white">
                                    <use xlink:href="#path-43"></use>
                                </mask>
                                <g id="Clip-65"></g>
                                <path d="M160.476492,48.48862 C164.295735,48.5049584 167.40426,45.418506 167.420713,41.5973485 C167.437036,37.7744643 164.355249,34.6612484 160.536006,34.6456431 C156.716764,34.6293047 153.608239,37.7148937 153.591786,41.5369145 C153.575463,45.3597987 156.65725,48.471288 160.476492,48.48862" id="Fill-64" fill="#08327B" mask="url(#mask-44)"></path>
                            </g>
                            <g id="Group-69">
                                <mask id="mask-46" fill="white">
                                    <use xlink:href="#path-45"></use>
                                </mask>
                                <g id="Clip-68"></g>
                                <path d="M94.9430193,86.5177918 C94.8998933,82.3081298 93.3620186,78.2512796 90.6054019,75.0715862 L83.3731644,66.7316898 L66.7463497,66.7316898 L50.1178099,66.7316898 L42.886435,75.0715862 C40.1298183,78.2512796 38.5919436,82.3081298 38.5488176,86.5177918 L38.2042003,130.722696 C38.1555081,135.433097 41.9575,139.277565 46.6634139,139.277565 L66.7463497,139.277565 L86.828423,139.277565 C91.5343369,139.277565 95.3363289,135.433097 95.2876367,130.722696 L94.9430193,86.5177918 Z" id="Fill-67" fill="#FFFFFF" mask="url(#mask-46)"></path>
                            </g>
                            <g id="Group-72">
                                <mask id="mask-48" fill="white">
                                    <use xlink:href="#path-47"></use>
                                </mask>
                                <g id="Clip-71"></g>
                                <path d="M94.9430193,86.5177918 C94.8998933,82.3081298 93.3620186,78.2512796 90.6054019,75.0715862 L83.3731644,66.7316898 L66.7463497,66.7316898 L50.1178099,66.7316898 L42.886435,75.0715862 C40.1298183,78.2512796 38.5919436,82.3081298 38.5488176,86.5177918 L38.2042003,130.722696 C38.1555081,135.433097 41.9575,139.277565 46.6634139,139.277565 L66.7463497,139.277565 L86.828423,139.277565 C91.5343369,139.277565 95.3363289,135.433097 95.2876367,130.722696 L94.9430193,86.5177918 Z" id="Stroke-70" stroke="#CCE8EE" mask="url(#mask-48)"></path>
                            </g>
                            <g id="Group-75">
                                <mask id="mask-50" fill="white">
                                    <use xlink:href="#path-49"></use>
                                </mask>
                                <g id="Clip-74"></g>
                                <path d="M82.7780251,67.7004473 L50.7146744,67.7004473 C48.6592872,67.7004473 46.9928968,66.032468 46.9928968,63.9759842 L46.9928968,56.0703495 C46.9928968,52.6912238 49.7296756,49.9518355 53.1055822,49.9518355 L80.3871172,49.9518355 C83.7630239,49.9518355 86.4989401,52.6912238 86.4989401,56.0703495 L86.4989401,63.9759842 C86.4989401,66.032468 84.8334123,67.7004473 82.7780251,67.7004473" id="Fill-73" fill="#08327B" mask="url(#mask-50)"></path>
                            </g>
                            <g id="Group-78">
                                <mask id="mask-52" fill="white">
                                    <use xlink:href="#path-51"></use>
                                </mask>
                                <g id="Clip-77"></g>
                                <path d="M88.2307095,120.168756 L45.801583,120.168756 C44.1248425,120.168756 42.7672346,118.80899 42.7672346,117.130651 L42.7672346,95.7654937 C42.7672346,94.0880177 44.1248425,92.728252 45.801583,92.728252 L88.2307095,92.728252 C89.9065875,92.728252 91.2650579,94.0880177 91.2650579,95.7654937 L91.2650579,117.130651 C91.2650579,118.80899 89.9065875,120.168756 88.2307095,120.168756" id="Fill-76" fill="#41D1DA" mask="url(#mask-52)"></path>
                            </g>
                            <g id="Group-81">
                                <mask id="mask-54" fill="white">
                                    <use xlink:href="#path-53"></use>
                                </mask>
                                <g id="Clip-80"></g>
                                <line x1="51.0012038" y1="53.6003243" x2="51.0012038" y2="64.0519585" id="Stroke-79" stroke="#01004D" stroke-width="2" stroke-linecap="round" stroke-linejoin="round" mask="url(#mask-54)"></line>
                            </g>
                            <g id="Group-84">
                                <mask id="mask-56" fill="white">
                                    <use xlink:href="#path-55"></use>
                                </mask>
                                <g id="Clip-83"></g>
                                <line x1="56.2496433" y1="53.6003243" x2="56.2496433" y2="64.0519585" id="Stroke-82" stroke="#01004D" stroke-width="2" stroke-linecap="round" stroke-linejoin="round" mask="url(#mask-56)"></line>
                            </g>
                            <g id="Group-87">
                                <mask id="mask-58" fill="white">
                                    <use xlink:href="#path-57"></use>
                                </mask>
                                <g id="Clip-86"></g>
                                <line x1="61.4975652" y1="53.6003243" x2="61.4975652" y2="64.0519585" id="Stroke-85" stroke="#01004D" stroke-width="2" stroke-linecap="round" stroke-linejoin="round" mask="url(#mask-58)"></line>
                            </g>
                            <g id="Group-90">
                                <mask id="mask-60" fill="white">
                                    <use xlink:href="#path-59"></use>
                                </mask>
                                <g id="Clip-89"></g>
                                <line x1="66.7460047" y1="53.6003243" x2="66.7460047" y2="64.0519585" id="Stroke-88" stroke="#01004D" stroke-width="2" stroke-linecap="round" stroke-linejoin="round" mask="url(#mask-60)"></line>
                            </g>
                            <g id="Group-93">
                                <mask id="mask-62" fill="white">
                                    <use xlink:href="#path-61"></use>
                                </mask>
                                <g id="Clip-92"></g>
                                <line x1="71.9944442" y1="53.6003243" x2="71.9944442" y2="64.0519585" id="Stroke-91" stroke="#01004D" stroke-width="2" stroke-linecap="round" stroke-linejoin="round" mask="url(#mask-62)"></line>
                            </g>
                            <g id="Group-96">
                                <mask id="mask-64" fill="white">
                                    <use xlink:href="#path-63"></use>
                                </mask>
                                <g id="Clip-95"></g>
                                <line x1="77.2427974" y1="53.6003243" x2="77.2427974" y2="64.0519585" id="Stroke-94" stroke="#01004D" stroke-width="2" stroke-linecap="round" stroke-linejoin="round" mask="url(#mask-64)"></line>
                            </g>
                            <g id="Group-99">
                                <mask id="mask-66" fill="white">
                                    <use xlink:href="#path-65"></use>
                                </mask>
                                <g id="Clip-98"></g>
                                <line x1="82.4908056" y1="53.6003243" x2="82.4908056" y2="64.0519585" id="Stroke-97" stroke="#01004D" stroke-width="2" stroke-linecap="round" stroke-linejoin="round" mask="url(#mask-66)"></line>
                            </g>
                            <g id="Group-102">
                                <mask id="mask-68" fill="white">
                                    <use xlink:href="#path-67"></use>
                                </mask>
                                <g id="Clip-101"></g>
                                <line x1="46.3773157" y1="106.892349" x2="78.423416" y2="106.892349" id="Stroke-100" stroke="#727272" stroke-width="2" stroke-linecap="round" stroke-linejoin="round" mask="url(#mask-68)"></line>
                            </g>
                            <g id="Group-105">
                                <mask id="mask-70" fill="white">
                                    <use xlink:href="#path-69"></use>
                                </mask>
                                <g id="Clip-104"></g>
                                <line x1="46.370588" y1="116.279481" x2="61.6113317" y2="116.279481" id="Stroke-103" stroke="#727272" stroke-width="2" stroke-linecap="round" stroke-linejoin="round" mask="url(#mask-70)"></line>
                            </g>
                            <g id="Group-108">
                                <mask id="mask-72" fill="white">
                                    <use xlink:href="#path-71"></use>
                                </mask>
                                <g id="Clip-107"></g>
                                <line x1="46.3773157" y1="99.6584814" x2="85.8842214" y2="99.6584814" id="Stroke-106" stroke="#727272" stroke-width="2" stroke-linecap="round" stroke-linejoin="round" mask="url(#mask-72)"></line>
                            </g>
                            <g id="Group-111">
                                <mask id="mask-74" fill="white">
                                    <use xlink:href="#path-73"></use>
                                </mask>
                                <g id="Clip-110"></g>
                                <path d="M162.883788,73.9917164 L139.061824,73.9917164 L139.061824,50.146174 C139.061824,46.2775326 135.930011,43.1435964 132.065055,43.1435964 L113.773575,43.1435964 C109.908619,43.1435964 106.776806,46.2775326 106.776806,50.146174 L106.776806,73.9917164 L82.9531168,73.9917164 C79.0898858,73.9917164 75.9580726,77.1265159 75.9580726,80.994294 L75.9580726,99.3049423 C75.9580726,103.17272 79.0898858,106.308383 82.9531168,106.308383 L106.776806,106.308383 L106.776806,130.153926 C106.776806,134.02084 109.908619,137.156503 113.773575,137.156503 L132.065055,137.156503 C135.930011,137.156503 139.061824,134.02084 139.061824,130.153926 L139.061824,106.308383 L162.883788,106.308383 C166.748744,106.308383 169.880557,103.17272 169.880557,99.3049423 L169.880557,80.994294 C169.880557,77.1265159 166.748744,73.9917164 162.883788,73.9917164" id="Fill-109" fill="#459A44" mask="url(#mask-74)"></path>
                            </g>
                            <g id="Group-114">
                                <mask id="mask-76" fill="white">
                                    <use xlink:href="#path-75"></use>
                                </mask>
                                <g id="Clip-113"></g>
                                <path d="M125.012481,113.451772 C125.718023,113.169459 126.270036,112.890599 126.356288,112.166254 C126.426152,111.582634 125.711122,110.668353 125.012481,110.3964 L125.012481,113.451772 Z M121.619323,105.723123 C121.684875,105.661825 121.750427,105.598801 121.815978,105.537504 L121.815978,100.682925 C121.071623,101.060206 120.406619,101.325252 119.82183,101.711166 C119.079199,102.202409 118.938609,102.777395 119.477684,103.46289 C120.116812,104.275296 120.899119,104.974604 121.619323,105.723123 L121.619323,105.723123 Z M125.028868,97.3383326 C126.232948,96.652838 127.378375,96.0329575 128.057179,94.8588106 C128.181382,94.6438381 128.042516,94.0394978 127.838961,93.9125863 C126.987653,93.3799035 126.065619,92.9603186 125.028868,92.4267725 L125.028868,97.3383326 Z M126.8669,76.4272942 C126.747873,76.4868649 126.608144,76.6180931 126.510679,76.5921928 C125.298837,76.2675757 124.383703,76.8917729 123.387491,77.4304991 C122.654348,77.8267737 121.759052,78.1747011 120.955182,78.1384406 C118.977422,78.0477896 117.65949,79.1261054 116.363121,80.332196 C116.032776,80.6395462 115.77747,81.0297774 115.361735,81.5356966 L136.099324,81.5356966 C134.771904,86.3747358 131.850546,89.5527026 127.173095,91.3294631 C127.664732,91.5988262 128.033029,91.7853084 128.387525,91.9951008 C130.348035,93.1519809 130.649054,95.1609808 128.962826,96.7149987 C127.961439,97.6387761 126.766848,98.3631211 125.61107,99.1012796 C125.171184,99.3810029 124.969354,99.6244657 124.976255,100.162329 C125.00903,102.436375 125.012481,104.712148 124.976255,106.986194 C124.965904,107.596578 125.152209,107.972996 125.639533,108.347687 C126.294187,108.850152 126.919514,109.427729 127.431852,110.07351 C128.732533,111.712999 128.421163,113.508753 126.705609,114.688943 C126.540868,114.801178 126.370951,114.908232 126.143245,115.056727 C127.750122,116.031442 128.942988,117.282426 129.32336,119.223222 L116.991036,119.223222 C117.672428,116.623696 119.381944,115.145652 121.872905,114.41699 C121.872905,112.3795 121.892743,110.366183 121.847891,108.354593 C121.841854,108.09559 121.536521,107.80119 121.306228,107.595714 C120.302254,106.699564 119.159414,105.932052 118.28223,104.92971 C116.70813,103.131366 117.089364,101.144813 119.155101,99.9326792 C119.963283,99.4587038 120.874105,99.1617137 121.822878,98.7473089 L121.822878,92.0261812 C118.202016,91.5919195 115.094353,90.1440928 112.68792,87.3572205 C111.25786,85.7013281 110.247848,83.8270097 109.738961,81.5451933 C110.736898,81.5451933 111.650307,81.5184297 112.561129,81.5564168 C113.061391,81.5771371 113.316698,81.3777047 113.581491,80.9650266 C115.021901,78.720334 116.864246,77.0048709 119.563936,76.35391 C120.498046,76.1294407 121.349354,75.5777644 122.277427,75.3075379 C123.095097,75.0709818 123.922254,75.1599062 124.610546,75.8091404 C124.758899,75.9498653 125.062507,75.9360518 125.298837,75.9671322 C125.818938,76.0361997 126.342488,76.0888636 126.86345,76.147571 C126.865175,76.240812 126.866038,76.3349165 126.8669,76.4272942 L126.8669,76.4272942 Z" id="Fill-112" fill="#FFFFFF" mask="url(#mask-76)"></path>
                            </g>
                        </g>
                    </g>
                </g>
            </g>
        </g>
    </g>
</svg>