<?xml version="1.0" encoding="UTF-8"?>
<svg width="80px" height="48px" viewBox="0 0 80 48" version="1.1" xmlns="http://www.w3.org/2000/svg" xmlns:xlink="http://www.w3.org/1999/xlink">
    <title>atoms/img/ilustraciones/shadow_base/mailing</title>
    <defs>
        <polygon id="path-1" points="0.000282352941 0.0322823529 79.8117647 0.0322823529 79.8117647 0.973458824 0.000282352941 0.973458824"></polygon>
        <polygon id="path-3" points="0 40.0478118 79.8117647 40.0478118 79.8117647 -0.000188235294 0 -0.000188235294"></polygon>
    </defs>
    <g id="UI-KIT" stroke="none" stroke-width="1" fill="none" fill-rule="evenodd">
        <g id="Correos_web_UIkit_54_Illustrations" transform="translate(-1280.000000, -652.000000)">
            <g id="atoms/img/ilustraciones/shadow_base/mailing" transform="translate(1280.000000, 632.000000)">
                <path d="M46.7469176,67.9529412 C74.8203294,67.9529412 93.3662118,43.8381176 55.9036235,43.8381176 C47.3728,43.8381176 27.5817412,48.8150588 16.4542118,48.8150588 C6.31585882,48.8150588 2.86268235,49.1858824 2.86268235,52.2767059 C2.86268235,57.8522353 16.3600941,67.9529412 46.7469176,67.9529412" id="Fill-1" fill="#F3F2F2"></path>
                <g id="Group-17" transform="translate(0.000000, 20.000000)">
                    <g id="Group-3" transform="translate(0.000000, 33.459576)">
                        <mask id="mask-2" fill="white">
                            <use xlink:href="#path-1"></use>
                        </mask>
                        <g id="Clip-2"></g>
                        <path d="M79.3414588,0.973458824 L0.470870588,0.973458824 C0.210164706,0.973458824 0.000282352941,0.762635294 0.000282352941,0.502870588 C0.000282352941,0.243105882 0.210164706,0.0322823529 0.470870588,0.0322823529 L79.3414588,0.0322823529 C79.6012235,0.0322823529 79.8120471,0.243105882 79.8120471,0.502870588 C79.8120471,0.762635294 79.6012235,0.973458824 79.3414588,0.973458824" id="Fill-1" fill="#002E6D" mask="url(#mask-2)"></path>
                    </g>
                    <mask id="mask-4" fill="white">
                        <use xlink:href="#path-3"></use>
                    </mask>
                    <g id="Clip-5"></g>
                    <polygon id="Fill-4" fill="#FFFFFF" mask="url(#mask-4)" points="17.4494118 39.5772235 54.8329412 39.5772235 54.8329412 0.4704 17.4494118 0.4704"></polygon>
                    <polygon id="Fill-6" fill="#CBCBCB" mask="url(#mask-4)" points="54.8338824 39.5772235 63.2847059 39.5772235 63.2847059 0.4704 54.8338824 0.4704"></polygon>
                    <path d="M55.3044706,39.1066353 L62.8141176,39.1066353 L62.8141176,0.940988235 L55.3044706,0.940988235 L55.3044706,39.1066353 Z M17.92,39.1066353 L54.3623529,39.1066353 L54.3623529,0.940988235 L17.92,0.940988235 L17.92,39.1066353 Z M63.2847059,-0.000188235294 L54.8329412,-0.000188235294 L17.4494118,-0.000188235294 C17.1896471,-0.000188235294 16.9788235,0.210635294 16.9788235,0.4704 L16.9788235,39.5772235 C16.9788235,39.8379294 17.1896471,40.0478118 17.4494118,40.0478118 L54.8329412,40.0478118 L63.2847059,40.0478118 C63.5444706,40.0478118 63.7552941,39.8379294 63.7552941,39.5772235 L63.7552941,0.4704 C63.7552941,0.210635294 63.5444706,-0.000188235294 63.2847059,-0.000188235294 L63.2847059,-0.000188235294 Z" id="Fill-7" fill="#002E6D" mask="url(#mask-4)"></path>
                    <polygon id="Fill-8" fill="#FFCD00" mask="url(#mask-4)" points="20.8574118 35.6355765 34.3454118 35.6355765 34.3454118 30.7376941 20.8574118 30.7376941"></polygon>
                    <path d="M21.328,35.1659294 L33.8748235,35.1659294 L33.8748235,31.2092235 L21.328,31.2092235 L21.328,35.1659294 Z M34.3454118,36.1071059 L20.8574118,36.1071059 C20.5967059,36.1071059 20.3868235,35.8962824 20.3868235,35.6365176 L20.3868235,30.7386353 C20.3868235,30.4779294 20.5967059,30.2680471 20.8574118,30.2680471 L34.3454118,30.2680471 C34.6051765,30.2680471 34.816,30.4779294 34.816,30.7386353 L34.816,35.6365176 C34.816,35.8962824 34.6051765,36.1071059 34.3454118,36.1071059 L34.3454118,36.1071059 Z" id="Fill-9" fill="#002E6D" mask="url(#mask-4)"></path>
                    <path d="M50.722084,33.1872 C50.722084,34.7651071 49.4428483,36.0443429 47.8649412,36.0443429 C46.2870341,36.0443429 45.0077983,34.7651071 45.0077983,33.1872 C45.0077983,31.6092929 46.2870341,30.3300571 47.8649412,30.3300571 C49.4428483,30.3300571 50.722084,31.6092929 50.722084,33.1872" id="Fill-10" fill="#002E6D" mask="url(#mask-4)"></path>
                    <polygon id="Fill-12" fill="#CBCBCB" mask="url(#mask-4)" points="49.4398118 10.5728 31.7456941 29.3313882 20.9607529 18.5464471 27.9932235 10.5728 49.4398118 7.53374118"></polygon>
                    <polygon id="Fill-13" fill="#FFFFFF" mask="url(#mask-4)" points="49.3727059 5.58014118 47.5402353 11.4860235 20.8569412 11.4860235 23.0790588 5.58014118"></polygon>
                    <polygon id="Fill-14" fill="#FFFFFF" mask="url(#mask-4)" points="45.2486588 11.4735059 28.9107765 28.8730353 18.4100706 18.3723294 24.3667765 11.4735059"></polygon>
                    <polygon id="Fill-15" fill="#002453" mask="url(#mask-4)" points="49.3727059 5.58014118 49.3727059 10.5909647 47.8705882 10.5909647"></polygon>
                    <path d="M45.2918588,11.0158118 C45.2758588,11.0139294 45.2645647,11.0026353 45.2485647,11.0026353 L24.3676235,11.0026353 C24.3469176,11.0026353 24.3290353,11.0129882 24.3083294,11.0158118 L21.5375059,11.0158118 L23.4048,6.05110588 L48.7337412,6.05110588 L47.1939765,11.0158118 L45.2918588,11.0158118 Z M28.8993882,28.1960471 L20.4965647,19.7932235 L22.3619765,20.6045176 C22.4222118,20.6299294 22.4862118,20.6431059 22.5492706,20.6431059 C22.6810353,20.6431059 22.8099765,20.5875765 22.9012706,20.4849882 L30.4720941,11.9569882 L44.1492706,11.9569882 L28.8993882,28.1960471 Z M29.2128,11.9569882 L22.4240941,19.6040471 L19.1845647,18.1951059 L24.5709176,11.9569882 L29.2128,11.9569882 Z M49.8349176,5.53251765 C49.8320941,5.51087059 49.8283294,5.49110588 49.8226824,5.46945882 C49.8113882,5.42051765 49.7916235,5.37534118 49.7652706,5.33298824 C49.7586824,5.32357647 49.7586824,5.3104 49.7511529,5.30098824 C49.7483294,5.29628235 49.7426824,5.2944 49.7408,5.29063529 C49.7003294,5.23887059 49.6504471,5.19557647 49.5911529,5.16451765 C49.5798588,5.15887059 49.5666824,5.15792941 49.5553882,5.15322353 C49.5186824,5.13722353 49.4819765,5.12028235 49.4405647,5.11369412 C49.4273882,5.11275294 49.4151529,5.11651765 49.4010353,5.11651765 C49.3916235,5.11557647 49.3831529,5.10992941 49.3728,5.10992941 L23.0791529,5.10992941 C22.8833882,5.10992941 22.7083294,5.23134118 22.6396235,5.41487059 L20.4165647,11.3207529 C20.3619765,11.4656941 20.3826824,11.6266353 20.4702118,11.7536941 C20.5577412,11.8816941 20.7026824,11.9569882 20.8570353,11.9569882 L23.3276235,11.9569882 L18.0542118,18.0642824 C18.0353882,18.0859294 18.0269176,18.1113412 18.0137412,18.1339294 C18.0024471,18.1527529 17.9864471,18.1649882 17.9779765,18.1847529 C17.9760941,18.1904 17.9770353,18.1960471 17.9751529,18.2016941 C17.9610353,18.2374588 17.9563294,18.2741647 17.9516235,18.3118118 C17.9478588,18.3344 17.9403294,18.3560471 17.9411899,18.3786353 C17.9411899,18.4134588 17.9516235,18.4464 17.9600941,18.4802824 C17.9657412,18.5038118 17.9666824,18.5282824 17.9760941,18.5508706 C17.9873882,18.5781647 18.0071529,18.6007529 18.0231529,18.6252235 C18.0400941,18.6515765 18.0532706,18.6788706 18.0749176,18.7014588 C18.0758588,18.7024 18.0758588,18.7033412 18.0768,18.7052235 L28.5775059,29.2049882 C28.6659765,29.2934588 28.7855059,29.3433412 28.9106824,29.3433412 L28.9182118,29.3433412 C29.0452706,29.3414588 29.1657412,29.2878118 29.2532706,29.1936941 L45.4396235,11.9569882 L47.5403294,11.9569882 C47.7455059,11.9569882 47.9290353,11.8224 47.9892706,11.6256941 L48.1643294,11.0619294 L49.3728,11.0619294 C49.6325647,11.0619294 49.8433882,10.8511059 49.8433882,10.5913412 L49.8433882,5.58051765 C49.8433882,5.56357647 49.8358588,5.54851765 49.8349176,5.53251765 L49.8349176,5.53251765 Z" id="Fill-16" fill="#002E6D" mask="url(#mask-4)"></path>
                </g>
            </g>
        </g>
    </g>
</svg>