<?xml version="1.0" encoding="UTF-8"?>
<svg width="36px" height="36px" viewBox="0 0 36 36" version="1.1" xmlns="http://www.w3.org/2000/svg" xmlns:xlink="http://www.w3.org/1999/xlink">
    <title>atoms/ico/tools/resevar_cita</title>
    <g id="UI-KIT" stroke="none" stroke-width="1" fill="none" fill-rule="evenodd">
        <g id="Correos_web_UIkit_Icons" transform="translate(-428.000000, -2952.000000)">
            <g id="Group" transform="translate(424.000000, 2952.000000)">
                <path d="M40,16 L8,16 L8,20 L40,20 L40,16 Z M40,8 L8,8 L8,12 L40,12 L40,8 Z M40,0 L8,0 L8,4 L40,4 L40,0 Z" id="Combined-Shape" fill="#FFCD00"></path>
                <g transform="translate(0.000000, 8.000000)" fill="#002E6D" id="atoms/ico/24px/ico_appointment">
                    <path d="M22.6666667,2.66666667 C23.4026667,2.66666667 24,3.26266667 24,4 L24,4 L24,5.33333333 L26.6666667,5.33333333 C27.4026667,5.33333333 28,5.92933333 28,6.66666667 L28,6.66666667 L28,26.6666667 C28,27.404 27.4026667,28 26.6666667,28 L26.6666667,28 L5.33333333,28 C4.59733333,28 4,27.404 4,26.6666667 L4,26.6666667 L4,6.66666667 C4,5.92933333 4.59733333,5.33333333 5.33333333,5.33333333 L5.33333333,5.33333333 L8,5.33333333 L8,4 C8,3.26266667 8.59733333,2.66666667 9.33333333,2.66666667 C10.0693333,2.66666667 10.6666667,3.26266667 10.6666667,4 L10.6666667,4 L10.6666667,5.33333333 L21.3333333,5.33333333 L21.3333333,4 C21.3333333,3.26266667 21.9306667,2.66666667 22.6666667,2.66666667 Z M25.3333333,13.3333333 L6.66666667,13.3333333 L6.66666667,25.3333333 L25.3333333,25.3333333 L25.3333333,13.3333333 Z M19.0573333,15.0573333 C19.5786667,14.536 20.4213333,14.536 20.9426667,15.0573333 C21.464,15.5786667 21.464,16.4213333 20.9426667,16.9426667 L20.9426667,16.9426667 L15.6093333,22.276 C15.3493333,22.536 15.008,22.6666667 14.6666667,22.6666667 C14.3253333,22.6666667 13.984,22.536 13.724,22.276 L13.724,22.276 L11.0573333,19.6093333 C10.536,19.088 10.536,18.2453333 11.0573333,17.724 C11.5786667,17.2026667 12.4213333,17.2026667 12.9426667,17.724 L12.9426667,17.724 L14.6666667,19.448 Z M8,8 L6.66666667,8 L6.66666667,10.6666667 L25.3333333,10.6666667 L25.3333333,8 L24,8 C24,8.73733333 23.4026667,9.33333333 22.6666667,9.33333333 C21.9306667,9.33333333 21.3333333,8.73733333 21.3333333,8 L21.3333333,8 L10.6666667,8 C10.6666667,8.73733333 10.0693333,9.33333333 9.33333333,9.33333333 C8.59733333,9.33333333 8,8.73733333 8,8 L8,8 Z" id="Combined-Shape"></path>
                </g>
            </g>
        </g>
    </g>
</svg>